G04 #@! TF.GenerationSoftware,KiCad,Pcbnew,10.0.5-10.0.5~ubuntu26.04.1*
G04 #@! TF.CreationDate,2026-08-24T17:00:14+00:00*
G04 #@! TF.ProjectId,mini-blink-dongle,6d696e69-2d62-46c6-996e-6b2d646f6e67,rev?*
G04 #@! TF.SameCoordinates,Original*
G04 #@! TF.FileFunction,Legend,Bot*
G04 #@! TF.FilePolarity,Positive*
%FSLAX46Y46*%
G04 Gerber Fmt 4.6, Leading zero omitted, Abs format (unit mm)*
G04 Created by KiCad (PCBNEW 10.0.5-10.0.5~ubuntu26.04.1) date 2026-08-24 17:00:14*
%MOMM*%
%LPD*%
G01*
G04 APERTURE LIST*
%ADD10C,0.150000*%
G04 APERTURE END LIST*
D10*
X15892965Y-5638719D02*
X15892965Y-4638719D01*
X15892965Y-4638719D02*
X15559632Y-5353004D01*
X15559632Y-5353004D02*
X15226299Y-4638719D01*
X15226299Y-4638719D02*
X15226299Y-5638719D01*
X14750108Y-5638719D02*
X14750108Y-4638719D01*
X14273918Y-5638719D02*
X14273918Y-4638719D01*
X14273918Y-4638719D02*
X13702490Y-5638719D01*
X13702490Y-5638719D02*
X13702490Y-4638719D01*
X13226299Y-5638719D02*
X13226299Y-4638719D01*
X11654871Y-5114909D02*
X11512014Y-5162528D01*
X11512014Y-5162528D02*
X11464395Y-5210147D01*
X11464395Y-5210147D02*
X11416776Y-5305385D01*
X11416776Y-5305385D02*
X11416776Y-5448242D01*
X11416776Y-5448242D02*
X11464395Y-5543480D01*
X11464395Y-5543480D02*
X11512014Y-5591100D01*
X11512014Y-5591100D02*
X11607252Y-5638719D01*
X11607252Y-5638719D02*
X11988204Y-5638719D01*
X11988204Y-5638719D02*
X11988204Y-4638719D01*
X11988204Y-4638719D02*
X11654871Y-4638719D01*
X11654871Y-4638719D02*
X11559633Y-4686338D01*
X11559633Y-4686338D02*
X11512014Y-4733957D01*
X11512014Y-4733957D02*
X11464395Y-4829195D01*
X11464395Y-4829195D02*
X11464395Y-4924433D01*
X11464395Y-4924433D02*
X11512014Y-5019671D01*
X11512014Y-5019671D02*
X11559633Y-5067290D01*
X11559633Y-5067290D02*
X11654871Y-5114909D01*
X11654871Y-5114909D02*
X11988204Y-5114909D01*
X10512014Y-5638719D02*
X10988204Y-5638719D01*
X10988204Y-5638719D02*
X10988204Y-4638719D01*
X10178680Y-5638719D02*
X10178680Y-4638719D01*
X9702490Y-5638719D02*
X9702490Y-4638719D01*
X9702490Y-4638719D02*
X9131062Y-5638719D01*
X9131062Y-5638719D02*
X9131062Y-4638719D01*
X8654871Y-5638719D02*
X8654871Y-4638719D01*
X8083443Y-5638719D02*
X8512014Y-5067290D01*
X8083443Y-4638719D02*
X8654871Y-5210147D01*
X6892966Y-5638719D02*
X6892966Y-4638719D01*
X6892966Y-4638719D02*
X6654871Y-4638719D01*
X6654871Y-4638719D02*
X6512014Y-4686338D01*
X6512014Y-4686338D02*
X6416776Y-4781576D01*
X6416776Y-4781576D02*
X6369157Y-4876814D01*
X6369157Y-4876814D02*
X6321538Y-5067290D01*
X6321538Y-5067290D02*
X6321538Y-5210147D01*
X6321538Y-5210147D02*
X6369157Y-5400623D01*
X6369157Y-5400623D02*
X6416776Y-5495861D01*
X6416776Y-5495861D02*
X6512014Y-5591100D01*
X6512014Y-5591100D02*
X6654871Y-5638719D01*
X6654871Y-5638719D02*
X6892966Y-5638719D01*
X5702490Y-4638719D02*
X5512014Y-4638719D01*
X5512014Y-4638719D02*
X5416776Y-4686338D01*
X5416776Y-4686338D02*
X5321538Y-4781576D01*
X5321538Y-4781576D02*
X5273919Y-4972052D01*
X5273919Y-4972052D02*
X5273919Y-5305385D01*
X5273919Y-5305385D02*
X5321538Y-5495861D01*
X5321538Y-5495861D02*
X5416776Y-5591100D01*
X5416776Y-5591100D02*
X5512014Y-5638719D01*
X5512014Y-5638719D02*
X5702490Y-5638719D01*
X5702490Y-5638719D02*
X5797728Y-5591100D01*
X5797728Y-5591100D02*
X5892966Y-5495861D01*
X5892966Y-5495861D02*
X5940585Y-5305385D01*
X5940585Y-5305385D02*
X5940585Y-4972052D01*
X5940585Y-4972052D02*
X5892966Y-4781576D01*
X5892966Y-4781576D02*
X5797728Y-4686338D01*
X5797728Y-4686338D02*
X5702490Y-4638719D01*
X4845347Y-5638719D02*
X4845347Y-4638719D01*
X4845347Y-4638719D02*
X4273919Y-5638719D01*
X4273919Y-5638719D02*
X4273919Y-4638719D01*
X3273919Y-4686338D02*
X3369157Y-4638719D01*
X3369157Y-4638719D02*
X3512014Y-4638719D01*
X3512014Y-4638719D02*
X3654871Y-4686338D01*
X3654871Y-4686338D02*
X3750109Y-4781576D01*
X3750109Y-4781576D02*
X3797728Y-4876814D01*
X3797728Y-4876814D02*
X3845347Y-5067290D01*
X3845347Y-5067290D02*
X3845347Y-5210147D01*
X3845347Y-5210147D02*
X3797728Y-5400623D01*
X3797728Y-5400623D02*
X3750109Y-5495861D01*
X3750109Y-5495861D02*
X3654871Y-5591100D01*
X3654871Y-5591100D02*
X3512014Y-5638719D01*
X3512014Y-5638719D02*
X3416776Y-5638719D01*
X3416776Y-5638719D02*
X3273919Y-5591100D01*
X3273919Y-5591100D02*
X3226300Y-5543480D01*
X3226300Y-5543480D02*
X3226300Y-5210147D01*
X3226300Y-5210147D02*
X3416776Y-5210147D01*
X2321538Y-5638719D02*
X2797728Y-5638719D01*
X2797728Y-5638719D02*
X2797728Y-4638719D01*
X1988204Y-5114909D02*
X1654871Y-5114909D01*
X1512014Y-5638719D02*
X1988204Y-5638719D01*
X1988204Y-5638719D02*
X1988204Y-4638719D01*
X1988204Y-4638719D02*
X1512014Y-4638719D01*
X18209523Y-7271519D02*
X18209523Y-6604852D01*
X18209523Y-6700090D02*
X18161904Y-6652471D01*
X18161904Y-6652471D02*
X18066666Y-6604852D01*
X18066666Y-6604852D02*
X17923809Y-6604852D01*
X17923809Y-6604852D02*
X17828571Y-6652471D01*
X17828571Y-6652471D02*
X17780952Y-6747709D01*
X17780952Y-6747709D02*
X17780952Y-7271519D01*
X17780952Y-6747709D02*
X17733333Y-6652471D01*
X17733333Y-6652471D02*
X17638095Y-6604852D01*
X17638095Y-6604852D02*
X17495238Y-6604852D01*
X17495238Y-6604852D02*
X17399999Y-6652471D01*
X17399999Y-6652471D02*
X17352380Y-6747709D01*
X17352380Y-6747709D02*
X17352380Y-7271519D01*
X16876190Y-7271519D02*
X16876190Y-6604852D01*
X16876190Y-6271519D02*
X16923809Y-6319138D01*
X16923809Y-6319138D02*
X16876190Y-6366757D01*
X16876190Y-6366757D02*
X16828571Y-6319138D01*
X16828571Y-6319138D02*
X16876190Y-6271519D01*
X16876190Y-6271519D02*
X16876190Y-6366757D01*
X16400000Y-6604852D02*
X16400000Y-7271519D01*
X16400000Y-6700090D02*
X16352381Y-6652471D01*
X16352381Y-6652471D02*
X16257143Y-6604852D01*
X16257143Y-6604852D02*
X16114286Y-6604852D01*
X16114286Y-6604852D02*
X16019048Y-6652471D01*
X16019048Y-6652471D02*
X15971429Y-6747709D01*
X15971429Y-6747709D02*
X15971429Y-7271519D01*
X15495238Y-7271519D02*
X15495238Y-6604852D01*
X15495238Y-6271519D02*
X15542857Y-6319138D01*
X15542857Y-6319138D02*
X15495238Y-6366757D01*
X15495238Y-6366757D02*
X15447619Y-6319138D01*
X15447619Y-6319138D02*
X15495238Y-6271519D01*
X15495238Y-6271519D02*
X15495238Y-6366757D01*
X15019048Y-6890566D02*
X14257144Y-6890566D01*
X13780953Y-7271519D02*
X13780953Y-6271519D01*
X13780953Y-6652471D02*
X13685715Y-6604852D01*
X13685715Y-6604852D02*
X13495239Y-6604852D01*
X13495239Y-6604852D02*
X13400001Y-6652471D01*
X13400001Y-6652471D02*
X13352382Y-6700090D01*
X13352382Y-6700090D02*
X13304763Y-6795328D01*
X13304763Y-6795328D02*
X13304763Y-7081042D01*
X13304763Y-7081042D02*
X13352382Y-7176280D01*
X13352382Y-7176280D02*
X13400001Y-7223900D01*
X13400001Y-7223900D02*
X13495239Y-7271519D01*
X13495239Y-7271519D02*
X13685715Y-7271519D01*
X13685715Y-7271519D02*
X13780953Y-7223900D01*
X12733334Y-7271519D02*
X12828572Y-7223900D01*
X12828572Y-7223900D02*
X12876191Y-7128661D01*
X12876191Y-7128661D02*
X12876191Y-6271519D01*
X12352381Y-7271519D02*
X12352381Y-6604852D01*
X12352381Y-6271519D02*
X12400000Y-6319138D01*
X12400000Y-6319138D02*
X12352381Y-6366757D01*
X12352381Y-6366757D02*
X12304762Y-6319138D01*
X12304762Y-6319138D02*
X12352381Y-6271519D01*
X12352381Y-6271519D02*
X12352381Y-6366757D01*
X11876191Y-6604852D02*
X11876191Y-7271519D01*
X11876191Y-6700090D02*
X11828572Y-6652471D01*
X11828572Y-6652471D02*
X11733334Y-6604852D01*
X11733334Y-6604852D02*
X11590477Y-6604852D01*
X11590477Y-6604852D02*
X11495239Y-6652471D01*
X11495239Y-6652471D02*
X11447620Y-6747709D01*
X11447620Y-6747709D02*
X11447620Y-7271519D01*
X10971429Y-7271519D02*
X10971429Y-6271519D01*
X10876191Y-6890566D02*
X10590477Y-7271519D01*
X10590477Y-6604852D02*
X10971429Y-6985804D01*
X10161905Y-6890566D02*
X9400001Y-6890566D01*
X8495239Y-7271519D02*
X8495239Y-6271519D01*
X8495239Y-7223900D02*
X8590477Y-7271519D01*
X8590477Y-7271519D02*
X8780953Y-7271519D01*
X8780953Y-7271519D02*
X8876191Y-7223900D01*
X8876191Y-7223900D02*
X8923810Y-7176280D01*
X8923810Y-7176280D02*
X8971429Y-7081042D01*
X8971429Y-7081042D02*
X8971429Y-6795328D01*
X8971429Y-6795328D02*
X8923810Y-6700090D01*
X8923810Y-6700090D02*
X8876191Y-6652471D01*
X8876191Y-6652471D02*
X8780953Y-6604852D01*
X8780953Y-6604852D02*
X8590477Y-6604852D01*
X8590477Y-6604852D02*
X8495239Y-6652471D01*
X7876191Y-7271519D02*
X7971429Y-7223900D01*
X7971429Y-7223900D02*
X8019048Y-7176280D01*
X8019048Y-7176280D02*
X8066667Y-7081042D01*
X8066667Y-7081042D02*
X8066667Y-6795328D01*
X8066667Y-6795328D02*
X8019048Y-6700090D01*
X8019048Y-6700090D02*
X7971429Y-6652471D01*
X7971429Y-6652471D02*
X7876191Y-6604852D01*
X7876191Y-6604852D02*
X7733334Y-6604852D01*
X7733334Y-6604852D02*
X7638096Y-6652471D01*
X7638096Y-6652471D02*
X7590477Y-6700090D01*
X7590477Y-6700090D02*
X7542858Y-6795328D01*
X7542858Y-6795328D02*
X7542858Y-7081042D01*
X7542858Y-7081042D02*
X7590477Y-7176280D01*
X7590477Y-7176280D02*
X7638096Y-7223900D01*
X7638096Y-7223900D02*
X7733334Y-7271519D01*
X7733334Y-7271519D02*
X7876191Y-7271519D01*
X7114286Y-6604852D02*
X7114286Y-7271519D01*
X7114286Y-6700090D02*
X7066667Y-6652471D01*
X7066667Y-6652471D02*
X6971429Y-6604852D01*
X6971429Y-6604852D02*
X6828572Y-6604852D01*
X6828572Y-6604852D02*
X6733334Y-6652471D01*
X6733334Y-6652471D02*
X6685715Y-6747709D01*
X6685715Y-6747709D02*
X6685715Y-7271519D01*
X5780953Y-6604852D02*
X5780953Y-7414376D01*
X5780953Y-7414376D02*
X5828572Y-7509614D01*
X5828572Y-7509614D02*
X5876191Y-7557233D01*
X5876191Y-7557233D02*
X5971429Y-7604852D01*
X5971429Y-7604852D02*
X6114286Y-7604852D01*
X6114286Y-7604852D02*
X6209524Y-7557233D01*
X5780953Y-7223900D02*
X5876191Y-7271519D01*
X5876191Y-7271519D02*
X6066667Y-7271519D01*
X6066667Y-7271519D02*
X6161905Y-7223900D01*
X6161905Y-7223900D02*
X6209524Y-7176280D01*
X6209524Y-7176280D02*
X6257143Y-7081042D01*
X6257143Y-7081042D02*
X6257143Y-6795328D01*
X6257143Y-6795328D02*
X6209524Y-6700090D01*
X6209524Y-6700090D02*
X6161905Y-6652471D01*
X6161905Y-6652471D02*
X6066667Y-6604852D01*
X6066667Y-6604852D02*
X5876191Y-6604852D01*
X5876191Y-6604852D02*
X5780953Y-6652471D01*
X5161905Y-7271519D02*
X5257143Y-7223900D01*
X5257143Y-7223900D02*
X5304762Y-7128661D01*
X5304762Y-7128661D02*
X5304762Y-6271519D01*
X4400000Y-7223900D02*
X4495238Y-7271519D01*
X4495238Y-7271519D02*
X4685714Y-7271519D01*
X4685714Y-7271519D02*
X4780952Y-7223900D01*
X4780952Y-7223900D02*
X4828571Y-7128661D01*
X4828571Y-7128661D02*
X4828571Y-6747709D01*
X4828571Y-6747709D02*
X4780952Y-6652471D01*
X4780952Y-6652471D02*
X4685714Y-6604852D01*
X4685714Y-6604852D02*
X4495238Y-6604852D01*
X4495238Y-6604852D02*
X4400000Y-6652471D01*
X4400000Y-6652471D02*
X4352381Y-6747709D01*
X4352381Y-6747709D02*
X4352381Y-6842947D01*
X4352381Y-6842947D02*
X4828571Y-6938185D01*
X3923809Y-6890566D02*
X3161905Y-6890566D01*
X2685714Y-7271519D02*
X2685714Y-6604852D01*
X2685714Y-6795328D02*
X2638095Y-6700090D01*
X2638095Y-6700090D02*
X2590476Y-6652471D01*
X2590476Y-6652471D02*
X2495238Y-6604852D01*
X2495238Y-6604852D02*
X2400000Y-6604852D01*
X1542857Y-7271519D02*
X2114285Y-7271519D01*
X1828571Y-7271519D02*
X1828571Y-6271519D01*
X1828571Y-6271519D02*
X1923809Y-6414376D01*
X1923809Y-6414376D02*
X2019047Y-6509614D01*
X2019047Y-6509614D02*
X2114285Y-6557233D01*
M02*
