G04 #@! TF.GenerationSoftware,KiCad,Pcbnew,10.0.5-10.0.5~ubuntu26.04.1*
G04 #@! TF.CreationDate,2026-08-24T17:00:14+00:00*
G04 #@! TF.ProjectId,mini-blink-dongle,6d696e69-2d62-46c6-996e-6b2d646f6e67,rev?*
G04 #@! TF.SameCoordinates,Original*
G04 #@! TF.FileFunction,Soldermask,Top*
G04 #@! TF.FilePolarity,Negative*
%FSLAX46Y46*%
G04 Gerber Fmt 4.6, Leading zero omitted, Abs format (unit mm)*
G04 Created by KiCad (PCBNEW 10.0.5-10.0.5~ubuntu26.04.1) date 2026-08-24 17:00:14*
%MOMM*%
%LPD*%
G01*
G04 APERTURE LIST*
%ADD10C,0.650000*%
%ADD11O,1.000000X2.100000*%
%ADD12O,1.000000X1.600000*%
%ADD13R,0.800000X0.400000*%
%ADD14R,0.400000X0.800000*%
%ADD15R,1.450000X1.450000*%
%ADD16R,0.700000X0.700000*%
G04 APERTURE END LIST*
G36*
G01*
X4775000Y-10750000D02*
X4775000Y-10250000D01*
G75*
G02*
X5000000Y-10025000I225000J0D01*
G01*
X5450000Y-10025000D01*
G75*
G02*
X5675000Y-10250000I0J-225000D01*
G01*
X5675000Y-10750000D01*
G75*
G02*
X5450000Y-10975000I-225000J0D01*
G01*
X5000000Y-10975000D01*
G75*
G02*
X4775000Y-10750000I0J225000D01*
G01*
G37*
G36*
G01*
X6325000Y-10750000D02*
X6325000Y-10250000D01*
G75*
G02*
X6550000Y-10025000I225000J0D01*
G01*
X7000000Y-10025000D01*
G75*
G02*
X7225000Y-10250000I0J-225000D01*
G01*
X7225000Y-10750000D01*
G75*
G02*
X7000000Y-10975000I-225000J0D01*
G01*
X6550000Y-10975000D01*
G75*
G02*
X6325000Y-10750000I0J225000D01*
G01*
G37*
G36*
G01*
X12775000Y-10750000D02*
X12775000Y-10250000D01*
G75*
G02*
X13000000Y-10025000I225000J0D01*
G01*
X13450000Y-10025000D01*
G75*
G02*
X13675000Y-10250000I0J-225000D01*
G01*
X13675000Y-10750000D01*
G75*
G02*
X13450000Y-10975000I-225000J0D01*
G01*
X13000000Y-10975000D01*
G75*
G02*
X12775000Y-10750000I0J225000D01*
G01*
G37*
G36*
G01*
X14325000Y-10750000D02*
X14325000Y-10250000D01*
G75*
G02*
X14550000Y-10025000I225000J0D01*
G01*
X15000000Y-10025000D01*
G75*
G02*
X15225000Y-10250000I0J-225000D01*
G01*
X15225000Y-10750000D01*
G75*
G02*
X15000000Y-10975000I-225000J0D01*
G01*
X14550000Y-10975000D01*
G75*
G02*
X14325000Y-10750000I0J225000D01*
G01*
G37*
G36*
G01*
X4775000Y-7750000D02*
X4775000Y-7250000D01*
G75*
G02*
X5000000Y-7025000I225000J0D01*
G01*
X5450000Y-7025000D01*
G75*
G02*
X5675000Y-7250000I0J-225000D01*
G01*
X5675000Y-7750000D01*
G75*
G02*
X5450000Y-7975000I-225000J0D01*
G01*
X5000000Y-7975000D01*
G75*
G02*
X4775000Y-7750000I0J225000D01*
G01*
G37*
G36*
G01*
X6325000Y-7750000D02*
X6325000Y-7250000D01*
G75*
G02*
X6550000Y-7025000I225000J0D01*
G01*
X7000000Y-7025000D01*
G75*
G02*
X7225000Y-7250000I0J-225000D01*
G01*
X7225000Y-7750000D01*
G75*
G02*
X7000000Y-7975000I-225000J0D01*
G01*
X6550000Y-7975000D01*
G75*
G02*
X6325000Y-7750000I0J225000D01*
G01*
G37*
G36*
G01*
X12775000Y-7750000D02*
X12775000Y-7250000D01*
G75*
G02*
X13000000Y-7025000I225000J0D01*
G01*
X13450000Y-7025000D01*
G75*
G02*
X13675000Y-7250000I0J-225000D01*
G01*
X13675000Y-7750000D01*
G75*
G02*
X13450000Y-7975000I-225000J0D01*
G01*
X13000000Y-7975000D01*
G75*
G02*
X12775000Y-7750000I0J225000D01*
G01*
G37*
G36*
G01*
X14325000Y-7750000D02*
X14325000Y-7250000D01*
G75*
G02*
X14550000Y-7025000I225000J0D01*
G01*
X15000000Y-7025000D01*
G75*
G02*
X15225000Y-7250000I0J-225000D01*
G01*
X15225000Y-7750000D01*
G75*
G02*
X15000000Y-7975000I-225000J0D01*
G01*
X14550000Y-7975000D01*
G75*
G02*
X14325000Y-7750000I0J225000D01*
G01*
G37*
G36*
G01*
X13775000Y-8256250D02*
X13775000Y-7743750D01*
G75*
G02*
X13993750Y-7525000I218750J0D01*
G01*
X14431250Y-7525000D01*
G75*
G02*
X14650000Y-7743750I0J-218750D01*
G01*
X14650000Y-8256250D01*
G75*
G02*
X14431250Y-8475000I-218750J0D01*
G01*
X13993750Y-8475000D01*
G75*
G02*
X13775000Y-8256250I0J218750D01*
G01*
G37*
G36*
G01*
X15350000Y-8256250D02*
X15350000Y-7743750D01*
G75*
G02*
X15568750Y-7525000I218750J0D01*
G01*
X16006250Y-7525000D01*
G75*
G02*
X16225000Y-7743750I0J-218750D01*
G01*
X16225000Y-8256250D01*
G75*
G02*
X16006250Y-8475000I-218750J0D01*
G01*
X15568750Y-8475000D01*
G75*
G02*
X15350000Y-8256250I0J218750D01*
G01*
G37*
D10*
X7110000Y-9400000D03*
X12890000Y-9400000D03*
G36*
G01*
X6450000Y-8530000D02*
X6450000Y-7380000D01*
G75*
G02*
X6600000Y-7230000I150000J0D01*
G01*
X6900000Y-7230000D01*
G75*
G02*
X7050000Y-7380000I0J-150000D01*
G01*
X7050000Y-8530000D01*
G75*
G02*
X6900000Y-8680000I-150000J0D01*
G01*
X6600000Y-8680000D01*
G75*
G02*
X6450000Y-8530000I0J150000D01*
G01*
G37*
G36*
G01*
X7250000Y-8530000D02*
X7250000Y-7380000D01*
G75*
G02*
X7400000Y-7230000I150000J0D01*
G01*
X7700000Y-7230000D01*
G75*
G02*
X7850000Y-7380000I0J-150000D01*
G01*
X7850000Y-8530000D01*
G75*
G02*
X7700000Y-8680000I-150000J0D01*
G01*
X7400000Y-8680000D01*
G75*
G02*
X7250000Y-8530000I0J150000D01*
G01*
G37*
G36*
G01*
X8600000Y-8605000D02*
X8600000Y-7305000D01*
G75*
G02*
X8675000Y-7230000I75000J0D01*
G01*
X8825000Y-7230000D01*
G75*
G02*
X8900000Y-7305000I0J-75000D01*
G01*
X8900000Y-8605000D01*
G75*
G02*
X8825000Y-8680000I-75000J0D01*
G01*
X8675000Y-8680000D01*
G75*
G02*
X8600000Y-8605000I0J75000D01*
G01*
G37*
G36*
G01*
X9600000Y-8605000D02*
X9600000Y-7305000D01*
G75*
G02*
X9675000Y-7230000I75000J0D01*
G01*
X9825000Y-7230000D01*
G75*
G02*
X9900000Y-7305000I0J-75000D01*
G01*
X9900000Y-8605000D01*
G75*
G02*
X9825000Y-8680000I-75000J0D01*
G01*
X9675000Y-8680000D01*
G75*
G02*
X9600000Y-8605000I0J75000D01*
G01*
G37*
G36*
G01*
X10100000Y-8605000D02*
X10100000Y-7305000D01*
G75*
G02*
X10175000Y-7230000I75000J0D01*
G01*
X10325000Y-7230000D01*
G75*
G02*
X10400000Y-7305000I0J-75000D01*
G01*
X10400000Y-8605000D01*
G75*
G02*
X10325000Y-8680000I-75000J0D01*
G01*
X10175000Y-8680000D01*
G75*
G02*
X10100000Y-8605000I0J75000D01*
G01*
G37*
G36*
G01*
X11100000Y-8605000D02*
X11100000Y-7305000D01*
G75*
G02*
X11175000Y-7230000I75000J0D01*
G01*
X11325000Y-7230000D01*
G75*
G02*
X11400000Y-7305000I0J-75000D01*
G01*
X11400000Y-8605000D01*
G75*
G02*
X11325000Y-8680000I-75000J0D01*
G01*
X11175000Y-8680000D01*
G75*
G02*
X11100000Y-8605000I0J75000D01*
G01*
G37*
G36*
G01*
X12150000Y-8530000D02*
X12150000Y-7380000D01*
G75*
G02*
X12300000Y-7230000I150000J0D01*
G01*
X12600000Y-7230000D01*
G75*
G02*
X12750000Y-7380000I0J-150000D01*
G01*
X12750000Y-8530000D01*
G75*
G02*
X12600000Y-8680000I-150000J0D01*
G01*
X12300000Y-8680000D01*
G75*
G02*
X12150000Y-8530000I0J150000D01*
G01*
G37*
G36*
G01*
X12950000Y-8530000D02*
X12950000Y-7380000D01*
G75*
G02*
X13100000Y-7230000I150000J0D01*
G01*
X13400000Y-7230000D01*
G75*
G02*
X13550000Y-7380000I0J-150000D01*
G01*
X13550000Y-8530000D01*
G75*
G02*
X13400000Y-8680000I-150000J0D01*
G01*
X13100000Y-8680000D01*
G75*
G02*
X12950000Y-8530000I0J150000D01*
G01*
G37*
G36*
G01*
X12950000Y-8530000D02*
X12950000Y-7380000D01*
G75*
G02*
X13100000Y-7230000I150000J0D01*
G01*
X13400000Y-7230000D01*
G75*
G02*
X13550000Y-7380000I0J-150000D01*
G01*
X13550000Y-8530000D01*
G75*
G02*
X13400000Y-8680000I-150000J0D01*
G01*
X13100000Y-8680000D01*
G75*
G02*
X12950000Y-8530000I0J150000D01*
G01*
G37*
G36*
G01*
X12150000Y-8530000D02*
X12150000Y-7380000D01*
G75*
G02*
X12300000Y-7230000I150000J0D01*
G01*
X12600000Y-7230000D01*
G75*
G02*
X12750000Y-7380000I0J-150000D01*
G01*
X12750000Y-8530000D01*
G75*
G02*
X12600000Y-8680000I-150000J0D01*
G01*
X12300000Y-8680000D01*
G75*
G02*
X12150000Y-8530000I0J150000D01*
G01*
G37*
G36*
G01*
X11600000Y-8605000D02*
X11600000Y-7305000D01*
G75*
G02*
X11675000Y-7230000I75000J0D01*
G01*
X11825000Y-7230000D01*
G75*
G02*
X11900000Y-7305000I0J-75000D01*
G01*
X11900000Y-8605000D01*
G75*
G02*
X11825000Y-8680000I-75000J0D01*
G01*
X11675000Y-8680000D01*
G75*
G02*
X11600000Y-8605000I0J75000D01*
G01*
G37*
G36*
G01*
X10600000Y-8605000D02*
X10600000Y-7305000D01*
G75*
G02*
X10675000Y-7230000I75000J0D01*
G01*
X10825000Y-7230000D01*
G75*
G02*
X10900000Y-7305000I0J-75000D01*
G01*
X10900000Y-8605000D01*
G75*
G02*
X10825000Y-8680000I-75000J0D01*
G01*
X10675000Y-8680000D01*
G75*
G02*
X10600000Y-8605000I0J75000D01*
G01*
G37*
G36*
G01*
X9100000Y-8605000D02*
X9100000Y-7305000D01*
G75*
G02*
X9175000Y-7230000I75000J0D01*
G01*
X9325000Y-7230000D01*
G75*
G02*
X9400000Y-7305000I0J-75000D01*
G01*
X9400000Y-8605000D01*
G75*
G02*
X9325000Y-8680000I-75000J0D01*
G01*
X9175000Y-8680000D01*
G75*
G02*
X9100000Y-8605000I0J75000D01*
G01*
G37*
G36*
G01*
X8100000Y-8605000D02*
X8100000Y-7305000D01*
G75*
G02*
X8175000Y-7230000I75000J0D01*
G01*
X8325000Y-7230000D01*
G75*
G02*
X8400000Y-7305000I0J-75000D01*
G01*
X8400000Y-8605000D01*
G75*
G02*
X8325000Y-8680000I-75000J0D01*
G01*
X8175000Y-8680000D01*
G75*
G02*
X8100000Y-8605000I0J75000D01*
G01*
G37*
G36*
G01*
X7250000Y-8530000D02*
X7250000Y-7380000D01*
G75*
G02*
X7400000Y-7230000I150000J0D01*
G01*
X7700000Y-7230000D01*
G75*
G02*
X7850000Y-7380000I0J-150000D01*
G01*
X7850000Y-8530000D01*
G75*
G02*
X7700000Y-8680000I-150000J0D01*
G01*
X7400000Y-8680000D01*
G75*
G02*
X7250000Y-8530000I0J150000D01*
G01*
G37*
G36*
G01*
X6450000Y-8530000D02*
X6450000Y-7380000D01*
G75*
G02*
X6600000Y-7230000I150000J0D01*
G01*
X6900000Y-7230000D01*
G75*
G02*
X7050000Y-7380000I0J-150000D01*
G01*
X7050000Y-8530000D01*
G75*
G02*
X6900000Y-8680000I-150000J0D01*
G01*
X6600000Y-8680000D01*
G75*
G02*
X6450000Y-8530000I0J150000D01*
G01*
G37*
D11*
X5680000Y-8870000D03*
D12*
X5680000Y-13050000D03*
D11*
X14320000Y-8870000D03*
D12*
X14320000Y-13050000D03*
G36*
G01*
X5775000Y-11775000D02*
X5775000Y-11225000D01*
G75*
G02*
X5975000Y-11025000I200000J0D01*
G01*
X6375000Y-11025000D01*
G75*
G02*
X6575000Y-11225000I0J-200000D01*
G01*
X6575000Y-11775000D01*
G75*
G02*
X6375000Y-11975000I-200000J0D01*
G01*
X5975000Y-11975000D01*
G75*
G02*
X5775000Y-11775000I0J200000D01*
G01*
G37*
G36*
G01*
X7425000Y-11775000D02*
X7425000Y-11225000D01*
G75*
G02*
X7625000Y-11025000I200000J0D01*
G01*
X8025000Y-11025000D01*
G75*
G02*
X8225000Y-11225000I0J-200000D01*
G01*
X8225000Y-11775000D01*
G75*
G02*
X8025000Y-11975000I-200000J0D01*
G01*
X7625000Y-11975000D01*
G75*
G02*
X7425000Y-11775000I0J200000D01*
G01*
G37*
G36*
G01*
X11775000Y-11775000D02*
X11775000Y-11225000D01*
G75*
G02*
X11975000Y-11025000I200000J0D01*
G01*
X12375000Y-11025000D01*
G75*
G02*
X12575000Y-11225000I0J-200000D01*
G01*
X12575000Y-11775000D01*
G75*
G02*
X12375000Y-11975000I-200000J0D01*
G01*
X11975000Y-11975000D01*
G75*
G02*
X11775000Y-11775000I0J200000D01*
G01*
G37*
G36*
G01*
X13425000Y-11775000D02*
X13425000Y-11225000D01*
G75*
G02*
X13625000Y-11025000I200000J0D01*
G01*
X14025000Y-11025000D01*
G75*
G02*
X14225000Y-11225000I0J-200000D01*
G01*
X14225000Y-11775000D01*
G75*
G02*
X14025000Y-11975000I-200000J0D01*
G01*
X13625000Y-11975000D01*
G75*
G02*
X13425000Y-11775000I0J200000D01*
G01*
G37*
G36*
G01*
X13275000Y-7725000D02*
X12725000Y-7725000D01*
G75*
G02*
X12525000Y-7525000I0J200000D01*
G01*
X12525000Y-7125000D01*
G75*
G02*
X12725000Y-6925000I200000J0D01*
G01*
X13275000Y-6925000D01*
G75*
G02*
X13475000Y-7125000I0J-200000D01*
G01*
X13475000Y-7525000D01*
G75*
G02*
X13275000Y-7725000I-200000J0D01*
G01*
G37*
G36*
G01*
X13275000Y-6075000D02*
X12725000Y-6075000D01*
G75*
G02*
X12525000Y-5875000I0J200000D01*
G01*
X12525000Y-5475000D01*
G75*
G02*
X12725000Y-5275000I200000J0D01*
G01*
X13275000Y-5275000D01*
G75*
G02*
X13475000Y-5475000I0J-200000D01*
G01*
X13475000Y-5875000D01*
G75*
G02*
X13275000Y-6075000I-200000J0D01*
G01*
G37*
G36*
G01*
X1250000Y-6250000D02*
X1250000Y-4750000D01*
G75*
G02*
X1500000Y-4500000I250000J0D01*
G01*
X2050000Y-4500000D01*
G75*
G02*
X2300000Y-4750000I0J-250000D01*
G01*
X2300000Y-6250000D01*
G75*
G02*
X2050000Y-6500000I-250000J0D01*
G01*
X1500000Y-6500000D01*
G75*
G02*
X1250000Y-6250000I0J250000D01*
G01*
G37*
G36*
G01*
X5700000Y-6250000D02*
X5700000Y-4750000D01*
G75*
G02*
X5950000Y-4500000I250000J0D01*
G01*
X6500000Y-4500000D01*
G75*
G02*
X6750000Y-4750000I0J-250000D01*
G01*
X6750000Y-6250000D01*
G75*
G02*
X6500000Y-6500000I-250000J0D01*
G01*
X5950000Y-6500000D01*
G75*
G02*
X5700000Y-6250000I0J250000D01*
G01*
G37*
D13*
X4100000Y-700000D03*
X4100000Y-1500000D03*
X4100000Y-2300000D03*
X4100000Y-3100000D03*
X4100000Y-3900000D03*
X4100000Y-4700000D03*
X4100000Y-5500000D03*
X4100000Y-6300000D03*
X4100000Y-7100000D03*
X4100000Y-7900000D03*
X4100000Y-8700000D03*
D14*
X5200000Y-9600000D03*
X6000000Y-9600000D03*
X6800000Y-9600000D03*
X7600000Y-9600000D03*
X8400000Y-9600000D03*
X9200000Y-9600000D03*
X10000000Y-9600000D03*
X10800000Y-9600000D03*
X11600000Y-9600000D03*
X12400000Y-9600000D03*
X13200000Y-9600000D03*
X14000000Y-9600000D03*
X14800000Y-9600000D03*
D13*
X15900000Y-8700000D03*
X15900000Y-7900000D03*
X15900000Y-7100000D03*
X15900000Y-6300000D03*
X15900000Y-5500000D03*
X15900000Y-4700000D03*
X15900000Y-3900000D03*
X15900000Y-3100000D03*
X15900000Y-2300000D03*
X15900000Y-1500000D03*
X15900000Y-700000D03*
D14*
X14800000Y200000D03*
X14000000Y200000D03*
X13200000Y200000D03*
X12400000Y200000D03*
X11600000Y200000D03*
X10800000Y200000D03*
X10000000Y200000D03*
X9200000Y200000D03*
X8400000Y200000D03*
X7600000Y200000D03*
X6800000Y200000D03*
X6000000Y200000D03*
X5200000Y200000D03*
G36*
X8750000Y-3450000D02*
G01*
X7300000Y-3450000D01*
X7300000Y-2600000D01*
X7900000Y-2000000D01*
X8750000Y-2000000D01*
X8750000Y-3450000D01*
G37*
D15*
X8025000Y-4700000D03*
X8025000Y-6675000D03*
X10000000Y-2725000D03*
X10000000Y-4700000D03*
X10000000Y-6675000D03*
X11975000Y-2725000D03*
X11975000Y-4700000D03*
X11975000Y-6675000D03*
D16*
X15950000Y250000D03*
X15950000Y-9650000D03*
X4050000Y-9650000D03*
X4050000Y250000D03*
G36*
G01*
X1575000Y-13150000D02*
X825000Y-13150000D01*
G75*
G02*
X450000Y-12775000I0J375000D01*
G01*
X450000Y-11525000D01*
G75*
G02*
X825000Y-11150000I375000J0D01*
G01*
X1575000Y-11150000D01*
G75*
G02*
X1950000Y-11525000I0J-375000D01*
G01*
X1950000Y-12775000D01*
G75*
G02*
X1575000Y-13150000I-375000J0D01*
G01*
G37*
G36*
G01*
X3875000Y-13150000D02*
X3125000Y-13150000D01*
G75*
G02*
X2750000Y-12775000I0J375000D01*
G01*
X2750000Y-11525000D01*
G75*
G02*
X3125000Y-11150000I375000J0D01*
G01*
X3875000Y-11150000D01*
G75*
G02*
X4250000Y-11525000I0J-375000D01*
G01*
X4250000Y-12775000D01*
G75*
G02*
X3875000Y-13150000I-375000J0D01*
G01*
G37*
G36*
G01*
X4900000Y-6850000D02*
X2100000Y-6850000D01*
G75*
G02*
X1600000Y-6350000I0J500000D01*
G01*
X1600000Y-5350000D01*
G75*
G02*
X2100000Y-4850000I500000J0D01*
G01*
X4900000Y-4850000D01*
G75*
G02*
X5400000Y-5350000I0J-500000D01*
G01*
X5400000Y-6350000D01*
G75*
G02*
X4900000Y-6850000I-500000J0D01*
G01*
G37*
G36*
G01*
X6175000Y-13150000D02*
X5425000Y-13150000D01*
G75*
G02*
X5050000Y-12775000I0J375000D01*
G01*
X5050000Y-11525000D01*
G75*
G02*
X5425000Y-11150000I375000J0D01*
G01*
X6175000Y-11150000D01*
G75*
G02*
X6550000Y-11525000I0J-375000D01*
G01*
X6550000Y-12775000D01*
G75*
G02*
X6175000Y-13150000I-375000J0D01*
G01*
G37*
M02*
