<svg xmlns="http://www.w3.org/2000/svg" width="184.96mm" height="193.876667mm" viewBox="0 0 184.96 193.876667"><title>Component placement — board.dual-beacon-tag</title><rect id="background" x="0" y="0" width="184.96" height="193.876667" fill="#ffffff"/><g id="document" font-family="DejaVu Sans, Liberation Sans, Arial, sans-serif" fill="#1a1a1a"><g id="header"><text id="title" x="6" y="7.56" font-size="5.4" font-weight="bold">Component placement — board.dual-beacon-tag</text><text id="subtitle" x="6" y="12.51" font-size="3.3" fill="#555555">30 mm × 22 mm, 17 components (front 17 / back 0)</text><line x1="6" y1="15.51" x2="178.96" y2="15.51" stroke="#bbbbbb" stroke-width="0.3"/></g><g id="placement-view"><g id="placement-legend"><rect x="6" y="19.866" width="2.64" height="2.64" fill="#005fa3" stroke="#005fa3" stroke-width="0.288"/><text x="9.696" y="22.11" font-size="2.4">front component</text><rect x="35.376" y="19.866" width="2.64" height="2.64" fill="#c2410c" stroke="#c2410c" stroke-width="0.288"/><text x="39.072" y="22.11" font-size="2.4">back component</text><rect x="63.36" y="19.866" width="2.64" height="2.64" fill="none" stroke="#4a4a4a" stroke-width="0.288"/><text x="67.056" y="22.11" font-size="2.4">board outline</text></g><g transform="translate(6 58.876667) scale(5.333333)"><g id="board-outline"><rect id="board-outline-rect" x="0" y="0" width="30" height="22" fill="none" stroke="#4a4a4a" stroke-width="0.0675"/></g><g id="front"><g id="placement-c1" data-side="front"><polygon id="footprint-c1" points="9.01,15.8 9.01,18.76 7.55,18.76 7.55,15.8" fill="#005fa3" fill-opacity="0.3" stroke="#004a80" stroke-width="0.084375"/><text id="refdes-c1" x="8.28" y="17.476875" font-size="0.5625" text-anchor="middle" font-weight="bold">C1</text></g><g id="placement-c2" data-side="front"><polygon id="footprint-c2" points="7.01,15.8 7.01,18.76 5.55,18.76 5.55,15.8" fill="#005fa3" fill-opacity="0.3" stroke="#004a80" stroke-width="0.084375"/><text id="refdes-c2" x="6.28" y="17.476875" font-size="0.5625" text-anchor="middle" font-weight="bold">C2</text></g><g id="placement-c3" data-side="front"><polygon id="footprint-c3" points="29.51,15.05 29.51,18.01 28.05,18.01 28.05,15.05" fill="#005fa3" fill-opacity="0.3" stroke="#004a80" stroke-width="0.084375"/><text id="refdes-c3" x="28.78" y="16.726875" font-size="0.5625" text-anchor="middle" font-weight="bold">C3</text></g><g id="placement-c4" data-side="front"><polygon id="footprint-c4" points="8.01,1.05 8.01,4.01 6.55,4.01 6.55,1.05" fill="#005fa3" fill-opacity="0.3" stroke="#004a80" stroke-width="0.084375"/><text id="refdes-c4" x="7.28" y="2.726875" font-size="0.5625" text-anchor="middle" font-weight="bold">C4</text></g><g id="placement-d1" data-side="front"><polygon id="footprint-d1" points="27.76,1.55 27.76,4.51 26.3,4.51 26.3,1.55" fill="#005fa3" fill-opacity="0.3" stroke="#004a80" stroke-width="0.084375"/><text id="refdes-d1" x="27.03" y="3.226875" font-size="0.5625" text-anchor="middle" font-weight="bold">D1</text></g><g id="placement-d2" data-side="front"><polygon id="footprint-d2" points="7.51,6.8 7.51,9.76 6.05,9.76 6.05,6.8" fill="#005fa3" fill-opacity="0.3" stroke="#004a80" stroke-width="0.084375"/><text id="refdes-d2" x="6.78" y="8.476875" font-size="0.5625" text-anchor="middle" font-weight="bold">D2</text></g><g id="placement-j1" data-side="front"><polygon id="footprint-j1" points="9.68,13.08 20.32,13.08 20.32,22.5 9.68,22.5" fill="#005fa3" fill-opacity="0.3" stroke="#004a80" stroke-width="0.084375"/><text id="refdes-j1" x="15" y="17.986875" font-size="0.5625" text-anchor="middle" font-weight="bold">J1</text></g><g id="placement-j2" data-side="front"><polygon id="footprint-j2" points="22.3,1.05 25.84,1.05 25.84,12.21 22.3,12.21" fill="#005fa3" fill-opacity="0.3" stroke="#004a80" stroke-width="0.084375"/><text id="refdes-j2" x="24.07" y="6.826875" font-size="0.5625" text-anchor="middle" font-weight="bold">J2</text></g><g id="placement-r1" data-side="front"><polygon id="footprint-r1" points="27.76,5.05 27.76,8.01 26.3,8.01 26.3,5.05" fill="#005fa3" fill-opacity="0.3" stroke="#004a80" stroke-width="0.084375"/><text id="refdes-r1" x="27.03" y="6.726875" font-size="0.5625" text-anchor="middle" font-weight="bold">R1</text></g><g id="placement-r2" data-side="front"><polygon id="footprint-r2" points="5.51,6.8 5.51,9.76 4.05,9.76 4.05,6.8" fill="#005fa3" fill-opacity="0.3" stroke="#004a80" stroke-width="0.084375"/><text id="refdes-r2" x="4.78" y="8.476875" font-size="0.5625" text-anchor="middle" font-weight="bold">R2</text></g><g id="placement-r3" data-side="front"><polygon id="footprint-r3" points="27.76,8.55 27.76,11.51 26.3,11.51 26.3,8.55" fill="#005fa3" fill-opacity="0.3" stroke="#004a80" stroke-width="0.084375"/><text id="refdes-r3" x="27.03" y="10.226875" font-size="0.5625" text-anchor="middle" font-weight="bold">R3</text></g><g id="placement-r4" data-side="front"><polygon id="footprint-r4" points="2.01,1.3 2.01,4.26 0.55,4.26 0.55,1.3" fill="#005fa3" fill-opacity="0.3" stroke="#004a80" stroke-width="0.084375"/><text id="refdes-r4" x="1.28" y="2.976875" font-size="0.5625" text-anchor="middle" font-weight="bold">R4</text></g><g id="placement-r5" data-side="front"><polygon id="footprint-r5" points="6.05,19.3 9.01,19.3 9.01,20.76 6.05,20.76" fill="#005fa3" fill-opacity="0.3" stroke="#004a80" stroke-width="0.084375"/><text id="refdes-r5" x="7.53" y="20.226875" font-size="0.5625" text-anchor="middle" font-weight="bold">R5</text></g><g id="placement-r6" data-side="front"><polygon id="footprint-r6" points="5.01,16.8 5.01,19.76 3.55,19.76 3.55,16.8" fill="#005fa3" fill-opacity="0.3" stroke="#004a80" stroke-width="0.084375"/><text id="refdes-r6" x="4.28" y="18.476875" font-size="0.5625" text-anchor="middle" font-weight="bold">R6</text></g><g id="placement-sw1" data-side="front"><polygon id="footprint-sw1" points="6.05,0.6 6.05,6.6 2.55,6.6 2.55,0.6" fill="#005fa3" fill-opacity="0.3" stroke="#004a80" stroke-width="0.084375"/><text id="refdes-sw1" x="4.3" y="3.796875" font-size="0.5625" text-anchor="middle" font-weight="bold">SW1</text></g><g id="placement-u1" data-side="front"><polygon id="footprint-u1" points="8.2,-5.6 21.8,-5.6 21.8,11.4 8.2,11.4" fill="#005fa3" fill-opacity="0.12" stroke="#004a80" stroke-width="0.084375"/><text id="refdes-u1" x="15" y="3.096875" font-size="0.5625" text-anchor="middle" font-weight="bold">U1</text></g><g id="placement-u2" data-side="front"><polygon id="footprint-u2" points="28,12.8 28,21.6 20.8,21.6 20.8,12.8" fill="#005fa3" fill-opacity="0.3" stroke="#004a80" stroke-width="0.084375"/><text id="refdes-u2" x="24.4" y="17.396875" font-size="0.5625" text-anchor="middle" font-weight="bold">U2</text></g></g><g id="back"></g><g id="placement-labels"></g><g id="board-dimensions"><line x1="0" y1="23.85" x2="30" y2="23.85" stroke="#9a9a9a" stroke-width="0.05625"/><line x1="0" y1="23.56875" x2="0" y2="24.13125" stroke="#9a9a9a" stroke-width="0.05625"/><line x1="30" y1="23.56875" x2="30" y2="24.13125" stroke="#9a9a9a" stroke-width="0.05625"/><text x="15" y="23.5125" font-size="0.45" text-anchor="middle" fill="#555555">30 mm</text><line x1="30.675" y1="-5.6" x2="30.675" y2="22.5" stroke="#9a9a9a" stroke-width="0.05625"/><text x="31.125" y="8.45" font-size="0.45" fill="#555555">22 mm</text></g></g></g><text id="footer" x="178.96" y="191.956667" font-size="2.4" text-anchor="end" fill="#555555">acd-svg L3 observation - not Evidence, does not judge the design</text></g></svg>