<?xml version='1.0' encoding='utf-8'?>
<svg width="36.0mm" height="28.0mm" viewBox="-18.0 -14.0 36.0 28.0" version="1.1" xmlns="http://www.w3.org/2000/svg">
  <g transform="scale(1,-1)" stroke-linecap="round">
    <g fill="none" stroke="rgb(180,0,0)" stroke-width="0.09" id="section">
      <circle cx="-13.0" cy="-9.0" r="2.0" />
      <circle cx="-13.0" cy="-9.0" r="0.8" />
      <circle cx="13.0" cy="-9.0" r="2.0" />
      <circle cx="13.0" cy="-9.0" r="0.8" />
      <line x1="-18.0" y1="14.0" x2="-18.0" y2="-14.0" />
      <line x1="-18.0" y1="-14.0" x2="-10.47" y2="-14.0" />
      <line x1="-18.0" y1="14.0" x2="-12.6" y2="14.0" />
      <line x1="-16.0" y1="12.0" x2="-16.0" y2="-12.0" />
      <line x1="-16.0" y1="-12.0" x2="-10.47" y2="-12.0" />
      <line x1="-16.0" y1="12.0" x2="-12.6" y2="12.0" />
      <line x1="-12.6" y1="14.0" x2="-12.6" y2="12.0" />
      <line x1="-10.47" y1="-12.0" x2="-10.47" y2="-14.0" />
      <line x1="0.47" y1="-12.0" x2="0.47" y2="-14.0" />
      <line x1="0.47" y1="-14.0" x2="8.23" y2="-14.0" />
      <line x1="0.47" y1="-12.0" x2="8.23" y2="-12.0" />
      <line x1="2.6" y1="14.0" x2="2.6" y2="12.0" />
      <line x1="2.6" y1="12.0" x2="16.0" y2="12.0" />
      <line x1="2.6" y1="14.0" x2="18.0" y2="14.0" />
      <line x1="8.23" y1="-12.0" x2="8.23" y2="-14.0" />
      <line x1="11.77" y1="-12.0" x2="11.77" y2="-14.0" />
      <line x1="11.77" y1="-14.0" x2="18.0" y2="-14.0" />
      <line x1="11.77" y1="-12.0" x2="16.0" y2="-12.0" />
      <line x1="16.0" y1="12.0" x2="16.0" y2="-12.0" />
      <line x1="18.0" y1="14.0" x2="18.0" y2="-14.0" />
    </g>
  </g>
</svg>