G04 #@! TF.GenerationSoftware,KiCad,Pcbnew,10.0.6-10.0.6~ubuntu26.04.1*
G04 #@! TF.CreationDate,2026-09-08T15:37:18+00:00*
G04 #@! TF.ProjectId,dual-beacon-tag,6475616c-2d62-4656-9163-6f6e2d746167,rev?*
G04 #@! TF.SameCoordinates,Original*
G04 #@! TF.FileFunction,Legend,Top*
G04 #@! TF.FilePolarity,Positive*
%FSLAX46Y46*%
G04 Gerber Fmt 4.6, Leading zero omitted, Abs format (unit mm)*
G04 Created by KiCad (PCBNEW 10.0.6-10.0.6~ubuntu26.04.1) date 2026-09-08 15:37:18*
%MOMM*%
%LPD*%
G01*
G04 APERTURE LIST*
%ADD10C,0.150000*%
%ADD11C,0.120000*%
G04 APERTURE END LIST*
D10*
X7828566Y-13604819D02*
X7828566Y-14319104D01*
X7828566Y-14319104D02*
X7780947Y-14461961D01*
X7780947Y-14461961D02*
X7685709Y-14557200D01*
X7685709Y-14557200D02*
X7542852Y-14604819D01*
X7542852Y-14604819D02*
X7447614Y-14604819D01*
X8828566Y-14604819D02*
X8257138Y-14604819D01*
X8542852Y-14604819D02*
X8542852Y-13604819D01*
X8542852Y-13604819D02*
X8447614Y-13747676D01*
X8447614Y-13747676D02*
X8352376Y-13842914D01*
X8352376Y-13842914D02*
X8257138Y-13890533D01*
X2132200Y-7408332D02*
X2179819Y-7265475D01*
X2179819Y-7265475D02*
X2179819Y-7027380D01*
X2179819Y-7027380D02*
X2132200Y-6932142D01*
X2132200Y-6932142D02*
X2084580Y-6884523D01*
X2084580Y-6884523D02*
X1989342Y-6836904D01*
X1989342Y-6836904D02*
X1894104Y-6836904D01*
X1894104Y-6836904D02*
X1798866Y-6884523D01*
X1798866Y-6884523D02*
X1751247Y-6932142D01*
X1751247Y-6932142D02*
X1703628Y-7027380D01*
X1703628Y-7027380D02*
X1656009Y-7217856D01*
X1656009Y-7217856D02*
X1608390Y-7313094D01*
X1608390Y-7313094D02*
X1560771Y-7360713D01*
X1560771Y-7360713D02*
X1465533Y-7408332D01*
X1465533Y-7408332D02*
X1370295Y-7408332D01*
X1370295Y-7408332D02*
X1275057Y-7360713D01*
X1275057Y-7360713D02*
X1227438Y-7313094D01*
X1227438Y-7313094D02*
X1179819Y-7217856D01*
X1179819Y-7217856D02*
X1179819Y-6979761D01*
X1179819Y-6979761D02*
X1227438Y-6836904D01*
X1179819Y-6503570D02*
X2179819Y-6265475D01*
X2179819Y-6265475D02*
X1465533Y-6074999D01*
X1465533Y-6074999D02*
X2179819Y-5884523D01*
X2179819Y-5884523D02*
X1179819Y-5646428D01*
X2179819Y-4741666D02*
X2179819Y-5313094D01*
X2179819Y-5027380D02*
X1179819Y-5027380D01*
X1179819Y-5027380D02*
X1322676Y-5122618D01*
X1322676Y-5122618D02*
X1417914Y-5217856D01*
X1417914Y-5217856D02*
X1465533Y-5313094D01*
X6179819Y-12074994D02*
X5179819Y-12074994D01*
X5179819Y-12074994D02*
X5179819Y-11836899D01*
X5179819Y-11836899D02*
X5227438Y-11694042D01*
X5227438Y-11694042D02*
X5322676Y-11598804D01*
X5322676Y-11598804D02*
X5417914Y-11551185D01*
X5417914Y-11551185D02*
X5608390Y-11503566D01*
X5608390Y-11503566D02*
X5751247Y-11503566D01*
X5751247Y-11503566D02*
X5941723Y-11551185D01*
X5941723Y-11551185D02*
X6036961Y-11598804D01*
X6036961Y-11598804D02*
X6132200Y-11694042D01*
X6132200Y-11694042D02*
X6179819Y-11836899D01*
X6179819Y-11836899D02*
X6179819Y-12074994D01*
X5275057Y-11122613D02*
X5227438Y-11074994D01*
X5227438Y-11074994D02*
X5179819Y-10979756D01*
X5179819Y-10979756D02*
X5179819Y-10741661D01*
X5179819Y-10741661D02*
X5227438Y-10646423D01*
X5227438Y-10646423D02*
X5275057Y-10598804D01*
X5275057Y-10598804D02*
X5370295Y-10551185D01*
X5370295Y-10551185D02*
X5465533Y-10551185D01*
X5465533Y-10551185D02*
X5608390Y-10598804D01*
X5608390Y-10598804D02*
X6179819Y-11170232D01*
X6179819Y-11170232D02*
X6179819Y-10551185D01*
X29179819Y-2324994D02*
X28179819Y-2324994D01*
X28179819Y-2324994D02*
X28179819Y-2086899D01*
X28179819Y-2086899D02*
X28227438Y-1944042D01*
X28227438Y-1944042D02*
X28322676Y-1848804D01*
X28322676Y-1848804D02*
X28417914Y-1801185D01*
X28417914Y-1801185D02*
X28608390Y-1753566D01*
X28608390Y-1753566D02*
X28751247Y-1753566D01*
X28751247Y-1753566D02*
X28941723Y-1801185D01*
X28941723Y-1801185D02*
X29036961Y-1848804D01*
X29036961Y-1848804D02*
X29132200Y-1944042D01*
X29132200Y-1944042D02*
X29179819Y-2086899D01*
X29179819Y-2086899D02*
X29179819Y-2324994D01*
X29179819Y-801185D02*
X29179819Y-1372613D01*
X29179819Y-1086899D02*
X28179819Y-1086899D01*
X28179819Y-1086899D02*
X28322676Y-1182137D01*
X28322676Y-1182137D02*
X28417914Y-1277375D01*
X28417914Y-1277375D02*
X28465533Y-1372613D01*
X10238094Y2780895D02*
X10714284Y2780895D01*
X10142856Y2495180D02*
X10476189Y3495180D01*
X10476189Y3495180D02*
X10809522Y2495180D01*
X11142856Y3161847D02*
X11142856Y2495180D01*
X11142856Y3066609D02*
X11190475Y3114228D01*
X11190475Y3114228D02*
X11285713Y3161847D01*
X11285713Y3161847D02*
X11428570Y3161847D01*
X11428570Y3161847D02*
X11523808Y3114228D01*
X11523808Y3114228D02*
X11571427Y3018990D01*
X11571427Y3018990D02*
X11571427Y2495180D01*
X11904761Y3161847D02*
X12285713Y3161847D01*
X12047618Y3495180D02*
X12047618Y2638038D01*
X12047618Y2638038D02*
X12095237Y2542800D01*
X12095237Y2542800D02*
X12190475Y2495180D01*
X12190475Y2495180D02*
X12285713Y2495180D01*
X12999999Y2542800D02*
X12904761Y2495180D01*
X12904761Y2495180D02*
X12714285Y2495180D01*
X12714285Y2495180D02*
X12619047Y2542800D01*
X12619047Y2542800D02*
X12571428Y2638038D01*
X12571428Y2638038D02*
X12571428Y3018990D01*
X12571428Y3018990D02*
X12619047Y3114228D01*
X12619047Y3114228D02*
X12714285Y3161847D01*
X12714285Y3161847D02*
X12904761Y3161847D01*
X12904761Y3161847D02*
X12999999Y3114228D01*
X12999999Y3114228D02*
X13047618Y3018990D01*
X13047618Y3018990D02*
X13047618Y2923752D01*
X13047618Y2923752D02*
X12571428Y2828514D01*
X13476190Y3161847D02*
X13476190Y2495180D01*
X13476190Y3066609D02*
X13523809Y3114228D01*
X13523809Y3114228D02*
X13619047Y3161847D01*
X13619047Y3161847D02*
X13761904Y3161847D01*
X13761904Y3161847D02*
X13857142Y3114228D01*
X13857142Y3114228D02*
X13904761Y3018990D01*
X13904761Y3018990D02*
X13904761Y2495180D01*
X14380952Y3161847D02*
X14380952Y2495180D01*
X14380952Y3066609D02*
X14428571Y3114228D01*
X14428571Y3114228D02*
X14523809Y3161847D01*
X14523809Y3161847D02*
X14666666Y3161847D01*
X14666666Y3161847D02*
X14761904Y3114228D01*
X14761904Y3114228D02*
X14809523Y3018990D01*
X14809523Y3018990D02*
X14809523Y2495180D01*
X15714285Y2495180D02*
X15714285Y3018990D01*
X15714285Y3018990D02*
X15666666Y3114228D01*
X15666666Y3114228D02*
X15571428Y3161847D01*
X15571428Y3161847D02*
X15380952Y3161847D01*
X15380952Y3161847D02*
X15285714Y3114228D01*
X15714285Y2542800D02*
X15619047Y2495180D01*
X15619047Y2495180D02*
X15380952Y2495180D01*
X15380952Y2495180D02*
X15285714Y2542800D01*
X15285714Y2542800D02*
X15238095Y2638038D01*
X15238095Y2638038D02*
X15238095Y2733276D01*
X15238095Y2733276D02*
X15285714Y2828514D01*
X15285714Y2828514D02*
X15380952Y2876133D01*
X15380952Y2876133D02*
X15619047Y2876133D01*
X15619047Y2876133D02*
X15714285Y2923752D01*
X16904762Y2780895D02*
X17380952Y2780895D01*
X16809524Y2495180D02*
X17142857Y3495180D01*
X17142857Y3495180D02*
X17476190Y2495180D01*
X17809524Y2495180D02*
X17809524Y3161847D01*
X17809524Y2971371D02*
X17857143Y3066609D01*
X17857143Y3066609D02*
X17904762Y3114228D01*
X17904762Y3114228D02*
X18000000Y3161847D01*
X18000000Y3161847D02*
X18095238Y3161847D01*
X18809524Y2542800D02*
X18714286Y2495180D01*
X18714286Y2495180D02*
X18523810Y2495180D01*
X18523810Y2495180D02*
X18428572Y2542800D01*
X18428572Y2542800D02*
X18380953Y2638038D01*
X18380953Y2638038D02*
X18380953Y3018990D01*
X18380953Y3018990D02*
X18428572Y3114228D01*
X18428572Y3114228D02*
X18523810Y3161847D01*
X18523810Y3161847D02*
X18714286Y3161847D01*
X18714286Y3161847D02*
X18809524Y3114228D01*
X18809524Y3114228D02*
X18857143Y3018990D01*
X18857143Y3018990D02*
X18857143Y2923752D01*
X18857143Y2923752D02*
X18380953Y2828514D01*
X19714286Y2495180D02*
X19714286Y3018990D01*
X19714286Y3018990D02*
X19666667Y3114228D01*
X19666667Y3114228D02*
X19571429Y3161847D01*
X19571429Y3161847D02*
X19380953Y3161847D01*
X19380953Y3161847D02*
X19285715Y3114228D01*
X19714286Y2542800D02*
X19619048Y2495180D01*
X19619048Y2495180D02*
X19380953Y2495180D01*
X19380953Y2495180D02*
X19285715Y2542800D01*
X19285715Y2542800D02*
X19238096Y2638038D01*
X19238096Y2638038D02*
X19238096Y2733276D01*
X19238096Y2733276D02*
X19285715Y2828514D01*
X19285715Y2828514D02*
X19380953Y2876133D01*
X19380953Y2876133D02*
X19619048Y2876133D01*
X19619048Y2876133D02*
X19714286Y2923752D01*
D11*
X4257500Y-8517258D02*
X4257500Y-8042742D01*
X5302500Y-8517258D02*
X5302500Y-8042742D01*
X10300000Y-16450000D02*
X10300000Y-18450000D01*
X10300000Y-20350000D02*
X10300000Y-22250000D01*
X10300000Y-22250000D02*
X19700000Y-22250000D01*
X19700000Y-16450000D02*
X19700000Y-18450000D01*
X19700000Y-20350000D02*
X19700000Y-22250000D01*
X8200000Y-10600000D02*
X8200000Y-11400000D01*
X8200000Y-11400000D02*
X9000000Y-11400000D01*
X8400000Y5400000D02*
X21600000Y5400000D01*
X8400000Y0D02*
X21600000Y0D01*
X8400000Y-11200000D02*
X8400000Y5400000D01*
X9075000Y5600000D02*
X8225000Y5600000D01*
X21050000Y5600000D02*
X21800000Y5600000D01*
X21600000Y5400000D02*
X21600000Y-11200000D01*
X21600000Y-11200000D02*
X8400000Y-11200000D01*
X21800000Y5600000D02*
X21800000Y5000000D01*
X21800000Y-10600000D02*
X21800000Y-11400000D01*
X21800000Y-11400000D02*
X21000000Y-11400000D01*
X3757500Y-18517258D02*
X3757500Y-18042742D01*
X4802500Y-18517258D02*
X4802500Y-18042742D01*
X7770000Y-17420580D02*
X7770000Y-17139420D01*
X8790000Y-17420580D02*
X8790000Y-17139420D01*
X26295000Y-2230000D02*
X26295000Y-4515000D01*
X26295000Y-4515000D02*
X27765000Y-4515000D01*
X27765000Y-4515000D02*
X27765000Y-2230000D01*
X757500Y-3017258D02*
X757500Y-2542742D01*
X1802500Y-3017258D02*
X1802500Y-2542742D01*
X7292742Y-19507500D02*
X7767258Y-19507500D01*
X7292742Y-20552500D02*
X7767258Y-20552500D01*
X28270000Y-16670580D02*
X28270000Y-16389420D01*
X29290000Y-16670580D02*
X29290000Y-16389420D01*
X26507500Y-6767258D02*
X26507500Y-6292742D01*
X27552500Y-6767258D02*
X27552500Y-6292742D01*
X26507500Y-10267258D02*
X26507500Y-9792742D01*
X27552500Y-10267258D02*
X27552500Y-9792742D01*
X22690000Y-1440000D02*
X24070000Y-1440000D01*
X22690000Y-2820000D02*
X22690000Y-1440000D01*
X22690000Y-4090000D02*
X22690000Y-11820000D01*
X22690000Y-4090000D02*
X25450000Y-4090000D01*
X22690000Y-11820000D02*
X25450000Y-11820000D01*
X25450000Y-4090000D02*
X25450000Y-11820000D01*
X6770000Y-2670580D02*
X6770000Y-2389420D01*
X7790000Y-2670580D02*
X7790000Y-2389420D01*
X20990000Y-15290000D02*
X22250000Y-15290000D01*
X20990000Y-19050000D02*
X20990000Y-15290000D01*
X27810000Y-15290000D02*
X26550000Y-15290000D01*
X27810000Y-19050000D02*
X27810000Y-15290000D01*
X21090000Y-20330000D02*
X20760000Y-20570000D01*
X20760000Y-20090000D01*
X21090000Y-20330000D01*
G36*
X21090000Y-20330000D02*
G01*
X20760000Y-20570000D01*
X20760000Y-20090000D01*
X21090000Y-20330000D01*
G37*
X2650000Y-1500000D02*
X3040000Y-1500000D01*
X2650000Y-5700000D02*
X2650000Y-1500000D01*
X3040000Y-5700000D02*
X2650000Y-5700000D01*
X5560000Y-5700000D02*
X5950000Y-5700000D01*
X5950000Y-1500000D02*
X5560000Y-1500000D01*
X5950000Y-5700000D02*
X5950000Y-1500000D01*
X5770000Y-17420580D02*
X5770000Y-17139420D01*
X6790000Y-17420580D02*
X6790000Y-17139420D01*
X6045000Y-7480000D02*
X6045000Y-9765000D01*
X6045000Y-9765000D02*
X7515000Y-9765000D01*
X7515000Y-9765000D02*
X7515000Y-7480000D01*
M02*
