M48
; DRILL file KiCad 10.0.6-10.0.6~ubuntu26.04.1 date 2026-09-08T15:37:18
; FORMAT={-:-/ absolute / metric / decimal}
; #@! TF.CreationDate,2026-09-08T15:37:18+00:00
; #@! TF.GenerationSoftware,Kicad,Pcbnew,10.0.6-10.0.6~ubuntu26.04.1
; #@! TF.FileFunction,MixedPlating,1,2
FMAT,2
METRIC
; #@! TA.AperFunction,Plated,PTH,ViaDrill
T1C0.300
; #@! TA.AperFunction,Plated,PTH,ComponentDrill
T2C0.600
; #@! TA.AperFunction,Plated,PTH,ComponentDrill
T3C1.000
; #@! TA.AperFunction,NonPlated,NPTH,ComponentDrill
T4C0.650
%
G90
G05
T1
X0.6Y-5.118
X0.6Y-6.624
X0.6Y-8.13
X0.6Y-9.636
X0.6Y-11.142
X0.6Y-12.648
X0.6Y-14.154
X0.6Y-15.66
X0.6Y-17.166
X0.6Y-18.672
X2.106Y-0.6
X2.106Y-5.118
X2.106Y-6.624
X2.106Y-8.13
X2.106Y-9.636
X2.106Y-11.142
X2.106Y-12.648
X2.106Y-14.154
X2.106Y-15.66
X2.106Y-17.166
X2.106Y-18.672
X2.106Y-20.178
X2.106Y-21.4
X2.53Y-2.713
X3.612Y-8.13
X3.612Y-9.636
X3.612Y-11.142
X3.612Y-12.648
X3.612Y-14.154
X3.612Y-15.66
X3.612Y-21.4
X5.118Y-11.142
X5.118Y-12.648
X5.118Y-14.154
X5.118Y-15.66
X5.118Y-21.4
X5.749Y-5.757
X6.624Y-0.6
X6.624Y-11.142
X6.624Y-12.648
X6.624Y-14.154
X6.624Y-21.4
X8.13Y-12.648
X8.13Y-14.154
X8.13Y-21.4
X9.636Y-12.648
X10.971Y-9.091
X11.142Y-12.648
X11.268Y-3.302
X11.881Y-11.889
X12.145Y-20.751
X14.365Y-16.03
X15.265Y-12.727
X15.94Y-9.229
X16.258Y-12.729
X18.647Y-8.077
X22.143Y-8.454
X22.547Y-18.407
X23.189Y-0.6
X24.695Y-0.6
X25.688Y-5.803
X26.201Y-0.6
X27.707Y-0.6
X28.78Y-14.409
X29.213Y-0.6
X29.213Y-20.178
X29.213Y-21.4
X29.4Y-2.106
X29.4Y-3.612
X29.4Y-5.118
X29.4Y-6.624
X29.4Y-8.13
X29.4Y-9.636
X29.4Y-11.142
X29.4Y-12.648
X29.4Y-14.154
X29.4Y-18.672
T3
X24.07Y-2.82
X24.07Y-5.36
X24.07Y-7.9
X24.07Y-10.44
T4
X12.11Y-15.75
X17.89Y-15.75
T2
X10.68Y-14.67G85X10.68Y-15.77
G05
X10.68Y-19.1G85X10.68Y-19.7
G05
X19.32Y-14.67G85X19.32Y-15.77
G05
X19.32Y-19.1G85X19.32Y-19.7
G05
M30
