G04 #@! TF.GenerationSoftware,KiCad,Pcbnew,10.0.6-10.0.6~ubuntu26.04.1*
G04 #@! TF.CreationDate,2026-09-08T15:37:18+00:00*
G04 #@! TF.ProjectId,dual-beacon-tag,6475616c-2d62-4656-9163-6f6e2d746167,rev?*
G04 #@! TF.SameCoordinates,Original*
G04 #@! TF.FileFunction,Soldermask,Top*
G04 #@! TF.FilePolarity,Negative*
%FSLAX46Y46*%
G04 Gerber Fmt 4.6, Leading zero omitted, Abs format (unit mm)*
G04 Created by KiCad (PCBNEW 10.0.6-10.0.6~ubuntu26.04.1) date 2026-09-08 15:37:18*
%MOMM*%
%LPD*%
G01*
G04 APERTURE LIST*
%ADD10C,0.650000*%
%ADD11O,1.100000X2.200000*%
%ADD12O,1.100000X1.700000*%
%ADD13R,0.800000X0.400000*%
%ADD14R,0.400000X0.800000*%
%ADD15R,1.450000X1.450000*%
%ADD16R,0.700000X0.700000*%
%ADD17R,1.700000X1.700000*%
%ADD18C,1.700000*%
G04 APERTURE END LIST*
G36*
G01*
X5055000Y-9505000D02*
X4505000Y-9505000D01*
G75*
G02*
X4305000Y-9305000I0J200000D01*
G01*
X4305000Y-8905000D01*
G75*
G02*
X4505000Y-8705000I200000J0D01*
G01*
X5055000Y-8705000D01*
G75*
G02*
X5255000Y-8905000I0J-200000D01*
G01*
X5255000Y-9305000D01*
G75*
G02*
X5055000Y-9505000I-200000J0D01*
G01*
G37*
G36*
G01*
X5055000Y-7855000D02*
X4505000Y-7855000D01*
G75*
G02*
X4305000Y-7655000I0J200000D01*
G01*
X4305000Y-7255000D01*
G75*
G02*
X4505000Y-7055000I200000J0D01*
G01*
X5055000Y-7055000D01*
G75*
G02*
X5255000Y-7255000I0J-200000D01*
G01*
X5255000Y-7655000D01*
G75*
G02*
X5055000Y-7855000I-200000J0D01*
G01*
G37*
D10*
X12110000Y-15750000D03*
X17890000Y-15750000D03*
G36*
G01*
X11450000Y-14880000D02*
X11450000Y-13730000D01*
G75*
G02*
X11600000Y-13580000I150000J0D01*
G01*
X11900000Y-13580000D01*
G75*
G02*
X12050000Y-13730000I0J-150000D01*
G01*
X12050000Y-14880000D01*
G75*
G02*
X11900000Y-15030000I-150000J0D01*
G01*
X11600000Y-15030000D01*
G75*
G02*
X11450000Y-14880000I0J150000D01*
G01*
G37*
G36*
G01*
X12250000Y-14880000D02*
X12250000Y-13730000D01*
G75*
G02*
X12400000Y-13580000I150000J0D01*
G01*
X12700000Y-13580000D01*
G75*
G02*
X12850000Y-13730000I0J-150000D01*
G01*
X12850000Y-14880000D01*
G75*
G02*
X12700000Y-15030000I-150000J0D01*
G01*
X12400000Y-15030000D01*
G75*
G02*
X12250000Y-14880000I0J150000D01*
G01*
G37*
G36*
G01*
X13600000Y-14955000D02*
X13600000Y-13655000D01*
G75*
G02*
X13675000Y-13580000I75000J0D01*
G01*
X13825000Y-13580000D01*
G75*
G02*
X13900000Y-13655000I0J-75000D01*
G01*
X13900000Y-14955000D01*
G75*
G02*
X13825000Y-15030000I-75000J0D01*
G01*
X13675000Y-15030000D01*
G75*
G02*
X13600000Y-14955000I0J75000D01*
G01*
G37*
G36*
G01*
X14600000Y-14955000D02*
X14600000Y-13655000D01*
G75*
G02*
X14675000Y-13580000I75000J0D01*
G01*
X14825000Y-13580000D01*
G75*
G02*
X14900000Y-13655000I0J-75000D01*
G01*
X14900000Y-14955000D01*
G75*
G02*
X14825000Y-15030000I-75000J0D01*
G01*
X14675000Y-15030000D01*
G75*
G02*
X14600000Y-14955000I0J75000D01*
G01*
G37*
G36*
G01*
X15100000Y-14955000D02*
X15100000Y-13655000D01*
G75*
G02*
X15175000Y-13580000I75000J0D01*
G01*
X15325000Y-13580000D01*
G75*
G02*
X15400000Y-13655000I0J-75000D01*
G01*
X15400000Y-14955000D01*
G75*
G02*
X15325000Y-15030000I-75000J0D01*
G01*
X15175000Y-15030000D01*
G75*
G02*
X15100000Y-14955000I0J75000D01*
G01*
G37*
G36*
G01*
X16100000Y-14955000D02*
X16100000Y-13655000D01*
G75*
G02*
X16175000Y-13580000I75000J0D01*
G01*
X16325000Y-13580000D01*
G75*
G02*
X16400000Y-13655000I0J-75000D01*
G01*
X16400000Y-14955000D01*
G75*
G02*
X16325000Y-15030000I-75000J0D01*
G01*
X16175000Y-15030000D01*
G75*
G02*
X16100000Y-14955000I0J75000D01*
G01*
G37*
G36*
G01*
X17150000Y-14880000D02*
X17150000Y-13730000D01*
G75*
G02*
X17300000Y-13580000I150000J0D01*
G01*
X17600000Y-13580000D01*
G75*
G02*
X17750000Y-13730000I0J-150000D01*
G01*
X17750000Y-14880000D01*
G75*
G02*
X17600000Y-15030000I-150000J0D01*
G01*
X17300000Y-15030000D01*
G75*
G02*
X17150000Y-14880000I0J150000D01*
G01*
G37*
G36*
G01*
X17950000Y-14880000D02*
X17950000Y-13730000D01*
G75*
G02*
X18100000Y-13580000I150000J0D01*
G01*
X18400000Y-13580000D01*
G75*
G02*
X18550000Y-13730000I0J-150000D01*
G01*
X18550000Y-14880000D01*
G75*
G02*
X18400000Y-15030000I-150000J0D01*
G01*
X18100000Y-15030000D01*
G75*
G02*
X17950000Y-14880000I0J150000D01*
G01*
G37*
G36*
G01*
X17950000Y-14880000D02*
X17950000Y-13730000D01*
G75*
G02*
X18100000Y-13580000I150000J0D01*
G01*
X18400000Y-13580000D01*
G75*
G02*
X18550000Y-13730000I0J-150000D01*
G01*
X18550000Y-14880000D01*
G75*
G02*
X18400000Y-15030000I-150000J0D01*
G01*
X18100000Y-15030000D01*
G75*
G02*
X17950000Y-14880000I0J150000D01*
G01*
G37*
G36*
G01*
X17150000Y-14880000D02*
X17150000Y-13730000D01*
G75*
G02*
X17300000Y-13580000I150000J0D01*
G01*
X17600000Y-13580000D01*
G75*
G02*
X17750000Y-13730000I0J-150000D01*
G01*
X17750000Y-14880000D01*
G75*
G02*
X17600000Y-15030000I-150000J0D01*
G01*
X17300000Y-15030000D01*
G75*
G02*
X17150000Y-14880000I0J150000D01*
G01*
G37*
G36*
G01*
X16600000Y-14955000D02*
X16600000Y-13655000D01*
G75*
G02*
X16675000Y-13580000I75000J0D01*
G01*
X16825000Y-13580000D01*
G75*
G02*
X16900000Y-13655000I0J-75000D01*
G01*
X16900000Y-14955000D01*
G75*
G02*
X16825000Y-15030000I-75000J0D01*
G01*
X16675000Y-15030000D01*
G75*
G02*
X16600000Y-14955000I0J75000D01*
G01*
G37*
G36*
G01*
X15600000Y-14955000D02*
X15600000Y-13655000D01*
G75*
G02*
X15675000Y-13580000I75000J0D01*
G01*
X15825000Y-13580000D01*
G75*
G02*
X15900000Y-13655000I0J-75000D01*
G01*
X15900000Y-14955000D01*
G75*
G02*
X15825000Y-15030000I-75000J0D01*
G01*
X15675000Y-15030000D01*
G75*
G02*
X15600000Y-14955000I0J75000D01*
G01*
G37*
G36*
G01*
X14100000Y-14955000D02*
X14100000Y-13655000D01*
G75*
G02*
X14175000Y-13580000I75000J0D01*
G01*
X14325000Y-13580000D01*
G75*
G02*
X14400000Y-13655000I0J-75000D01*
G01*
X14400000Y-14955000D01*
G75*
G02*
X14325000Y-15030000I-75000J0D01*
G01*
X14175000Y-15030000D01*
G75*
G02*
X14100000Y-14955000I0J75000D01*
G01*
G37*
G36*
G01*
X13100000Y-14955000D02*
X13100000Y-13655000D01*
G75*
G02*
X13175000Y-13580000I75000J0D01*
G01*
X13325000Y-13580000D01*
G75*
G02*
X13400000Y-13655000I0J-75000D01*
G01*
X13400000Y-14955000D01*
G75*
G02*
X13325000Y-15030000I-75000J0D01*
G01*
X13175000Y-15030000D01*
G75*
G02*
X13100000Y-14955000I0J75000D01*
G01*
G37*
G36*
G01*
X12250000Y-14880000D02*
X12250000Y-13730000D01*
G75*
G02*
X12400000Y-13580000I150000J0D01*
G01*
X12700000Y-13580000D01*
G75*
G02*
X12850000Y-13730000I0J-150000D01*
G01*
X12850000Y-14880000D01*
G75*
G02*
X12700000Y-15030000I-150000J0D01*
G01*
X12400000Y-15030000D01*
G75*
G02*
X12250000Y-14880000I0J150000D01*
G01*
G37*
G36*
G01*
X11450000Y-14880000D02*
X11450000Y-13730000D01*
G75*
G02*
X11600000Y-13580000I150000J0D01*
G01*
X11900000Y-13580000D01*
G75*
G02*
X12050000Y-13730000I0J-150000D01*
G01*
X12050000Y-14880000D01*
G75*
G02*
X11900000Y-15030000I-150000J0D01*
G01*
X11600000Y-15030000D01*
G75*
G02*
X11450000Y-14880000I0J150000D01*
G01*
G37*
D11*
X10680000Y-15220000D03*
D12*
X10680000Y-19400000D03*
D11*
X19320000Y-15220000D03*
D12*
X19320000Y-19400000D03*
D13*
X9100000Y-1600000D03*
X9100000Y-2400000D03*
X9100000Y-3200000D03*
X9100000Y-4000000D03*
X9100000Y-4800000D03*
X9100000Y-5600000D03*
X9100000Y-6400000D03*
X9100000Y-7200000D03*
X9100000Y-8000000D03*
X9100000Y-8800000D03*
X9100000Y-9600000D03*
D14*
X10200000Y-10500000D03*
X11000000Y-10500000D03*
X11800000Y-10500000D03*
X12600000Y-10500000D03*
X13400000Y-10500000D03*
X14200000Y-10500000D03*
X15000000Y-10500000D03*
X15800000Y-10500000D03*
X16600000Y-10500000D03*
X17400000Y-10500000D03*
X18200000Y-10500000D03*
X19000000Y-10500000D03*
X19800000Y-10500000D03*
D13*
X20900000Y-9600000D03*
X20900000Y-8800000D03*
X20900000Y-8000000D03*
X20900000Y-7200000D03*
X20900000Y-6400000D03*
X20900000Y-5600000D03*
X20900000Y-4800000D03*
X20900000Y-4000000D03*
X20900000Y-3200000D03*
X20900000Y-2400000D03*
X20900000Y-1600000D03*
D14*
X19800000Y-700000D03*
X19000000Y-700000D03*
X18200000Y-700000D03*
X17400000Y-700000D03*
X16600000Y-700000D03*
X15800000Y-700000D03*
X15000000Y-700000D03*
X14200000Y-700000D03*
X13400000Y-700000D03*
X12600000Y-700000D03*
X11800000Y-700000D03*
X11000000Y-700000D03*
X10200000Y-700000D03*
G36*
X13750000Y-4350000D02*
G01*
X12300000Y-4350000D01*
X12300000Y-3500000D01*
X12900000Y-2900000D01*
X13750000Y-2900000D01*
X13750000Y-4350000D01*
G37*
D15*
X13025000Y-5600000D03*
X13025000Y-7575000D03*
X15000000Y-3625000D03*
X15000000Y-5600000D03*
X15000000Y-7575000D03*
X16975000Y-3625000D03*
X16975000Y-5600000D03*
X16975000Y-7575000D03*
D16*
X20950000Y-650000D03*
X20950000Y-10550000D03*
X9050000Y-10550000D03*
X9050000Y-650000D03*
G36*
G01*
X4555000Y-19505000D02*
X4005000Y-19505000D01*
G75*
G02*
X3805000Y-19305000I0J200000D01*
G01*
X3805000Y-18905000D01*
G75*
G02*
X4005000Y-18705000I200000J0D01*
G01*
X4555000Y-18705000D01*
G75*
G02*
X4755000Y-18905000I0J-200000D01*
G01*
X4755000Y-19305000D01*
G75*
G02*
X4555000Y-19505000I-200000J0D01*
G01*
G37*
G36*
G01*
X4555000Y-17855000D02*
X4005000Y-17855000D01*
G75*
G02*
X3805000Y-17655000I0J200000D01*
G01*
X3805000Y-17255000D01*
G75*
G02*
X4005000Y-17055000I200000J0D01*
G01*
X4555000Y-17055000D01*
G75*
G02*
X4755000Y-17255000I0J-200000D01*
G01*
X4755000Y-17655000D01*
G75*
G02*
X4555000Y-17855000I-200000J0D01*
G01*
G37*
G36*
G01*
X8530000Y-18505000D02*
X8030000Y-18505000D01*
G75*
G02*
X7805000Y-18280000I0J225000D01*
G01*
X7805000Y-17830000D01*
G75*
G02*
X8030000Y-17605000I225000J0D01*
G01*
X8530000Y-17605000D01*
G75*
G02*
X8755000Y-17830000I0J-225000D01*
G01*
X8755000Y-18280000D01*
G75*
G02*
X8530000Y-18505000I-225000J0D01*
G01*
G37*
G36*
G01*
X8530000Y-16955000D02*
X8030000Y-16955000D01*
G75*
G02*
X7805000Y-16730000I0J225000D01*
G01*
X7805000Y-16280000D01*
G75*
G02*
X8030000Y-16055000I225000J0D01*
G01*
X8530000Y-16055000D01*
G75*
G02*
X8755000Y-16280000I0J-225000D01*
G01*
X8755000Y-16730000D01*
G75*
G02*
X8530000Y-16955000I-225000J0D01*
G01*
G37*
G36*
G01*
X27286250Y-4255000D02*
X26773750Y-4255000D01*
G75*
G02*
X26555000Y-4036250I0J218750D01*
G01*
X26555000Y-3598750D01*
G75*
G02*
X26773750Y-3380000I218750J0D01*
G01*
X27286250Y-3380000D01*
G75*
G02*
X27505000Y-3598750I0J-218750D01*
G01*
X27505000Y-4036250D01*
G75*
G02*
X27286250Y-4255000I-218750J0D01*
G01*
G37*
G36*
G01*
X27286250Y-2680000D02*
X26773750Y-2680000D01*
G75*
G02*
X26555000Y-2461250I0J218750D01*
G01*
X26555000Y-2023750D01*
G75*
G02*
X26773750Y-1805000I218750J0D01*
G01*
X27286250Y-1805000D01*
G75*
G02*
X27505000Y-2023750I0J-218750D01*
G01*
X27505000Y-2461250D01*
G75*
G02*
X27286250Y-2680000I-218750J0D01*
G01*
G37*
G36*
G01*
X1555000Y-4005000D02*
X1005000Y-4005000D01*
G75*
G02*
X805000Y-3805000I0J200000D01*
G01*
X805000Y-3405000D01*
G75*
G02*
X1005000Y-3205000I200000J0D01*
G01*
X1555000Y-3205000D01*
G75*
G02*
X1755000Y-3405000I0J-200000D01*
G01*
X1755000Y-3805000D01*
G75*
G02*
X1555000Y-4005000I-200000J0D01*
G01*
G37*
G36*
G01*
X1555000Y-2355000D02*
X1005000Y-2355000D01*
G75*
G02*
X805000Y-2155000I0J200000D01*
G01*
X805000Y-1755000D01*
G75*
G02*
X1005000Y-1555000I200000J0D01*
G01*
X1555000Y-1555000D01*
G75*
G02*
X1755000Y-1755000I0J-200000D01*
G01*
X1755000Y-2155000D01*
G75*
G02*
X1555000Y-2355000I-200000J0D01*
G01*
G37*
G36*
G01*
X6305000Y-20305000D02*
X6305000Y-19755000D01*
G75*
G02*
X6505000Y-19555000I200000J0D01*
G01*
X6905000Y-19555000D01*
G75*
G02*
X7105000Y-19755000I0J-200000D01*
G01*
X7105000Y-20305000D01*
G75*
G02*
X6905000Y-20505000I-200000J0D01*
G01*
X6505000Y-20505000D01*
G75*
G02*
X6305000Y-20305000I0J200000D01*
G01*
G37*
G36*
G01*
X7955000Y-20305000D02*
X7955000Y-19755000D01*
G75*
G02*
X8155000Y-19555000I200000J0D01*
G01*
X8555000Y-19555000D01*
G75*
G02*
X8755000Y-19755000I0J-200000D01*
G01*
X8755000Y-20305000D01*
G75*
G02*
X8555000Y-20505000I-200000J0D01*
G01*
X8155000Y-20505000D01*
G75*
G02*
X7955000Y-20305000I0J200000D01*
G01*
G37*
G36*
G01*
X29030000Y-17755000D02*
X28530000Y-17755000D01*
G75*
G02*
X28305000Y-17530000I0J225000D01*
G01*
X28305000Y-17080000D01*
G75*
G02*
X28530000Y-16855000I225000J0D01*
G01*
X29030000Y-16855000D01*
G75*
G02*
X29255000Y-17080000I0J-225000D01*
G01*
X29255000Y-17530000D01*
G75*
G02*
X29030000Y-17755000I-225000J0D01*
G01*
G37*
G36*
G01*
X29030000Y-16205000D02*
X28530000Y-16205000D01*
G75*
G02*
X28305000Y-15980000I0J225000D01*
G01*
X28305000Y-15530000D01*
G75*
G02*
X28530000Y-15305000I225000J0D01*
G01*
X29030000Y-15305000D01*
G75*
G02*
X29255000Y-15530000I0J-225000D01*
G01*
X29255000Y-15980000D01*
G75*
G02*
X29030000Y-16205000I-225000J0D01*
G01*
G37*
G36*
G01*
X27305000Y-7755000D02*
X26755000Y-7755000D01*
G75*
G02*
X26555000Y-7555000I0J200000D01*
G01*
X26555000Y-7155000D01*
G75*
G02*
X26755000Y-6955000I200000J0D01*
G01*
X27305000Y-6955000D01*
G75*
G02*
X27505000Y-7155000I0J-200000D01*
G01*
X27505000Y-7555000D01*
G75*
G02*
X27305000Y-7755000I-200000J0D01*
G01*
G37*
G36*
G01*
X27305000Y-6105000D02*
X26755000Y-6105000D01*
G75*
G02*
X26555000Y-5905000I0J200000D01*
G01*
X26555000Y-5505000D01*
G75*
G02*
X26755000Y-5305000I200000J0D01*
G01*
X27305000Y-5305000D01*
G75*
G02*
X27505000Y-5505000I0J-200000D01*
G01*
X27505000Y-5905000D01*
G75*
G02*
X27305000Y-6105000I-200000J0D01*
G01*
G37*
G36*
G01*
X27305000Y-11255000D02*
X26755000Y-11255000D01*
G75*
G02*
X26555000Y-11055000I0J200000D01*
G01*
X26555000Y-10655000D01*
G75*
G02*
X26755000Y-10455000I200000J0D01*
G01*
X27305000Y-10455000D01*
G75*
G02*
X27505000Y-10655000I0J-200000D01*
G01*
X27505000Y-11055000D01*
G75*
G02*
X27305000Y-11255000I-200000J0D01*
G01*
G37*
G36*
G01*
X27305000Y-9605000D02*
X26755000Y-9605000D01*
G75*
G02*
X26555000Y-9405000I0J200000D01*
G01*
X26555000Y-9005000D01*
G75*
G02*
X26755000Y-8805000I200000J0D01*
G01*
X27305000Y-8805000D01*
G75*
G02*
X27505000Y-9005000I0J-200000D01*
G01*
X27505000Y-9405000D01*
G75*
G02*
X27305000Y-9605000I-200000J0D01*
G01*
G37*
D17*
X24070000Y-2820000D03*
D18*
X24070000Y-5360000D03*
X24070000Y-7900000D03*
X24070000Y-10440000D03*
G36*
G01*
X7530000Y-3755000D02*
X7030000Y-3755000D01*
G75*
G02*
X6805000Y-3530000I0J225000D01*
G01*
X6805000Y-3080000D01*
G75*
G02*
X7030000Y-2855000I225000J0D01*
G01*
X7530000Y-2855000D01*
G75*
G02*
X7755000Y-3080000I0J-225000D01*
G01*
X7755000Y-3530000D01*
G75*
G02*
X7530000Y-3755000I-225000J0D01*
G01*
G37*
G36*
G01*
X7530000Y-2205000D02*
X7030000Y-2205000D01*
G75*
G02*
X6805000Y-1980000I0J225000D01*
G01*
X6805000Y-1530000D01*
G75*
G02*
X7030000Y-1305000I225000J0D01*
G01*
X7530000Y-1305000D01*
G75*
G02*
X7755000Y-1530000I0J-225000D01*
G01*
X7755000Y-1980000D01*
G75*
G02*
X7530000Y-2205000I-225000J0D01*
G01*
G37*
G36*
G01*
X22475000Y-21350000D02*
X21725000Y-21350000D01*
G75*
G02*
X21350000Y-20975000I0J375000D01*
G01*
X21350000Y-19725000D01*
G75*
G02*
X21725000Y-19350000I375000J0D01*
G01*
X22475000Y-19350000D01*
G75*
G02*
X22850000Y-19725000I0J-375000D01*
G01*
X22850000Y-20975000D01*
G75*
G02*
X22475000Y-21350000I-375000J0D01*
G01*
G37*
G36*
G01*
X24775000Y-21350000D02*
X24025000Y-21350000D01*
G75*
G02*
X23650000Y-20975000I0J375000D01*
G01*
X23650000Y-19725000D01*
G75*
G02*
X24025000Y-19350000I375000J0D01*
G01*
X24775000Y-19350000D01*
G75*
G02*
X25150000Y-19725000I0J-375000D01*
G01*
X25150000Y-20975000D01*
G75*
G02*
X24775000Y-21350000I-375000J0D01*
G01*
G37*
G36*
G01*
X25800000Y-15050000D02*
X23000000Y-15050000D01*
G75*
G02*
X22500000Y-14550000I0J500000D01*
G01*
X22500000Y-13550000D01*
G75*
G02*
X23000000Y-13050000I500000J0D01*
G01*
X25800000Y-13050000D01*
G75*
G02*
X26300000Y-13550000I0J-500000D01*
G01*
X26300000Y-14550000D01*
G75*
G02*
X25800000Y-15050000I-500000J0D01*
G01*
G37*
G36*
G01*
X27075000Y-21350000D02*
X26325000Y-21350000D01*
G75*
G02*
X25950000Y-20975000I0J375000D01*
G01*
X25950000Y-19725000D01*
G75*
G02*
X26325000Y-19350000I375000J0D01*
G01*
X27075000Y-19350000D01*
G75*
G02*
X27450000Y-19725000I0J-375000D01*
G01*
X27450000Y-20975000D01*
G75*
G02*
X27075000Y-21350000I-375000J0D01*
G01*
G37*
G36*
G01*
X5050000Y-6350000D02*
X3550000Y-6350000D01*
G75*
G02*
X3300000Y-6100000I0J250000D01*
G01*
X3300000Y-5550000D01*
G75*
G02*
X3550000Y-5300000I250000J0D01*
G01*
X5050000Y-5300000D01*
G75*
G02*
X5300000Y-5550000I0J-250000D01*
G01*
X5300000Y-6100000D01*
G75*
G02*
X5050000Y-6350000I-250000J0D01*
G01*
G37*
G36*
G01*
X5050000Y-1900000D02*
X3550000Y-1900000D01*
G75*
G02*
X3300000Y-1650000I0J250000D01*
G01*
X3300000Y-1100000D01*
G75*
G02*
X3550000Y-850000I250000J0D01*
G01*
X5050000Y-850000D01*
G75*
G02*
X5300000Y-1100000I0J-250000D01*
G01*
X5300000Y-1650000D01*
G75*
G02*
X5050000Y-1900000I-250000J0D01*
G01*
G37*
G36*
G01*
X6530000Y-18505000D02*
X6030000Y-18505000D01*
G75*
G02*
X5805000Y-18280000I0J225000D01*
G01*
X5805000Y-17830000D01*
G75*
G02*
X6030000Y-17605000I225000J0D01*
G01*
X6530000Y-17605000D01*
G75*
G02*
X6755000Y-17830000I0J-225000D01*
G01*
X6755000Y-18280000D01*
G75*
G02*
X6530000Y-18505000I-225000J0D01*
G01*
G37*
G36*
G01*
X6530000Y-16955000D02*
X6030000Y-16955000D01*
G75*
G02*
X5805000Y-16730000I0J225000D01*
G01*
X5805000Y-16280000D01*
G75*
G02*
X6030000Y-16055000I225000J0D01*
G01*
X6530000Y-16055000D01*
G75*
G02*
X6755000Y-16280000I0J-225000D01*
G01*
X6755000Y-16730000D01*
G75*
G02*
X6530000Y-16955000I-225000J0D01*
G01*
G37*
G36*
G01*
X7036250Y-9505000D02*
X6523750Y-9505000D01*
G75*
G02*
X6305000Y-9286250I0J218750D01*
G01*
X6305000Y-8848750D01*
G75*
G02*
X6523750Y-8630000I218750J0D01*
G01*
X7036250Y-8630000D01*
G75*
G02*
X7255000Y-8848750I0J-218750D01*
G01*
X7255000Y-9286250D01*
G75*
G02*
X7036250Y-9505000I-218750J0D01*
G01*
G37*
G36*
G01*
X7036250Y-7930000D02*
X6523750Y-7930000D01*
G75*
G02*
X6305000Y-7711250I0J218750D01*
G01*
X6305000Y-7273750D01*
G75*
G02*
X6523750Y-7055000I218750J0D01*
G01*
X7036250Y-7055000D01*
G75*
G02*
X7255000Y-7273750I0J-218750D01*
G01*
X7255000Y-7711250D01*
G75*
G02*
X7036250Y-7930000I-218750J0D01*
G01*
G37*
M02*
