G04 #@! TF.GenerationSoftware,KiCad,Pcbnew,10.0.6-10.0.6~ubuntu26.04.1*
G04 #@! TF.CreationDate,2026-09-08T15:37:18+00:00*
G04 #@! TF.ProjectId,dual-beacon-tag,6475616c-2d62-4656-9163-6f6e2d746167,rev?*
G04 #@! TF.SameCoordinates,Original*
G04 #@! TF.FileFunction,Legend,Bot*
G04 #@! TF.FilePolarity,Positive*
%FSLAX46Y46*%
G04 Gerber Fmt 4.6, Leading zero omitted, Abs format (unit mm)*
G04 Created by KiCad (PCBNEW 10.0.6-10.0.6~ubuntu26.04.1) date 2026-09-08 15:37:18*
%MOMM*%
%LPD*%
G01*
G04 APERTURE LIST*
%ADD10C,0.150000*%
G04 APERTURE END LIST*
D10*
X14829819Y-1497618D02*
X13829819Y-1497618D01*
X14782200Y-1497618D02*
X14829819Y-1402380D01*
X14829819Y-1402380D02*
X14829819Y-1211904D01*
X14829819Y-1211904D02*
X14782200Y-1116666D01*
X14782200Y-1116666D02*
X14734580Y-1069047D01*
X14734580Y-1069047D02*
X14639342Y-1021428D01*
X14639342Y-1021428D02*
X14353628Y-1021428D01*
X14353628Y-1021428D02*
X14258390Y-1069047D01*
X14258390Y-1069047D02*
X14210771Y-1116666D01*
X14210771Y-1116666D02*
X14163152Y-1211904D01*
X14163152Y-1211904D02*
X14163152Y-1402380D01*
X14163152Y-1402380D02*
X14210771Y-1497618D01*
X14163152Y-2402380D02*
X14829819Y-2402380D01*
X14163152Y-1973809D02*
X14686961Y-1973809D01*
X14686961Y-1973809D02*
X14782200Y-2021428D01*
X14782200Y-2021428D02*
X14829819Y-2116666D01*
X14829819Y-2116666D02*
X14829819Y-2259523D01*
X14829819Y-2259523D02*
X14782200Y-2354761D01*
X14782200Y-2354761D02*
X14734580Y-2402380D01*
X14829819Y-3307142D02*
X14306009Y-3307142D01*
X14306009Y-3307142D02*
X14210771Y-3259523D01*
X14210771Y-3259523D02*
X14163152Y-3164285D01*
X14163152Y-3164285D02*
X14163152Y-2973809D01*
X14163152Y-2973809D02*
X14210771Y-2878571D01*
X14782200Y-3307142D02*
X14829819Y-3211904D01*
X14829819Y-3211904D02*
X14829819Y-2973809D01*
X14829819Y-2973809D02*
X14782200Y-2878571D01*
X14782200Y-2878571D02*
X14686961Y-2830952D01*
X14686961Y-2830952D02*
X14591723Y-2830952D01*
X14591723Y-2830952D02*
X14496485Y-2878571D01*
X14496485Y-2878571D02*
X14448866Y-2973809D01*
X14448866Y-2973809D02*
X14448866Y-3211904D01*
X14448866Y-3211904D02*
X14401247Y-3307142D01*
X14829819Y-3926190D02*
X14782200Y-3830952D01*
X14782200Y-3830952D02*
X14686961Y-3783333D01*
X14686961Y-3783333D02*
X13829819Y-3783333D01*
X14448866Y-4307143D02*
X14448866Y-5069048D01*
X14829819Y-5545238D02*
X13829819Y-5545238D01*
X14210771Y-5545238D02*
X14163152Y-5640476D01*
X14163152Y-5640476D02*
X14163152Y-5830952D01*
X14163152Y-5830952D02*
X14210771Y-5926190D01*
X14210771Y-5926190D02*
X14258390Y-5973809D01*
X14258390Y-5973809D02*
X14353628Y-6021428D01*
X14353628Y-6021428D02*
X14639342Y-6021428D01*
X14639342Y-6021428D02*
X14734580Y-5973809D01*
X14734580Y-5973809D02*
X14782200Y-5926190D01*
X14782200Y-5926190D02*
X14829819Y-5830952D01*
X14829819Y-5830952D02*
X14829819Y-5640476D01*
X14829819Y-5640476D02*
X14782200Y-5545238D01*
X14782200Y-6830952D02*
X14829819Y-6735714D01*
X14829819Y-6735714D02*
X14829819Y-6545238D01*
X14829819Y-6545238D02*
X14782200Y-6450000D01*
X14782200Y-6450000D02*
X14686961Y-6402381D01*
X14686961Y-6402381D02*
X14306009Y-6402381D01*
X14306009Y-6402381D02*
X14210771Y-6450000D01*
X14210771Y-6450000D02*
X14163152Y-6545238D01*
X14163152Y-6545238D02*
X14163152Y-6735714D01*
X14163152Y-6735714D02*
X14210771Y-6830952D01*
X14210771Y-6830952D02*
X14306009Y-6878571D01*
X14306009Y-6878571D02*
X14401247Y-6878571D01*
X14401247Y-6878571D02*
X14496485Y-6402381D01*
X14829819Y-7735714D02*
X14306009Y-7735714D01*
X14306009Y-7735714D02*
X14210771Y-7688095D01*
X14210771Y-7688095D02*
X14163152Y-7592857D01*
X14163152Y-7592857D02*
X14163152Y-7402381D01*
X14163152Y-7402381D02*
X14210771Y-7307143D01*
X14782200Y-7735714D02*
X14829819Y-7640476D01*
X14829819Y-7640476D02*
X14829819Y-7402381D01*
X14829819Y-7402381D02*
X14782200Y-7307143D01*
X14782200Y-7307143D02*
X14686961Y-7259524D01*
X14686961Y-7259524D02*
X14591723Y-7259524D01*
X14591723Y-7259524D02*
X14496485Y-7307143D01*
X14496485Y-7307143D02*
X14448866Y-7402381D01*
X14448866Y-7402381D02*
X14448866Y-7640476D01*
X14448866Y-7640476D02*
X14401247Y-7735714D01*
X14782200Y-8640476D02*
X14829819Y-8545238D01*
X14829819Y-8545238D02*
X14829819Y-8354762D01*
X14829819Y-8354762D02*
X14782200Y-8259524D01*
X14782200Y-8259524D02*
X14734580Y-8211905D01*
X14734580Y-8211905D02*
X14639342Y-8164286D01*
X14639342Y-8164286D02*
X14353628Y-8164286D01*
X14353628Y-8164286D02*
X14258390Y-8211905D01*
X14258390Y-8211905D02*
X14210771Y-8259524D01*
X14210771Y-8259524D02*
X14163152Y-8354762D01*
X14163152Y-8354762D02*
X14163152Y-8545238D01*
X14163152Y-8545238D02*
X14210771Y-8640476D01*
X14829819Y-9211905D02*
X14782200Y-9116667D01*
X14782200Y-9116667D02*
X14734580Y-9069048D01*
X14734580Y-9069048D02*
X14639342Y-9021429D01*
X14639342Y-9021429D02*
X14353628Y-9021429D01*
X14353628Y-9021429D02*
X14258390Y-9069048D01*
X14258390Y-9069048D02*
X14210771Y-9116667D01*
X14210771Y-9116667D02*
X14163152Y-9211905D01*
X14163152Y-9211905D02*
X14163152Y-9354762D01*
X14163152Y-9354762D02*
X14210771Y-9450000D01*
X14210771Y-9450000D02*
X14258390Y-9497619D01*
X14258390Y-9497619D02*
X14353628Y-9545238D01*
X14353628Y-9545238D02*
X14639342Y-9545238D01*
X14639342Y-9545238D02*
X14734580Y-9497619D01*
X14734580Y-9497619D02*
X14782200Y-9450000D01*
X14782200Y-9450000D02*
X14829819Y-9354762D01*
X14829819Y-9354762D02*
X14829819Y-9211905D01*
X14163152Y-9973810D02*
X14829819Y-9973810D01*
X14258390Y-9973810D02*
X14210771Y-10021429D01*
X14210771Y-10021429D02*
X14163152Y-10116667D01*
X14163152Y-10116667D02*
X14163152Y-10259524D01*
X14163152Y-10259524D02*
X14210771Y-10354762D01*
X14210771Y-10354762D02*
X14306009Y-10402381D01*
X14306009Y-10402381D02*
X14829819Y-10402381D01*
X14448866Y-10878572D02*
X14448866Y-11640477D01*
X14163152Y-11973810D02*
X14163152Y-12354762D01*
X13829819Y-12116667D02*
X14686961Y-12116667D01*
X14686961Y-12116667D02*
X14782200Y-12164286D01*
X14782200Y-12164286D02*
X14829819Y-12259524D01*
X14829819Y-12259524D02*
X14829819Y-12354762D01*
X14829819Y-13116667D02*
X14306009Y-13116667D01*
X14306009Y-13116667D02*
X14210771Y-13069048D01*
X14210771Y-13069048D02*
X14163152Y-12973810D01*
X14163152Y-12973810D02*
X14163152Y-12783334D01*
X14163152Y-12783334D02*
X14210771Y-12688096D01*
X14782200Y-13116667D02*
X14829819Y-13021429D01*
X14829819Y-13021429D02*
X14829819Y-12783334D01*
X14829819Y-12783334D02*
X14782200Y-12688096D01*
X14782200Y-12688096D02*
X14686961Y-12640477D01*
X14686961Y-12640477D02*
X14591723Y-12640477D01*
X14591723Y-12640477D02*
X14496485Y-12688096D01*
X14496485Y-12688096D02*
X14448866Y-12783334D01*
X14448866Y-12783334D02*
X14448866Y-13021429D01*
X14448866Y-13021429D02*
X14401247Y-13116667D01*
X14163152Y-14021429D02*
X14972676Y-14021429D01*
X14972676Y-14021429D02*
X15067914Y-13973810D01*
X15067914Y-13973810D02*
X15115533Y-13926191D01*
X15115533Y-13926191D02*
X15163152Y-13830953D01*
X15163152Y-13830953D02*
X15163152Y-13688096D01*
X15163152Y-13688096D02*
X15115533Y-13592858D01*
X14782200Y-14021429D02*
X14829819Y-13926191D01*
X14829819Y-13926191D02*
X14829819Y-13735715D01*
X14829819Y-13735715D02*
X14782200Y-13640477D01*
X14782200Y-13640477D02*
X14734580Y-13592858D01*
X14734580Y-13592858D02*
X14639342Y-13545239D01*
X14639342Y-13545239D02*
X14353628Y-13545239D01*
X14353628Y-13545239D02*
X14258390Y-13592858D01*
X14258390Y-13592858D02*
X14210771Y-13640477D01*
X14210771Y-13640477D02*
X14163152Y-13735715D01*
X14163152Y-13735715D02*
X14163152Y-13926191D01*
X14163152Y-13926191D02*
X14210771Y-14021429D01*
X14448866Y-14497620D02*
X14448866Y-15259525D01*
X14829819Y-15735715D02*
X14163152Y-15735715D01*
X14353628Y-15735715D02*
X14258390Y-15783334D01*
X14258390Y-15783334D02*
X14210771Y-15830953D01*
X14210771Y-15830953D02*
X14163152Y-15926191D01*
X14163152Y-15926191D02*
X14163152Y-16021429D01*
X14829819Y-16878572D02*
X14829819Y-16307144D01*
X14829819Y-16592858D02*
X13829819Y-16592858D01*
X13829819Y-16592858D02*
X13972676Y-16497620D01*
X13972676Y-16497620D02*
X14067914Y-16402382D01*
X14067914Y-16402382D02*
X14115533Y-16307144D01*
M02*
