G04 #@! TF.GenerationSoftware,KiCad,Pcbnew,10.0.6-10.0.6~ubuntu26.04.1*
G04 #@! TF.CreationDate,2026-08-31T23:19:45+00:00*
G04 #@! TF.ProjectId,golden-design-1,676f6c64-656e-42d6-9465-7369676e2d31,rev?*
G04 #@! TF.SameCoordinates,Original*
G04 #@! TF.FileFunction,Legend,Bot*
G04 #@! TF.FilePolarity,Positive*
%FSLAX46Y46*%
G04 Gerber Fmt 4.6, Leading zero omitted, Abs format (unit mm)*
G04 Created by KiCad (PCBNEW 10.0.6-10.0.6~ubuntu26.04.1) date 2026-08-31 23:19:45*
%MOMM*%
%LPD*%
G01*
G04 APERTURE LIST*
%ADD10C,0.000000*%
%ADD11C,0.240000*%
%ADD12C,0.160000*%
%ADD13C,0.180000*%
%ADD14C,0.300000*%
%ADD15C,0.200000*%
%ADD16C,0.150000*%
G04 APERTURE END LIST*
D10*
G36*
X5500000Y-1500000D02*
G01*
X4300000Y-1500000D01*
X4300000Y-300000D01*
X5500000Y-300000D01*
X5500000Y-1500000D01*
G37*
G36*
X5500000Y-1800000D02*
G01*
X4300000Y-1800000D01*
X4300000Y-1500000D01*
X5500000Y-1500000D01*
X5500000Y-1800000D01*
G37*
G36*
X5500000Y-2100000D02*
G01*
X4300000Y-2100000D01*
X4300000Y-1800000D01*
X5500000Y-1800000D01*
X5500000Y-2100000D01*
G37*
G36*
X5500000Y-2400000D02*
G01*
X4300000Y-2400000D01*
X4300000Y-2100000D01*
X5500000Y-2100000D01*
X5500000Y-2400000D01*
G37*
G36*
X5500000Y-2700000D02*
G01*
X4300000Y-2700000D01*
X4300000Y-2400000D01*
X5500000Y-2400000D01*
X5500000Y-2700000D01*
G37*
G36*
X5500000Y-3000000D02*
G01*
X4300000Y-3000000D01*
X4300000Y-2700000D01*
X5500000Y-2700000D01*
X5500000Y-3000000D01*
G37*
G36*
X5500000Y-3300000D02*
G01*
X4300000Y-3300000D01*
X4300000Y-3000000D01*
X5500000Y-3000000D01*
X5500000Y-3300000D01*
G37*
G36*
X5500000Y-3600000D02*
G01*
X4300000Y-3600000D01*
X4300000Y-3300000D01*
X5500000Y-3300000D01*
X5500000Y-3600000D01*
G37*
G36*
X5500000Y-3900000D02*
G01*
X4300000Y-3900000D01*
X4300000Y-3600000D01*
X5500000Y-3600000D01*
X5500000Y-3900000D01*
G37*
G36*
X5500000Y-4200000D02*
G01*
X4300000Y-4200000D01*
X4300000Y-3900000D01*
X5500000Y-3900000D01*
X5500000Y-4200000D01*
G37*
G36*
X5500000Y-4500000D02*
G01*
X4300000Y-4500000D01*
X4300000Y-4200000D01*
X5500000Y-4200000D01*
X5500000Y-4500000D01*
G37*
G36*
X5500000Y-4800000D02*
G01*
X4300000Y-4800000D01*
X4300000Y-4500000D01*
X5500000Y-4500000D01*
X5500000Y-4800000D01*
G37*
G36*
X5500000Y-5100000D02*
G01*
X4300000Y-5100000D01*
X4300000Y-4800000D01*
X5500000Y-4800000D01*
X5500000Y-5100000D01*
G37*
G36*
X5500000Y-5400000D02*
G01*
X4300000Y-5400000D01*
X4300000Y-5100000D01*
X5500000Y-5100000D01*
X5500000Y-5400000D01*
G37*
G36*
X5500000Y-5700000D02*
G01*
X4300000Y-5700000D01*
X4300000Y-5400000D01*
X5500000Y-5400000D01*
X5500000Y-5700000D01*
G37*
G36*
X5500000Y-6000000D02*
G01*
X4300000Y-6000000D01*
X4300000Y-5700000D01*
X5500000Y-5700000D01*
X5500000Y-6000000D01*
G37*
G36*
X5500000Y-6300000D02*
G01*
X4300000Y-6300000D01*
X4300000Y-6000000D01*
X5500000Y-6000000D01*
X5500000Y-6300000D01*
G37*
G36*
X5500000Y-6600000D02*
G01*
X4300000Y-6600000D01*
X4300000Y-6300000D01*
X5500000Y-6300000D01*
X5500000Y-6600000D01*
G37*
G36*
X5500000Y-6900000D02*
G01*
X4300000Y-6900000D01*
X4300000Y-6600000D01*
X5500000Y-6600000D01*
X5500000Y-6900000D01*
G37*
G36*
X5500000Y-7200000D02*
G01*
X4300000Y-7200000D01*
X4300000Y-6900000D01*
X5500000Y-6900000D01*
X5500000Y-7200000D01*
G37*
G36*
X5500000Y-7500000D02*
G01*
X4300000Y-7500000D01*
X4300000Y-7200000D01*
X5500000Y-7200000D01*
X5500000Y-7500000D01*
G37*
G36*
X5500000Y-7800000D02*
G01*
X4300000Y-7800000D01*
X4300000Y-7500000D01*
X5500000Y-7500000D01*
X5500000Y-7800000D01*
G37*
G36*
X5500000Y-8100000D02*
G01*
X4300000Y-8100000D01*
X4300000Y-7800000D01*
X5500000Y-7800000D01*
X5500000Y-8100000D01*
G37*
G36*
X5500000Y-8400000D02*
G01*
X4300000Y-8400000D01*
X4300000Y-8100000D01*
X5500000Y-8100000D01*
X5500000Y-8400000D01*
G37*
G36*
X5500000Y-8700000D02*
G01*
X4300000Y-8700000D01*
X4300000Y-8400000D01*
X5500000Y-8400000D01*
X5500000Y-8700000D01*
G37*
G36*
X5500000Y-9000000D02*
G01*
X4300000Y-9000000D01*
X4300000Y-8700000D01*
X5500000Y-8700000D01*
X5500000Y-9000000D01*
G37*
G36*
X5500000Y-9300000D02*
G01*
X4300000Y-9300000D01*
X4300000Y-9000000D01*
X5500000Y-9000000D01*
X5500000Y-9300000D01*
G37*
G36*
X5500000Y-9600000D02*
G01*
X4300000Y-9600000D01*
X4300000Y-9300000D01*
X5500000Y-9300000D01*
X5500000Y-9600000D01*
G37*
G36*
X5500000Y-9900000D02*
G01*
X4300000Y-9900000D01*
X4300000Y-9600000D01*
X5500000Y-9600000D01*
X5500000Y-9900000D01*
G37*
G36*
X5500000Y-10200000D02*
G01*
X4300000Y-10200000D01*
X4300000Y-9900000D01*
X5500000Y-9900000D01*
X5500000Y-10200000D01*
G37*
G36*
X5500000Y-10500000D02*
G01*
X4300000Y-10500000D01*
X4300000Y-10200000D01*
X5500000Y-10200000D01*
X5500000Y-10500000D01*
G37*
G36*
X5500000Y-10800000D02*
G01*
X4300000Y-10800000D01*
X4300000Y-10500000D01*
X5500000Y-10500000D01*
X5500000Y-10800000D01*
G37*
G36*
X5500000Y-11100000D02*
G01*
X4300000Y-11100000D01*
X4300000Y-10800000D01*
X5500000Y-10800000D01*
X5500000Y-11100000D01*
G37*
G36*
X5500000Y-11400000D02*
G01*
X4300000Y-11400000D01*
X4300000Y-11100000D01*
X5500000Y-11100000D01*
X5500000Y-11400000D01*
G37*
G36*
X5500000Y-11700000D02*
G01*
X4300000Y-11700000D01*
X4300000Y-11400000D01*
X5500000Y-11400000D01*
X5500000Y-11700000D01*
G37*
G36*
X5500000Y-12000000D02*
G01*
X4300000Y-12000000D01*
X4300000Y-11700000D01*
X5500000Y-11700000D01*
X5500000Y-12000000D01*
G37*
G36*
X5500000Y-12300000D02*
G01*
X4300000Y-12300000D01*
X4300000Y-12000000D01*
X5500000Y-12000000D01*
X5500000Y-12300000D01*
G37*
G36*
X5500000Y-12600000D02*
G01*
X4300000Y-12600000D01*
X4300000Y-12300000D01*
X5500000Y-12300000D01*
X5500000Y-12600000D01*
G37*
G36*
X5500000Y-13800000D02*
G01*
X4300000Y-13800000D01*
X4300000Y-12600000D01*
X5500000Y-12600000D01*
X5500000Y-13800000D01*
G37*
G36*
X5800000Y-1500000D02*
G01*
X5500000Y-1500000D01*
X5500000Y-300000D01*
X5800000Y-300000D01*
X5800000Y-1500000D01*
G37*
G36*
X5800000Y-3900000D02*
G01*
X5500000Y-3900000D01*
X5500000Y-3600000D01*
X5800000Y-3600000D01*
X5800000Y-3900000D01*
G37*
G36*
X5800000Y-6300000D02*
G01*
X5500000Y-6300000D01*
X5500000Y-6000000D01*
X5800000Y-6000000D01*
X5800000Y-6300000D01*
G37*
G36*
X5800000Y-7500000D02*
G01*
X5500000Y-7500000D01*
X5500000Y-7200000D01*
X5800000Y-7200000D01*
X5800000Y-7500000D01*
G37*
G36*
X5800000Y-7800000D02*
G01*
X5500000Y-7800000D01*
X5500000Y-7500000D01*
X5800000Y-7500000D01*
X5800000Y-7800000D01*
G37*
G36*
X5800000Y-8700000D02*
G01*
X5500000Y-8700000D01*
X5500000Y-8400000D01*
X5800000Y-8400000D01*
X5800000Y-8700000D01*
G37*
G36*
X5800000Y-9900000D02*
G01*
X5500000Y-9900000D01*
X5500000Y-9600000D01*
X5800000Y-9600000D01*
X5800000Y-9900000D01*
G37*
G36*
X5800000Y-10200000D02*
G01*
X5500000Y-10200000D01*
X5500000Y-9900000D01*
X5800000Y-9900000D01*
X5800000Y-10200000D01*
G37*
G36*
X5800000Y-11100000D02*
G01*
X5500000Y-11100000D01*
X5500000Y-10800000D01*
X5800000Y-10800000D01*
X5800000Y-11100000D01*
G37*
G36*
X5800000Y-11400000D02*
G01*
X5500000Y-11400000D01*
X5500000Y-11100000D01*
X5800000Y-11100000D01*
X5800000Y-11400000D01*
G37*
G36*
X5800000Y-12300000D02*
G01*
X5500000Y-12300000D01*
X5500000Y-12000000D01*
X5800000Y-12000000D01*
X5800000Y-12300000D01*
G37*
G36*
X5800000Y-13800000D02*
G01*
X5500000Y-13800000D01*
X5500000Y-12600000D01*
X5800000Y-12600000D01*
X5800000Y-13800000D01*
G37*
G36*
X6100000Y-1500000D02*
G01*
X5800000Y-1500000D01*
X5800000Y-300000D01*
X6100000Y-300000D01*
X6100000Y-1500000D01*
G37*
G36*
X6100000Y-2100000D02*
G01*
X5800000Y-2100000D01*
X5800000Y-1800000D01*
X6100000Y-1800000D01*
X6100000Y-2100000D01*
G37*
G36*
X6100000Y-2400000D02*
G01*
X5800000Y-2400000D01*
X5800000Y-2100000D01*
X6100000Y-2100000D01*
X6100000Y-2400000D01*
G37*
G36*
X6100000Y-2700000D02*
G01*
X5800000Y-2700000D01*
X5800000Y-2400000D01*
X6100000Y-2400000D01*
X6100000Y-2700000D01*
G37*
G36*
X6100000Y-3000000D02*
G01*
X5800000Y-3000000D01*
X5800000Y-2700000D01*
X6100000Y-2700000D01*
X6100000Y-3000000D01*
G37*
G36*
X6100000Y-3300000D02*
G01*
X5800000Y-3300000D01*
X5800000Y-3000000D01*
X6100000Y-3000000D01*
X6100000Y-3300000D01*
G37*
G36*
X6100000Y-3900000D02*
G01*
X5800000Y-3900000D01*
X5800000Y-3600000D01*
X6100000Y-3600000D01*
X6100000Y-3900000D01*
G37*
G36*
X6100000Y-4500000D02*
G01*
X5800000Y-4500000D01*
X5800000Y-4200000D01*
X6100000Y-4200000D01*
X6100000Y-4500000D01*
G37*
G36*
X6100000Y-5400000D02*
G01*
X5800000Y-5400000D01*
X5800000Y-5100000D01*
X6100000Y-5100000D01*
X6100000Y-5400000D01*
G37*
G36*
X6100000Y-6000000D02*
G01*
X5800000Y-6000000D01*
X5800000Y-5700000D01*
X6100000Y-5700000D01*
X6100000Y-6000000D01*
G37*
G36*
X6100000Y-6900000D02*
G01*
X5800000Y-6900000D01*
X5800000Y-6600000D01*
X6100000Y-6600000D01*
X6100000Y-6900000D01*
G37*
G36*
X6100000Y-7500000D02*
G01*
X5800000Y-7500000D01*
X5800000Y-7200000D01*
X6100000Y-7200000D01*
X6100000Y-7500000D01*
G37*
G36*
X6100000Y-9000000D02*
G01*
X5800000Y-9000000D01*
X5800000Y-8700000D01*
X6100000Y-8700000D01*
X6100000Y-9000000D01*
G37*
G36*
X6100000Y-9300000D02*
G01*
X5800000Y-9300000D01*
X5800000Y-9000000D01*
X6100000Y-9000000D01*
X6100000Y-9300000D01*
G37*
G36*
X6100000Y-9600000D02*
G01*
X5800000Y-9600000D01*
X5800000Y-9300000D01*
X6100000Y-9300000D01*
X6100000Y-9600000D01*
G37*
G36*
X6100000Y-9900000D02*
G01*
X5800000Y-9900000D01*
X5800000Y-9600000D01*
X6100000Y-9600000D01*
X6100000Y-9900000D01*
G37*
G36*
X6100000Y-10200000D02*
G01*
X5800000Y-10200000D01*
X5800000Y-9900000D01*
X6100000Y-9900000D01*
X6100000Y-10200000D01*
G37*
G36*
X6100000Y-11100000D02*
G01*
X5800000Y-11100000D01*
X5800000Y-10800000D01*
X6100000Y-10800000D01*
X6100000Y-11100000D01*
G37*
G36*
X6100000Y-12000000D02*
G01*
X5800000Y-12000000D01*
X5800000Y-11700000D01*
X6100000Y-11700000D01*
X6100000Y-12000000D01*
G37*
G36*
X6100000Y-12300000D02*
G01*
X5800000Y-12300000D01*
X5800000Y-12000000D01*
X6100000Y-12000000D01*
X6100000Y-12300000D01*
G37*
G36*
X6100000Y-13800000D02*
G01*
X5800000Y-13800000D01*
X5800000Y-12600000D01*
X6100000Y-12600000D01*
X6100000Y-13800000D01*
G37*
G36*
X6400000Y-1500000D02*
G01*
X6100000Y-1500000D01*
X6100000Y-300000D01*
X6400000Y-300000D01*
X6400000Y-1500000D01*
G37*
G36*
X6400000Y-2100000D02*
G01*
X6100000Y-2100000D01*
X6100000Y-1800000D01*
X6400000Y-1800000D01*
X6400000Y-2100000D01*
G37*
G36*
X6400000Y-3300000D02*
G01*
X6100000Y-3300000D01*
X6100000Y-3000000D01*
X6400000Y-3000000D01*
X6400000Y-3300000D01*
G37*
G36*
X6400000Y-3900000D02*
G01*
X6100000Y-3900000D01*
X6100000Y-3600000D01*
X6400000Y-3600000D01*
X6400000Y-3900000D01*
G37*
G36*
X6400000Y-4200000D02*
G01*
X6100000Y-4200000D01*
X6100000Y-3900000D01*
X6400000Y-3900000D01*
X6400000Y-4200000D01*
G37*
G36*
X6400000Y-4500000D02*
G01*
X6100000Y-4500000D01*
X6100000Y-4200000D01*
X6400000Y-4200000D01*
X6400000Y-4500000D01*
G37*
G36*
X6400000Y-5100000D02*
G01*
X6100000Y-5100000D01*
X6100000Y-4800000D01*
X6400000Y-4800000D01*
X6400000Y-5100000D01*
G37*
G36*
X6400000Y-5400000D02*
G01*
X6100000Y-5400000D01*
X6100000Y-5100000D01*
X6400000Y-5100000D01*
X6400000Y-5400000D01*
G37*
G36*
X6400000Y-5700000D02*
G01*
X6100000Y-5700000D01*
X6100000Y-5400000D01*
X6400000Y-5400000D01*
X6400000Y-5700000D01*
G37*
G36*
X6400000Y-6300000D02*
G01*
X6100000Y-6300000D01*
X6100000Y-6000000D01*
X6400000Y-6000000D01*
X6400000Y-6300000D01*
G37*
G36*
X6400000Y-7800000D02*
G01*
X6100000Y-7800000D01*
X6100000Y-7500000D01*
X6400000Y-7500000D01*
X6400000Y-7800000D01*
G37*
G36*
X6400000Y-8100000D02*
G01*
X6100000Y-8100000D01*
X6100000Y-7800000D01*
X6400000Y-7800000D01*
X6400000Y-8100000D01*
G37*
G36*
X6400000Y-8400000D02*
G01*
X6100000Y-8400000D01*
X6100000Y-8100000D01*
X6400000Y-8100000D01*
X6400000Y-8400000D01*
G37*
G36*
X6400000Y-8700000D02*
G01*
X6100000Y-8700000D01*
X6100000Y-8400000D01*
X6400000Y-8400000D01*
X6400000Y-8700000D01*
G37*
G36*
X6400000Y-9000000D02*
G01*
X6100000Y-9000000D01*
X6100000Y-8700000D01*
X6400000Y-8700000D01*
X6400000Y-9000000D01*
G37*
G36*
X6400000Y-9900000D02*
G01*
X6100000Y-9900000D01*
X6100000Y-9600000D01*
X6400000Y-9600000D01*
X6400000Y-9900000D01*
G37*
G36*
X6400000Y-10500000D02*
G01*
X6100000Y-10500000D01*
X6100000Y-10200000D01*
X6400000Y-10200000D01*
X6400000Y-10500000D01*
G37*
G36*
X6400000Y-11400000D02*
G01*
X6100000Y-11400000D01*
X6100000Y-11100000D01*
X6400000Y-11100000D01*
X6400000Y-11400000D01*
G37*
G36*
X6400000Y-11700000D02*
G01*
X6100000Y-11700000D01*
X6100000Y-11400000D01*
X6400000Y-11400000D01*
X6400000Y-11700000D01*
G37*
G36*
X6400000Y-12000000D02*
G01*
X6100000Y-12000000D01*
X6100000Y-11700000D01*
X6400000Y-11700000D01*
X6400000Y-12000000D01*
G37*
G36*
X6400000Y-12300000D02*
G01*
X6100000Y-12300000D01*
X6100000Y-12000000D01*
X6400000Y-12000000D01*
X6400000Y-12300000D01*
G37*
G36*
X6400000Y-12600000D02*
G01*
X6100000Y-12600000D01*
X6100000Y-12300000D01*
X6400000Y-12300000D01*
X6400000Y-12600000D01*
G37*
G36*
X6400000Y-13800000D02*
G01*
X6100000Y-13800000D01*
X6100000Y-12600000D01*
X6400000Y-12600000D01*
X6400000Y-13800000D01*
G37*
G36*
X6700000Y-1500000D02*
G01*
X6400000Y-1500000D01*
X6400000Y-300000D01*
X6700000Y-300000D01*
X6700000Y-1500000D01*
G37*
G36*
X6700000Y-2100000D02*
G01*
X6400000Y-2100000D01*
X6400000Y-1800000D01*
X6700000Y-1800000D01*
X6700000Y-2100000D01*
G37*
G36*
X6700000Y-3300000D02*
G01*
X6400000Y-3300000D01*
X6400000Y-3000000D01*
X6700000Y-3000000D01*
X6700000Y-3300000D01*
G37*
G36*
X6700000Y-3900000D02*
G01*
X6400000Y-3900000D01*
X6400000Y-3600000D01*
X6700000Y-3600000D01*
X6700000Y-3900000D01*
G37*
G36*
X6700000Y-5100000D02*
G01*
X6400000Y-5100000D01*
X6400000Y-4800000D01*
X6700000Y-4800000D01*
X6700000Y-5100000D01*
G37*
G36*
X6700000Y-5400000D02*
G01*
X6400000Y-5400000D01*
X6400000Y-5100000D01*
X6700000Y-5100000D01*
X6700000Y-5400000D01*
G37*
G36*
X6700000Y-6000000D02*
G01*
X6400000Y-6000000D01*
X6400000Y-5700000D01*
X6700000Y-5700000D01*
X6700000Y-6000000D01*
G37*
G36*
X6700000Y-6300000D02*
G01*
X6400000Y-6300000D01*
X6400000Y-6000000D01*
X6700000Y-6000000D01*
X6700000Y-6300000D01*
G37*
G36*
X6700000Y-7200000D02*
G01*
X6400000Y-7200000D01*
X6400000Y-6900000D01*
X6700000Y-6900000D01*
X6700000Y-7200000D01*
G37*
G36*
X6700000Y-7500000D02*
G01*
X6400000Y-7500000D01*
X6400000Y-7200000D01*
X6700000Y-7200000D01*
X6700000Y-7500000D01*
G37*
G36*
X6700000Y-8100000D02*
G01*
X6400000Y-8100000D01*
X6400000Y-7800000D01*
X6700000Y-7800000D01*
X6700000Y-8100000D01*
G37*
G36*
X6700000Y-8400000D02*
G01*
X6400000Y-8400000D01*
X6400000Y-8100000D01*
X6700000Y-8100000D01*
X6700000Y-8400000D01*
G37*
G36*
X6700000Y-9300000D02*
G01*
X6400000Y-9300000D01*
X6400000Y-9000000D01*
X6700000Y-9000000D01*
X6700000Y-9300000D01*
G37*
G36*
X6700000Y-9600000D02*
G01*
X6400000Y-9600000D01*
X6400000Y-9300000D01*
X6700000Y-9300000D01*
X6700000Y-9600000D01*
G37*
G36*
X6700000Y-10200000D02*
G01*
X6400000Y-10200000D01*
X6400000Y-9900000D01*
X6700000Y-9900000D01*
X6700000Y-10200000D01*
G37*
G36*
X6700000Y-10500000D02*
G01*
X6400000Y-10500000D01*
X6400000Y-10200000D01*
X6700000Y-10200000D01*
X6700000Y-10500000D01*
G37*
G36*
X6700000Y-10800000D02*
G01*
X6400000Y-10800000D01*
X6400000Y-10500000D01*
X6700000Y-10500000D01*
X6700000Y-10800000D01*
G37*
G36*
X6700000Y-11100000D02*
G01*
X6400000Y-11100000D01*
X6400000Y-10800000D01*
X6700000Y-10800000D01*
X6700000Y-11100000D01*
G37*
G36*
X6700000Y-11700000D02*
G01*
X6400000Y-11700000D01*
X6400000Y-11400000D01*
X6700000Y-11400000D01*
X6700000Y-11700000D01*
G37*
G36*
X6700000Y-12300000D02*
G01*
X6400000Y-12300000D01*
X6400000Y-12000000D01*
X6700000Y-12000000D01*
X6700000Y-12300000D01*
G37*
G36*
X6700000Y-12600000D02*
G01*
X6400000Y-12600000D01*
X6400000Y-12300000D01*
X6700000Y-12300000D01*
X6700000Y-12600000D01*
G37*
G36*
X6700000Y-13800000D02*
G01*
X6400000Y-13800000D01*
X6400000Y-12600000D01*
X6700000Y-12600000D01*
X6700000Y-13800000D01*
G37*
G36*
X7000000Y-1500000D02*
G01*
X6700000Y-1500000D01*
X6700000Y-300000D01*
X7000000Y-300000D01*
X7000000Y-1500000D01*
G37*
G36*
X7000000Y-2100000D02*
G01*
X6700000Y-2100000D01*
X6700000Y-1800000D01*
X7000000Y-1800000D01*
X7000000Y-2100000D01*
G37*
G36*
X7000000Y-3300000D02*
G01*
X6700000Y-3300000D01*
X6700000Y-3000000D01*
X7000000Y-3000000D01*
X7000000Y-3300000D01*
G37*
G36*
X7000000Y-3900000D02*
G01*
X6700000Y-3900000D01*
X6700000Y-3600000D01*
X7000000Y-3600000D01*
X7000000Y-3900000D01*
G37*
G36*
X7000000Y-4500000D02*
G01*
X6700000Y-4500000D01*
X6700000Y-4200000D01*
X7000000Y-4200000D01*
X7000000Y-4500000D01*
G37*
G36*
X7000000Y-5400000D02*
G01*
X6700000Y-5400000D01*
X6700000Y-5100000D01*
X7000000Y-5100000D01*
X7000000Y-5400000D01*
G37*
G36*
X7000000Y-5700000D02*
G01*
X6700000Y-5700000D01*
X6700000Y-5400000D01*
X7000000Y-5400000D01*
X7000000Y-5700000D01*
G37*
G36*
X7000000Y-6000000D02*
G01*
X6700000Y-6000000D01*
X6700000Y-5700000D01*
X7000000Y-5700000D01*
X7000000Y-6000000D01*
G37*
G36*
X7000000Y-6600000D02*
G01*
X6700000Y-6600000D01*
X6700000Y-6300000D01*
X7000000Y-6300000D01*
X7000000Y-6600000D01*
G37*
G36*
X7000000Y-7200000D02*
G01*
X6700000Y-7200000D01*
X6700000Y-6900000D01*
X7000000Y-6900000D01*
X7000000Y-7200000D01*
G37*
G36*
X7000000Y-7500000D02*
G01*
X6700000Y-7500000D01*
X6700000Y-7200000D01*
X7000000Y-7200000D01*
X7000000Y-7500000D01*
G37*
G36*
X7000000Y-8100000D02*
G01*
X6700000Y-8100000D01*
X6700000Y-7800000D01*
X7000000Y-7800000D01*
X7000000Y-8100000D01*
G37*
G36*
X7000000Y-9000000D02*
G01*
X6700000Y-9000000D01*
X6700000Y-8700000D01*
X7000000Y-8700000D01*
X7000000Y-9000000D01*
G37*
G36*
X7000000Y-9300000D02*
G01*
X6700000Y-9300000D01*
X6700000Y-9000000D01*
X7000000Y-9000000D01*
X7000000Y-9300000D01*
G37*
G36*
X7000000Y-9600000D02*
G01*
X6700000Y-9600000D01*
X6700000Y-9300000D01*
X7000000Y-9300000D01*
X7000000Y-9600000D01*
G37*
G36*
X7000000Y-13800000D02*
G01*
X6700000Y-13800000D01*
X6700000Y-12600000D01*
X7000000Y-12600000D01*
X7000000Y-13800000D01*
G37*
G36*
X7300000Y-1500000D02*
G01*
X7000000Y-1500000D01*
X7000000Y-300000D01*
X7300000Y-300000D01*
X7300000Y-1500000D01*
G37*
G36*
X7300000Y-2100000D02*
G01*
X7000000Y-2100000D01*
X7000000Y-1800000D01*
X7300000Y-1800000D01*
X7300000Y-2100000D01*
G37*
G36*
X7300000Y-2400000D02*
G01*
X7000000Y-2400000D01*
X7000000Y-2100000D01*
X7300000Y-2100000D01*
X7300000Y-2400000D01*
G37*
G36*
X7300000Y-2700000D02*
G01*
X7000000Y-2700000D01*
X7000000Y-2400000D01*
X7300000Y-2400000D01*
X7300000Y-2700000D01*
G37*
G36*
X7300000Y-3000000D02*
G01*
X7000000Y-3000000D01*
X7000000Y-2700000D01*
X7300000Y-2700000D01*
X7300000Y-3000000D01*
G37*
G36*
X7300000Y-3300000D02*
G01*
X7000000Y-3300000D01*
X7000000Y-3000000D01*
X7300000Y-3000000D01*
X7300000Y-3300000D01*
G37*
G36*
X7300000Y-3900000D02*
G01*
X7000000Y-3900000D01*
X7000000Y-3600000D01*
X7300000Y-3600000D01*
X7300000Y-3900000D01*
G37*
G36*
X7300000Y-4500000D02*
G01*
X7000000Y-4500000D01*
X7000000Y-4200000D01*
X7300000Y-4200000D01*
X7300000Y-4500000D01*
G37*
G36*
X7300000Y-4800000D02*
G01*
X7000000Y-4800000D01*
X7000000Y-4500000D01*
X7300000Y-4500000D01*
X7300000Y-4800000D01*
G37*
G36*
X7300000Y-5400000D02*
G01*
X7000000Y-5400000D01*
X7000000Y-5100000D01*
X7300000Y-5100000D01*
X7300000Y-5400000D01*
G37*
G36*
X7300000Y-7200000D02*
G01*
X7000000Y-7200000D01*
X7000000Y-6900000D01*
X7300000Y-6900000D01*
X7300000Y-7200000D01*
G37*
G36*
X7300000Y-7500000D02*
G01*
X7000000Y-7500000D01*
X7000000Y-7200000D01*
X7300000Y-7200000D01*
X7300000Y-7500000D01*
G37*
G36*
X7300000Y-8100000D02*
G01*
X7000000Y-8100000D01*
X7000000Y-7800000D01*
X7300000Y-7800000D01*
X7300000Y-8100000D01*
G37*
G36*
X7300000Y-8700000D02*
G01*
X7000000Y-8700000D01*
X7000000Y-8400000D01*
X7300000Y-8400000D01*
X7300000Y-8700000D01*
G37*
G36*
X7300000Y-9000000D02*
G01*
X7000000Y-9000000D01*
X7000000Y-8700000D01*
X7300000Y-8700000D01*
X7300000Y-9000000D01*
G37*
G36*
X7300000Y-9900000D02*
G01*
X7000000Y-9900000D01*
X7000000Y-9600000D01*
X7300000Y-9600000D01*
X7300000Y-9900000D01*
G37*
G36*
X7300000Y-10500000D02*
G01*
X7000000Y-10500000D01*
X7000000Y-10200000D01*
X7300000Y-10200000D01*
X7300000Y-10500000D01*
G37*
G36*
X7300000Y-10800000D02*
G01*
X7000000Y-10800000D01*
X7000000Y-10500000D01*
X7300000Y-10500000D01*
X7300000Y-10800000D01*
G37*
G36*
X7300000Y-11100000D02*
G01*
X7000000Y-11100000D01*
X7000000Y-10800000D01*
X7300000Y-10800000D01*
X7300000Y-11100000D01*
G37*
G36*
X7300000Y-12000000D02*
G01*
X7000000Y-12000000D01*
X7000000Y-11700000D01*
X7300000Y-11700000D01*
X7300000Y-12000000D01*
G37*
G36*
X7300000Y-12300000D02*
G01*
X7000000Y-12300000D01*
X7000000Y-12000000D01*
X7300000Y-12000000D01*
X7300000Y-12300000D01*
G37*
G36*
X7300000Y-12600000D02*
G01*
X7000000Y-12600000D01*
X7000000Y-12300000D01*
X7300000Y-12300000D01*
X7300000Y-12600000D01*
G37*
G36*
X7300000Y-13800000D02*
G01*
X7000000Y-13800000D01*
X7000000Y-12600000D01*
X7300000Y-12600000D01*
X7300000Y-13800000D01*
G37*
G36*
X7600000Y-1500000D02*
G01*
X7300000Y-1500000D01*
X7300000Y-300000D01*
X7600000Y-300000D01*
X7600000Y-1500000D01*
G37*
G36*
X7600000Y-3900000D02*
G01*
X7300000Y-3900000D01*
X7300000Y-3600000D01*
X7600000Y-3600000D01*
X7600000Y-3900000D01*
G37*
G36*
X7600000Y-4200000D02*
G01*
X7300000Y-4200000D01*
X7300000Y-3900000D01*
X7600000Y-3900000D01*
X7600000Y-4200000D01*
G37*
G36*
X7600000Y-5100000D02*
G01*
X7300000Y-5100000D01*
X7300000Y-4800000D01*
X7600000Y-4800000D01*
X7600000Y-5100000D01*
G37*
G36*
X7600000Y-6000000D02*
G01*
X7300000Y-6000000D01*
X7300000Y-5700000D01*
X7600000Y-5700000D01*
X7600000Y-6000000D01*
G37*
G36*
X7600000Y-7500000D02*
G01*
X7300000Y-7500000D01*
X7300000Y-7200000D01*
X7600000Y-7200000D01*
X7600000Y-7500000D01*
G37*
G36*
X7600000Y-10500000D02*
G01*
X7300000Y-10500000D01*
X7300000Y-10200000D01*
X7600000Y-10200000D01*
X7600000Y-10500000D01*
G37*
G36*
X7600000Y-11100000D02*
G01*
X7300000Y-11100000D01*
X7300000Y-10800000D01*
X7600000Y-10800000D01*
X7600000Y-11100000D01*
G37*
G36*
X7600000Y-11700000D02*
G01*
X7300000Y-11700000D01*
X7300000Y-11400000D01*
X7600000Y-11400000D01*
X7600000Y-11700000D01*
G37*
G36*
X7600000Y-12000000D02*
G01*
X7300000Y-12000000D01*
X7300000Y-11700000D01*
X7600000Y-11700000D01*
X7600000Y-12000000D01*
G37*
G36*
X7600000Y-12300000D02*
G01*
X7300000Y-12300000D01*
X7300000Y-12000000D01*
X7600000Y-12000000D01*
X7600000Y-12300000D01*
G37*
G36*
X7600000Y-12600000D02*
G01*
X7300000Y-12600000D01*
X7300000Y-12300000D01*
X7600000Y-12300000D01*
X7600000Y-12600000D01*
G37*
G36*
X7600000Y-13800000D02*
G01*
X7300000Y-13800000D01*
X7300000Y-12600000D01*
X7600000Y-12600000D01*
X7600000Y-13800000D01*
G37*
G36*
X7900000Y-1500000D02*
G01*
X7600000Y-1500000D01*
X7600000Y-300000D01*
X7900000Y-300000D01*
X7900000Y-1500000D01*
G37*
G36*
X7900000Y-1800000D02*
G01*
X7600000Y-1800000D01*
X7600000Y-1500000D01*
X7900000Y-1500000D01*
X7900000Y-1800000D01*
G37*
G36*
X7900000Y-2100000D02*
G01*
X7600000Y-2100000D01*
X7600000Y-1800000D01*
X7900000Y-1800000D01*
X7900000Y-2100000D01*
G37*
G36*
X7900000Y-2400000D02*
G01*
X7600000Y-2400000D01*
X7600000Y-2100000D01*
X7900000Y-2100000D01*
X7900000Y-2400000D01*
G37*
G36*
X7900000Y-2700000D02*
G01*
X7600000Y-2700000D01*
X7600000Y-2400000D01*
X7900000Y-2400000D01*
X7900000Y-2700000D01*
G37*
G36*
X7900000Y-3000000D02*
G01*
X7600000Y-3000000D01*
X7600000Y-2700000D01*
X7900000Y-2700000D01*
X7900000Y-3000000D01*
G37*
G36*
X7900000Y-3300000D02*
G01*
X7600000Y-3300000D01*
X7600000Y-3000000D01*
X7900000Y-3000000D01*
X7900000Y-3300000D01*
G37*
G36*
X7900000Y-3600000D02*
G01*
X7600000Y-3600000D01*
X7600000Y-3300000D01*
X7900000Y-3300000D01*
X7900000Y-3600000D01*
G37*
G36*
X7900000Y-3900000D02*
G01*
X7600000Y-3900000D01*
X7600000Y-3600000D01*
X7900000Y-3600000D01*
X7900000Y-3900000D01*
G37*
G36*
X7900000Y-4200000D02*
G01*
X7600000Y-4200000D01*
X7600000Y-3900000D01*
X7900000Y-3900000D01*
X7900000Y-4200000D01*
G37*
G36*
X7900000Y-4800000D02*
G01*
X7600000Y-4800000D01*
X7600000Y-4500000D01*
X7900000Y-4500000D01*
X7900000Y-4800000D01*
G37*
G36*
X7900000Y-5100000D02*
G01*
X7600000Y-5100000D01*
X7600000Y-4800000D01*
X7900000Y-4800000D01*
X7900000Y-5100000D01*
G37*
G36*
X7900000Y-5700000D02*
G01*
X7600000Y-5700000D01*
X7600000Y-5400000D01*
X7900000Y-5400000D01*
X7900000Y-5700000D01*
G37*
G36*
X7900000Y-6000000D02*
G01*
X7600000Y-6000000D01*
X7600000Y-5700000D01*
X7900000Y-5700000D01*
X7900000Y-6000000D01*
G37*
G36*
X7900000Y-6900000D02*
G01*
X7600000Y-6900000D01*
X7600000Y-6600000D01*
X7900000Y-6600000D01*
X7900000Y-6900000D01*
G37*
G36*
X7900000Y-7800000D02*
G01*
X7600000Y-7800000D01*
X7600000Y-7500000D01*
X7900000Y-7500000D01*
X7900000Y-7800000D01*
G37*
G36*
X7900000Y-8100000D02*
G01*
X7600000Y-8100000D01*
X7600000Y-7800000D01*
X7900000Y-7800000D01*
X7900000Y-8100000D01*
G37*
G36*
X7900000Y-9900000D02*
G01*
X7600000Y-9900000D01*
X7600000Y-9600000D01*
X7900000Y-9600000D01*
X7900000Y-9900000D01*
G37*
G36*
X7900000Y-10500000D02*
G01*
X7600000Y-10500000D01*
X7600000Y-10200000D01*
X7900000Y-10200000D01*
X7900000Y-10500000D01*
G37*
G36*
X7900000Y-10800000D02*
G01*
X7600000Y-10800000D01*
X7600000Y-10500000D01*
X7900000Y-10500000D01*
X7900000Y-10800000D01*
G37*
G36*
X7900000Y-11100000D02*
G01*
X7600000Y-11100000D01*
X7600000Y-10800000D01*
X7900000Y-10800000D01*
X7900000Y-11100000D01*
G37*
G36*
X7900000Y-12300000D02*
G01*
X7600000Y-12300000D01*
X7600000Y-12000000D01*
X7900000Y-12000000D01*
X7900000Y-12300000D01*
G37*
G36*
X7900000Y-13800000D02*
G01*
X7600000Y-13800000D01*
X7600000Y-12600000D01*
X7900000Y-12600000D01*
X7900000Y-13800000D01*
G37*
G36*
X8200000Y-1500000D02*
G01*
X7900000Y-1500000D01*
X7900000Y-300000D01*
X8200000Y-300000D01*
X8200000Y-1500000D01*
G37*
G36*
X8200000Y-2100000D02*
G01*
X7900000Y-2100000D01*
X7900000Y-1800000D01*
X8200000Y-1800000D01*
X8200000Y-2100000D01*
G37*
G36*
X8200000Y-2400000D02*
G01*
X7900000Y-2400000D01*
X7900000Y-2100000D01*
X8200000Y-2100000D01*
X8200000Y-2400000D01*
G37*
G36*
X8200000Y-2700000D02*
G01*
X7900000Y-2700000D01*
X7900000Y-2400000D01*
X8200000Y-2400000D01*
X8200000Y-2700000D01*
G37*
G36*
X8200000Y-3000000D02*
G01*
X7900000Y-3000000D01*
X7900000Y-2700000D01*
X8200000Y-2700000D01*
X8200000Y-3000000D01*
G37*
G36*
X8200000Y-3900000D02*
G01*
X7900000Y-3900000D01*
X7900000Y-3600000D01*
X8200000Y-3600000D01*
X8200000Y-3900000D01*
G37*
G36*
X8200000Y-4200000D02*
G01*
X7900000Y-4200000D01*
X7900000Y-3900000D01*
X8200000Y-3900000D01*
X8200000Y-4200000D01*
G37*
G36*
X8200000Y-4800000D02*
G01*
X7900000Y-4800000D01*
X7900000Y-4500000D01*
X8200000Y-4500000D01*
X8200000Y-4800000D01*
G37*
G36*
X8200000Y-5400000D02*
G01*
X7900000Y-5400000D01*
X7900000Y-5100000D01*
X8200000Y-5100000D01*
X8200000Y-5400000D01*
G37*
G36*
X8200000Y-5700000D02*
G01*
X7900000Y-5700000D01*
X7900000Y-5400000D01*
X8200000Y-5400000D01*
X8200000Y-5700000D01*
G37*
G36*
X8200000Y-6300000D02*
G01*
X7900000Y-6300000D01*
X7900000Y-6000000D01*
X8200000Y-6000000D01*
X8200000Y-6300000D01*
G37*
G36*
X8200000Y-6600000D02*
G01*
X7900000Y-6600000D01*
X7900000Y-6300000D01*
X8200000Y-6300000D01*
X8200000Y-6600000D01*
G37*
G36*
X8200000Y-7200000D02*
G01*
X7900000Y-7200000D01*
X7900000Y-6900000D01*
X8200000Y-6900000D01*
X8200000Y-7200000D01*
G37*
G36*
X8200000Y-7500000D02*
G01*
X7900000Y-7500000D01*
X7900000Y-7200000D01*
X8200000Y-7200000D01*
X8200000Y-7500000D01*
G37*
G36*
X8200000Y-8100000D02*
G01*
X7900000Y-8100000D01*
X7900000Y-7800000D01*
X8200000Y-7800000D01*
X8200000Y-8100000D01*
G37*
G36*
X8200000Y-8400000D02*
G01*
X7900000Y-8400000D01*
X7900000Y-8100000D01*
X8200000Y-8100000D01*
X8200000Y-8400000D01*
G37*
G36*
X8200000Y-8700000D02*
G01*
X7900000Y-8700000D01*
X7900000Y-8400000D01*
X8200000Y-8400000D01*
X8200000Y-8700000D01*
G37*
G36*
X8200000Y-9300000D02*
G01*
X7900000Y-9300000D01*
X7900000Y-9000000D01*
X8200000Y-9000000D01*
X8200000Y-9300000D01*
G37*
G36*
X8200000Y-9600000D02*
G01*
X7900000Y-9600000D01*
X7900000Y-9300000D01*
X8200000Y-9300000D01*
X8200000Y-9600000D01*
G37*
G36*
X8200000Y-12000000D02*
G01*
X7900000Y-12000000D01*
X7900000Y-11700000D01*
X8200000Y-11700000D01*
X8200000Y-12000000D01*
G37*
G36*
X8200000Y-13800000D02*
G01*
X7900000Y-13800000D01*
X7900000Y-12600000D01*
X8200000Y-12600000D01*
X8200000Y-13800000D01*
G37*
G36*
X8500000Y-1500000D02*
G01*
X8200000Y-1500000D01*
X8200000Y-300000D01*
X8500000Y-300000D01*
X8500000Y-1500000D01*
G37*
G36*
X8500000Y-2400000D02*
G01*
X8200000Y-2400000D01*
X8200000Y-2100000D01*
X8500000Y-2100000D01*
X8500000Y-2400000D01*
G37*
G36*
X8500000Y-2700000D02*
G01*
X8200000Y-2700000D01*
X8200000Y-2400000D01*
X8500000Y-2400000D01*
X8500000Y-2700000D01*
G37*
G36*
X8500000Y-3600000D02*
G01*
X8200000Y-3600000D01*
X8200000Y-3300000D01*
X8500000Y-3300000D01*
X8500000Y-3600000D01*
G37*
G36*
X8500000Y-3900000D02*
G01*
X8200000Y-3900000D01*
X8200000Y-3600000D01*
X8500000Y-3600000D01*
X8500000Y-3900000D01*
G37*
G36*
X8500000Y-4500000D02*
G01*
X8200000Y-4500000D01*
X8200000Y-4200000D01*
X8500000Y-4200000D01*
X8500000Y-4500000D01*
G37*
G36*
X8500000Y-4800000D02*
G01*
X8200000Y-4800000D01*
X8200000Y-4500000D01*
X8500000Y-4500000D01*
X8500000Y-4800000D01*
G37*
G36*
X8500000Y-5100000D02*
G01*
X8200000Y-5100000D01*
X8200000Y-4800000D01*
X8500000Y-4800000D01*
X8500000Y-5100000D01*
G37*
G36*
X8500000Y-5700000D02*
G01*
X8200000Y-5700000D01*
X8200000Y-5400000D01*
X8500000Y-5400000D01*
X8500000Y-5700000D01*
G37*
G36*
X8500000Y-6000000D02*
G01*
X8200000Y-6000000D01*
X8200000Y-5700000D01*
X8500000Y-5700000D01*
X8500000Y-6000000D01*
G37*
G36*
X8500000Y-6300000D02*
G01*
X8200000Y-6300000D01*
X8200000Y-6000000D01*
X8500000Y-6000000D01*
X8500000Y-6300000D01*
G37*
G36*
X8500000Y-6900000D02*
G01*
X8200000Y-6900000D01*
X8200000Y-6600000D01*
X8500000Y-6600000D01*
X8500000Y-6900000D01*
G37*
G36*
X8500000Y-7200000D02*
G01*
X8200000Y-7200000D01*
X8200000Y-6900000D01*
X8500000Y-6900000D01*
X8500000Y-7200000D01*
G37*
G36*
X8500000Y-7500000D02*
G01*
X8200000Y-7500000D01*
X8200000Y-7200000D01*
X8500000Y-7200000D01*
X8500000Y-7500000D01*
G37*
G36*
X8500000Y-8100000D02*
G01*
X8200000Y-8100000D01*
X8200000Y-7800000D01*
X8500000Y-7800000D01*
X8500000Y-8100000D01*
G37*
G36*
X8500000Y-8400000D02*
G01*
X8200000Y-8400000D01*
X8200000Y-8100000D01*
X8500000Y-8100000D01*
X8500000Y-8400000D01*
G37*
G36*
X8500000Y-8700000D02*
G01*
X8200000Y-8700000D01*
X8200000Y-8400000D01*
X8500000Y-8400000D01*
X8500000Y-8700000D01*
G37*
G36*
X8500000Y-9300000D02*
G01*
X8200000Y-9300000D01*
X8200000Y-9000000D01*
X8500000Y-9000000D01*
X8500000Y-9300000D01*
G37*
G36*
X8500000Y-9600000D02*
G01*
X8200000Y-9600000D01*
X8200000Y-9300000D01*
X8500000Y-9300000D01*
X8500000Y-9600000D01*
G37*
G36*
X8500000Y-10200000D02*
G01*
X8200000Y-10200000D01*
X8200000Y-9900000D01*
X8500000Y-9900000D01*
X8500000Y-10200000D01*
G37*
G36*
X8500000Y-11100000D02*
G01*
X8200000Y-11100000D01*
X8200000Y-10800000D01*
X8500000Y-10800000D01*
X8500000Y-11100000D01*
G37*
G36*
X8500000Y-11400000D02*
G01*
X8200000Y-11400000D01*
X8200000Y-11100000D01*
X8500000Y-11100000D01*
X8500000Y-11400000D01*
G37*
G36*
X8500000Y-12000000D02*
G01*
X8200000Y-12000000D01*
X8200000Y-11700000D01*
X8500000Y-11700000D01*
X8500000Y-12000000D01*
G37*
G36*
X8500000Y-13800000D02*
G01*
X8200000Y-13800000D01*
X8200000Y-12600000D01*
X8500000Y-12600000D01*
X8500000Y-13800000D01*
G37*
G36*
X8800000Y-1500000D02*
G01*
X8500000Y-1500000D01*
X8500000Y-300000D01*
X8800000Y-300000D01*
X8800000Y-1500000D01*
G37*
G36*
X8800000Y-2700000D02*
G01*
X8500000Y-2700000D01*
X8500000Y-2400000D01*
X8800000Y-2400000D01*
X8800000Y-2700000D01*
G37*
G36*
X8800000Y-3000000D02*
G01*
X8500000Y-3000000D01*
X8500000Y-2700000D01*
X8800000Y-2700000D01*
X8800000Y-3000000D01*
G37*
G36*
X8800000Y-3300000D02*
G01*
X8500000Y-3300000D01*
X8500000Y-3000000D01*
X8800000Y-3000000D01*
X8800000Y-3300000D01*
G37*
G36*
X8800000Y-3900000D02*
G01*
X8500000Y-3900000D01*
X8500000Y-3600000D01*
X8800000Y-3600000D01*
X8800000Y-3900000D01*
G37*
G36*
X8800000Y-4200000D02*
G01*
X8500000Y-4200000D01*
X8500000Y-3900000D01*
X8800000Y-3900000D01*
X8800000Y-4200000D01*
G37*
G36*
X8800000Y-4500000D02*
G01*
X8500000Y-4500000D01*
X8500000Y-4200000D01*
X8800000Y-4200000D01*
X8800000Y-4500000D01*
G37*
G36*
X8800000Y-4800000D02*
G01*
X8500000Y-4800000D01*
X8500000Y-4500000D01*
X8800000Y-4500000D01*
X8800000Y-4800000D01*
G37*
G36*
X8800000Y-5100000D02*
G01*
X8500000Y-5100000D01*
X8500000Y-4800000D01*
X8800000Y-4800000D01*
X8800000Y-5100000D01*
G37*
G36*
X8800000Y-5400000D02*
G01*
X8500000Y-5400000D01*
X8500000Y-5100000D01*
X8800000Y-5100000D01*
X8800000Y-5400000D01*
G37*
G36*
X8800000Y-5700000D02*
G01*
X8500000Y-5700000D01*
X8500000Y-5400000D01*
X8800000Y-5400000D01*
X8800000Y-5700000D01*
G37*
G36*
X8800000Y-6600000D02*
G01*
X8500000Y-6600000D01*
X8500000Y-6300000D01*
X8800000Y-6300000D01*
X8800000Y-6600000D01*
G37*
G36*
X8800000Y-6900000D02*
G01*
X8500000Y-6900000D01*
X8500000Y-6600000D01*
X8800000Y-6600000D01*
X8800000Y-6900000D01*
G37*
G36*
X8800000Y-8100000D02*
G01*
X8500000Y-8100000D01*
X8500000Y-7800000D01*
X8800000Y-7800000D01*
X8800000Y-8100000D01*
G37*
G36*
X8800000Y-9300000D02*
G01*
X8500000Y-9300000D01*
X8500000Y-9000000D01*
X8800000Y-9000000D01*
X8800000Y-9300000D01*
G37*
G36*
X8800000Y-10200000D02*
G01*
X8500000Y-10200000D01*
X8500000Y-9900000D01*
X8800000Y-9900000D01*
X8800000Y-10200000D01*
G37*
G36*
X8800000Y-10800000D02*
G01*
X8500000Y-10800000D01*
X8500000Y-10500000D01*
X8800000Y-10500000D01*
X8800000Y-10800000D01*
G37*
G36*
X8800000Y-11700000D02*
G01*
X8500000Y-11700000D01*
X8500000Y-11400000D01*
X8800000Y-11400000D01*
X8800000Y-11700000D01*
G37*
G36*
X8800000Y-12300000D02*
G01*
X8500000Y-12300000D01*
X8500000Y-12000000D01*
X8800000Y-12000000D01*
X8800000Y-12300000D01*
G37*
G36*
X8800000Y-13800000D02*
G01*
X8500000Y-13800000D01*
X8500000Y-12600000D01*
X8800000Y-12600000D01*
X8800000Y-13800000D01*
G37*
G36*
X9100000Y-1500000D02*
G01*
X8800000Y-1500000D01*
X8800000Y-300000D01*
X9100000Y-300000D01*
X9100000Y-1500000D01*
G37*
G36*
X9100000Y-1800000D02*
G01*
X8800000Y-1800000D01*
X8800000Y-1500000D01*
X9100000Y-1500000D01*
X9100000Y-1800000D01*
G37*
G36*
X9100000Y-2100000D02*
G01*
X8800000Y-2100000D01*
X8800000Y-1800000D01*
X9100000Y-1800000D01*
X9100000Y-2100000D01*
G37*
G36*
X9100000Y-2400000D02*
G01*
X8800000Y-2400000D01*
X8800000Y-2100000D01*
X9100000Y-2100000D01*
X9100000Y-2400000D01*
G37*
G36*
X9100000Y-2700000D02*
G01*
X8800000Y-2700000D01*
X8800000Y-2400000D01*
X9100000Y-2400000D01*
X9100000Y-2700000D01*
G37*
G36*
X9100000Y-3600000D02*
G01*
X8800000Y-3600000D01*
X8800000Y-3300000D01*
X9100000Y-3300000D01*
X9100000Y-3600000D01*
G37*
G36*
X9100000Y-3900000D02*
G01*
X8800000Y-3900000D01*
X8800000Y-3600000D01*
X9100000Y-3600000D01*
X9100000Y-3900000D01*
G37*
G36*
X9100000Y-4200000D02*
G01*
X8800000Y-4200000D01*
X8800000Y-3900000D01*
X9100000Y-3900000D01*
X9100000Y-4200000D01*
G37*
G36*
X9100000Y-4500000D02*
G01*
X8800000Y-4500000D01*
X8800000Y-4200000D01*
X9100000Y-4200000D01*
X9100000Y-4500000D01*
G37*
G36*
X9100000Y-4800000D02*
G01*
X8800000Y-4800000D01*
X8800000Y-4500000D01*
X9100000Y-4500000D01*
X9100000Y-4800000D01*
G37*
G36*
X9100000Y-6600000D02*
G01*
X8800000Y-6600000D01*
X8800000Y-6300000D01*
X9100000Y-6300000D01*
X9100000Y-6600000D01*
G37*
G36*
X9100000Y-7500000D02*
G01*
X8800000Y-7500000D01*
X8800000Y-7200000D01*
X9100000Y-7200000D01*
X9100000Y-7500000D01*
G37*
G36*
X9100000Y-9000000D02*
G01*
X8800000Y-9000000D01*
X8800000Y-8700000D01*
X9100000Y-8700000D01*
X9100000Y-9000000D01*
G37*
G36*
X9100000Y-9300000D02*
G01*
X8800000Y-9300000D01*
X8800000Y-9000000D01*
X9100000Y-9000000D01*
X9100000Y-9300000D01*
G37*
G36*
X9100000Y-10200000D02*
G01*
X8800000Y-10200000D01*
X8800000Y-9900000D01*
X9100000Y-9900000D01*
X9100000Y-10200000D01*
G37*
G36*
X9100000Y-10800000D02*
G01*
X8800000Y-10800000D01*
X8800000Y-10500000D01*
X9100000Y-10500000D01*
X9100000Y-10800000D01*
G37*
G36*
X9100000Y-11100000D02*
G01*
X8800000Y-11100000D01*
X8800000Y-10800000D01*
X9100000Y-10800000D01*
X9100000Y-11100000D01*
G37*
G36*
X9100000Y-11700000D02*
G01*
X8800000Y-11700000D01*
X8800000Y-11400000D01*
X9100000Y-11400000D01*
X9100000Y-11700000D01*
G37*
G36*
X9100000Y-13800000D02*
G01*
X8800000Y-13800000D01*
X8800000Y-12600000D01*
X9100000Y-12600000D01*
X9100000Y-13800000D01*
G37*
G36*
X9400000Y-1500000D02*
G01*
X9100000Y-1500000D01*
X9100000Y-300000D01*
X9400000Y-300000D01*
X9400000Y-1500000D01*
G37*
G36*
X9400000Y-1800000D02*
G01*
X9100000Y-1800000D01*
X9100000Y-1500000D01*
X9400000Y-1500000D01*
X9400000Y-1800000D01*
G37*
G36*
X9400000Y-2100000D02*
G01*
X9100000Y-2100000D01*
X9100000Y-1800000D01*
X9400000Y-1800000D01*
X9400000Y-2100000D01*
G37*
G36*
X9400000Y-3300000D02*
G01*
X9100000Y-3300000D01*
X9100000Y-3000000D01*
X9400000Y-3000000D01*
X9400000Y-3300000D01*
G37*
G36*
X9400000Y-4800000D02*
G01*
X9100000Y-4800000D01*
X9100000Y-4500000D01*
X9400000Y-4500000D01*
X9400000Y-4800000D01*
G37*
G36*
X9400000Y-5100000D02*
G01*
X9100000Y-5100000D01*
X9100000Y-4800000D01*
X9400000Y-4800000D01*
X9400000Y-5100000D01*
G37*
G36*
X9400000Y-5400000D02*
G01*
X9100000Y-5400000D01*
X9100000Y-5100000D01*
X9400000Y-5100000D01*
X9400000Y-5400000D01*
G37*
G36*
X9400000Y-5700000D02*
G01*
X9100000Y-5700000D01*
X9100000Y-5400000D01*
X9400000Y-5400000D01*
X9400000Y-5700000D01*
G37*
G36*
X9400000Y-6000000D02*
G01*
X9100000Y-6000000D01*
X9100000Y-5700000D01*
X9400000Y-5700000D01*
X9400000Y-6000000D01*
G37*
G36*
X9400000Y-6900000D02*
G01*
X9100000Y-6900000D01*
X9100000Y-6600000D01*
X9400000Y-6600000D01*
X9400000Y-6900000D01*
G37*
G36*
X9400000Y-7200000D02*
G01*
X9100000Y-7200000D01*
X9100000Y-6900000D01*
X9400000Y-6900000D01*
X9400000Y-7200000D01*
G37*
G36*
X9400000Y-7800000D02*
G01*
X9100000Y-7800000D01*
X9100000Y-7500000D01*
X9400000Y-7500000D01*
X9400000Y-7800000D01*
G37*
G36*
X9400000Y-9000000D02*
G01*
X9100000Y-9000000D01*
X9100000Y-8700000D01*
X9400000Y-8700000D01*
X9400000Y-9000000D01*
G37*
G36*
X9400000Y-9300000D02*
G01*
X9100000Y-9300000D01*
X9100000Y-9000000D01*
X9400000Y-9000000D01*
X9400000Y-9300000D01*
G37*
G36*
X9400000Y-9600000D02*
G01*
X9100000Y-9600000D01*
X9100000Y-9300000D01*
X9400000Y-9300000D01*
X9400000Y-9600000D01*
G37*
G36*
X9400000Y-9900000D02*
G01*
X9100000Y-9900000D01*
X9100000Y-9600000D01*
X9400000Y-9600000D01*
X9400000Y-9900000D01*
G37*
G36*
X9400000Y-10800000D02*
G01*
X9100000Y-10800000D01*
X9100000Y-10500000D01*
X9400000Y-10500000D01*
X9400000Y-10800000D01*
G37*
G36*
X9400000Y-13800000D02*
G01*
X9100000Y-13800000D01*
X9100000Y-12600000D01*
X9400000Y-12600000D01*
X9400000Y-13800000D01*
G37*
G36*
X9700000Y-1500000D02*
G01*
X9400000Y-1500000D01*
X9400000Y-300000D01*
X9700000Y-300000D01*
X9700000Y-1500000D01*
G37*
G36*
X9700000Y-1800000D02*
G01*
X9400000Y-1800000D01*
X9400000Y-1500000D01*
X9700000Y-1500000D01*
X9700000Y-1800000D01*
G37*
G36*
X9700000Y-2100000D02*
G01*
X9400000Y-2100000D01*
X9400000Y-1800000D01*
X9700000Y-1800000D01*
X9700000Y-2100000D01*
G37*
G36*
X9700000Y-2400000D02*
G01*
X9400000Y-2400000D01*
X9400000Y-2100000D01*
X9700000Y-2100000D01*
X9700000Y-2400000D01*
G37*
G36*
X9700000Y-3000000D02*
G01*
X9400000Y-3000000D01*
X9400000Y-2700000D01*
X9700000Y-2700000D01*
X9700000Y-3000000D01*
G37*
G36*
X9700000Y-3600000D02*
G01*
X9400000Y-3600000D01*
X9400000Y-3300000D01*
X9700000Y-3300000D01*
X9700000Y-3600000D01*
G37*
G36*
X9700000Y-4800000D02*
G01*
X9400000Y-4800000D01*
X9400000Y-4500000D01*
X9700000Y-4500000D01*
X9700000Y-4800000D01*
G37*
G36*
X9700000Y-5400000D02*
G01*
X9400000Y-5400000D01*
X9400000Y-5100000D01*
X9700000Y-5100000D01*
X9700000Y-5400000D01*
G37*
G36*
X9700000Y-6000000D02*
G01*
X9400000Y-6000000D01*
X9400000Y-5700000D01*
X9700000Y-5700000D01*
X9700000Y-6000000D01*
G37*
G36*
X9700000Y-6900000D02*
G01*
X9400000Y-6900000D01*
X9400000Y-6600000D01*
X9700000Y-6600000D01*
X9700000Y-6900000D01*
G37*
G36*
X9700000Y-7500000D02*
G01*
X9400000Y-7500000D01*
X9400000Y-7200000D01*
X9700000Y-7200000D01*
X9700000Y-7500000D01*
G37*
G36*
X9700000Y-7800000D02*
G01*
X9400000Y-7800000D01*
X9400000Y-7500000D01*
X9700000Y-7500000D01*
X9700000Y-7800000D01*
G37*
G36*
X9700000Y-8100000D02*
G01*
X9400000Y-8100000D01*
X9400000Y-7800000D01*
X9700000Y-7800000D01*
X9700000Y-8100000D01*
G37*
G36*
X9700000Y-8400000D02*
G01*
X9400000Y-8400000D01*
X9400000Y-8100000D01*
X9700000Y-8100000D01*
X9700000Y-8400000D01*
G37*
G36*
X9700000Y-8700000D02*
G01*
X9400000Y-8700000D01*
X9400000Y-8400000D01*
X9700000Y-8400000D01*
X9700000Y-8700000D01*
G37*
G36*
X9700000Y-10200000D02*
G01*
X9400000Y-10200000D01*
X9400000Y-9900000D01*
X9700000Y-9900000D01*
X9700000Y-10200000D01*
G37*
G36*
X9700000Y-10800000D02*
G01*
X9400000Y-10800000D01*
X9400000Y-10500000D01*
X9700000Y-10500000D01*
X9700000Y-10800000D01*
G37*
G36*
X9700000Y-11100000D02*
G01*
X9400000Y-11100000D01*
X9400000Y-10800000D01*
X9700000Y-10800000D01*
X9700000Y-11100000D01*
G37*
G36*
X9700000Y-11400000D02*
G01*
X9400000Y-11400000D01*
X9400000Y-11100000D01*
X9700000Y-11100000D01*
X9700000Y-11400000D01*
G37*
G36*
X9700000Y-13800000D02*
G01*
X9400000Y-13800000D01*
X9400000Y-12600000D01*
X9700000Y-12600000D01*
X9700000Y-13800000D01*
G37*
G36*
X10000000Y-1500000D02*
G01*
X9700000Y-1500000D01*
X9700000Y-300000D01*
X10000000Y-300000D01*
X10000000Y-1500000D01*
G37*
G36*
X10000000Y-2100000D02*
G01*
X9700000Y-2100000D01*
X9700000Y-1800000D01*
X10000000Y-1800000D01*
X10000000Y-2100000D01*
G37*
G36*
X10000000Y-2400000D02*
G01*
X9700000Y-2400000D01*
X9700000Y-2100000D01*
X10000000Y-2100000D01*
X10000000Y-2400000D01*
G37*
G36*
X10000000Y-2700000D02*
G01*
X9700000Y-2700000D01*
X9700000Y-2400000D01*
X10000000Y-2400000D01*
X10000000Y-2700000D01*
G37*
G36*
X10000000Y-3000000D02*
G01*
X9700000Y-3000000D01*
X9700000Y-2700000D01*
X10000000Y-2700000D01*
X10000000Y-3000000D01*
G37*
G36*
X10000000Y-3900000D02*
G01*
X9700000Y-3900000D01*
X9700000Y-3600000D01*
X10000000Y-3600000D01*
X10000000Y-3900000D01*
G37*
G36*
X10000000Y-4500000D02*
G01*
X9700000Y-4500000D01*
X9700000Y-4200000D01*
X10000000Y-4200000D01*
X10000000Y-4500000D01*
G37*
G36*
X10000000Y-5100000D02*
G01*
X9700000Y-5100000D01*
X9700000Y-4800000D01*
X10000000Y-4800000D01*
X10000000Y-5100000D01*
G37*
G36*
X10000000Y-5400000D02*
G01*
X9700000Y-5400000D01*
X9700000Y-5100000D01*
X10000000Y-5100000D01*
X10000000Y-5400000D01*
G37*
G36*
X10000000Y-6000000D02*
G01*
X9700000Y-6000000D01*
X9700000Y-5700000D01*
X10000000Y-5700000D01*
X10000000Y-6000000D01*
G37*
G36*
X10000000Y-6300000D02*
G01*
X9700000Y-6300000D01*
X9700000Y-6000000D01*
X10000000Y-6000000D01*
X10000000Y-6300000D01*
G37*
G36*
X10000000Y-6600000D02*
G01*
X9700000Y-6600000D01*
X9700000Y-6300000D01*
X10000000Y-6300000D01*
X10000000Y-6600000D01*
G37*
G36*
X10000000Y-8400000D02*
G01*
X9700000Y-8400000D01*
X9700000Y-8100000D01*
X10000000Y-8100000D01*
X10000000Y-8400000D01*
G37*
G36*
X10000000Y-8700000D02*
G01*
X9700000Y-8700000D01*
X9700000Y-8400000D01*
X10000000Y-8400000D01*
X10000000Y-8700000D01*
G37*
G36*
X10000000Y-9300000D02*
G01*
X9700000Y-9300000D01*
X9700000Y-9000000D01*
X10000000Y-9000000D01*
X10000000Y-9300000D01*
G37*
G36*
X10000000Y-9900000D02*
G01*
X9700000Y-9900000D01*
X9700000Y-9600000D01*
X10000000Y-9600000D01*
X10000000Y-9900000D01*
G37*
G36*
X10000000Y-10500000D02*
G01*
X9700000Y-10500000D01*
X9700000Y-10200000D01*
X10000000Y-10200000D01*
X10000000Y-10500000D01*
G37*
G36*
X10000000Y-10800000D02*
G01*
X9700000Y-10800000D01*
X9700000Y-10500000D01*
X10000000Y-10500000D01*
X10000000Y-10800000D01*
G37*
G36*
X10000000Y-11100000D02*
G01*
X9700000Y-11100000D01*
X9700000Y-10800000D01*
X10000000Y-10800000D01*
X10000000Y-11100000D01*
G37*
G36*
X10000000Y-11400000D02*
G01*
X9700000Y-11400000D01*
X9700000Y-11100000D01*
X10000000Y-11100000D01*
X10000000Y-11400000D01*
G37*
G36*
X10000000Y-12000000D02*
G01*
X9700000Y-12000000D01*
X9700000Y-11700000D01*
X10000000Y-11700000D01*
X10000000Y-12000000D01*
G37*
G36*
X10000000Y-12600000D02*
G01*
X9700000Y-12600000D01*
X9700000Y-12300000D01*
X10000000Y-12300000D01*
X10000000Y-12600000D01*
G37*
G36*
X10000000Y-13800000D02*
G01*
X9700000Y-13800000D01*
X9700000Y-12600000D01*
X10000000Y-12600000D01*
X10000000Y-13800000D01*
G37*
G36*
X10300000Y-1500000D02*
G01*
X10000000Y-1500000D01*
X10000000Y-300000D01*
X10300000Y-300000D01*
X10300000Y-1500000D01*
G37*
G36*
X10300000Y-2100000D02*
G01*
X10000000Y-2100000D01*
X10000000Y-1800000D01*
X10300000Y-1800000D01*
X10300000Y-2100000D01*
G37*
G36*
X10300000Y-2400000D02*
G01*
X10000000Y-2400000D01*
X10000000Y-2100000D01*
X10300000Y-2100000D01*
X10300000Y-2400000D01*
G37*
G36*
X10300000Y-3000000D02*
G01*
X10000000Y-3000000D01*
X10000000Y-2700000D01*
X10300000Y-2700000D01*
X10300000Y-3000000D01*
G37*
G36*
X10300000Y-3600000D02*
G01*
X10000000Y-3600000D01*
X10000000Y-3300000D01*
X10300000Y-3300000D01*
X10300000Y-3600000D01*
G37*
G36*
X10300000Y-3900000D02*
G01*
X10000000Y-3900000D01*
X10000000Y-3600000D01*
X10300000Y-3600000D01*
X10300000Y-3900000D01*
G37*
G36*
X10300000Y-4500000D02*
G01*
X10000000Y-4500000D01*
X10000000Y-4200000D01*
X10300000Y-4200000D01*
X10300000Y-4500000D01*
G37*
G36*
X10300000Y-5100000D02*
G01*
X10000000Y-5100000D01*
X10000000Y-4800000D01*
X10300000Y-4800000D01*
X10300000Y-5100000D01*
G37*
G36*
X10300000Y-5400000D02*
G01*
X10000000Y-5400000D01*
X10000000Y-5100000D01*
X10300000Y-5100000D01*
X10300000Y-5400000D01*
G37*
G36*
X10300000Y-5700000D02*
G01*
X10000000Y-5700000D01*
X10000000Y-5400000D01*
X10300000Y-5400000D01*
X10300000Y-5700000D01*
G37*
G36*
X10300000Y-6000000D02*
G01*
X10000000Y-6000000D01*
X10000000Y-5700000D01*
X10300000Y-5700000D01*
X10300000Y-6000000D01*
G37*
G36*
X10300000Y-6300000D02*
G01*
X10000000Y-6300000D01*
X10000000Y-6000000D01*
X10300000Y-6000000D01*
X10300000Y-6300000D01*
G37*
G36*
X10300000Y-6600000D02*
G01*
X10000000Y-6600000D01*
X10000000Y-6300000D01*
X10300000Y-6300000D01*
X10300000Y-6600000D01*
G37*
G36*
X10300000Y-7500000D02*
G01*
X10000000Y-7500000D01*
X10000000Y-7200000D01*
X10300000Y-7200000D01*
X10300000Y-7500000D01*
G37*
G36*
X10300000Y-7800000D02*
G01*
X10000000Y-7800000D01*
X10000000Y-7500000D01*
X10300000Y-7500000D01*
X10300000Y-7800000D01*
G37*
G36*
X10300000Y-8100000D02*
G01*
X10000000Y-8100000D01*
X10000000Y-7800000D01*
X10300000Y-7800000D01*
X10300000Y-8100000D01*
G37*
G36*
X10300000Y-8400000D02*
G01*
X10000000Y-8400000D01*
X10000000Y-8100000D01*
X10300000Y-8100000D01*
X10300000Y-8400000D01*
G37*
G36*
X10300000Y-8700000D02*
G01*
X10000000Y-8700000D01*
X10000000Y-8400000D01*
X10300000Y-8400000D01*
X10300000Y-8700000D01*
G37*
G36*
X10300000Y-9000000D02*
G01*
X10000000Y-9000000D01*
X10000000Y-8700000D01*
X10300000Y-8700000D01*
X10300000Y-9000000D01*
G37*
G36*
X10300000Y-9600000D02*
G01*
X10000000Y-9600000D01*
X10000000Y-9300000D01*
X10300000Y-9300000D01*
X10300000Y-9600000D01*
G37*
G36*
X10300000Y-9900000D02*
G01*
X10000000Y-9900000D01*
X10000000Y-9600000D01*
X10300000Y-9600000D01*
X10300000Y-9900000D01*
G37*
G36*
X10300000Y-10200000D02*
G01*
X10000000Y-10200000D01*
X10000000Y-9900000D01*
X10300000Y-9900000D01*
X10300000Y-10200000D01*
G37*
G36*
X10300000Y-10800000D02*
G01*
X10000000Y-10800000D01*
X10000000Y-10500000D01*
X10300000Y-10500000D01*
X10300000Y-10800000D01*
G37*
G36*
X10300000Y-11400000D02*
G01*
X10000000Y-11400000D01*
X10000000Y-11100000D01*
X10300000Y-11100000D01*
X10300000Y-11400000D01*
G37*
G36*
X10300000Y-12000000D02*
G01*
X10000000Y-12000000D01*
X10000000Y-11700000D01*
X10300000Y-11700000D01*
X10300000Y-12000000D01*
G37*
G36*
X10300000Y-12600000D02*
G01*
X10000000Y-12600000D01*
X10000000Y-12300000D01*
X10300000Y-12300000D01*
X10300000Y-12600000D01*
G37*
G36*
X10300000Y-13800000D02*
G01*
X10000000Y-13800000D01*
X10000000Y-12600000D01*
X10300000Y-12600000D01*
X10300000Y-13800000D01*
G37*
G36*
X10600000Y-1500000D02*
G01*
X10300000Y-1500000D01*
X10300000Y-300000D01*
X10600000Y-300000D01*
X10600000Y-1500000D01*
G37*
G36*
X10600000Y-1800000D02*
G01*
X10300000Y-1800000D01*
X10300000Y-1500000D01*
X10600000Y-1500000D01*
X10600000Y-1800000D01*
G37*
G36*
X10600000Y-2100000D02*
G01*
X10300000Y-2100000D01*
X10300000Y-1800000D01*
X10600000Y-1800000D01*
X10600000Y-2100000D01*
G37*
G36*
X10600000Y-2700000D02*
G01*
X10300000Y-2700000D01*
X10300000Y-2400000D01*
X10600000Y-2400000D01*
X10600000Y-2700000D01*
G37*
G36*
X10600000Y-4200000D02*
G01*
X10300000Y-4200000D01*
X10300000Y-3900000D01*
X10600000Y-3900000D01*
X10600000Y-4200000D01*
G37*
G36*
X10600000Y-4500000D02*
G01*
X10300000Y-4500000D01*
X10300000Y-4200000D01*
X10600000Y-4200000D01*
X10600000Y-4500000D01*
G37*
G36*
X10600000Y-4800000D02*
G01*
X10300000Y-4800000D01*
X10300000Y-4500000D01*
X10600000Y-4500000D01*
X10600000Y-4800000D01*
G37*
G36*
X10600000Y-5100000D02*
G01*
X10300000Y-5100000D01*
X10300000Y-4800000D01*
X10600000Y-4800000D01*
X10600000Y-5100000D01*
G37*
G36*
X10600000Y-5400000D02*
G01*
X10300000Y-5400000D01*
X10300000Y-5100000D01*
X10600000Y-5100000D01*
X10600000Y-5400000D01*
G37*
G36*
X10600000Y-5700000D02*
G01*
X10300000Y-5700000D01*
X10300000Y-5400000D01*
X10600000Y-5400000D01*
X10600000Y-5700000D01*
G37*
G36*
X10600000Y-6900000D02*
G01*
X10300000Y-6900000D01*
X10300000Y-6600000D01*
X10600000Y-6600000D01*
X10600000Y-6900000D01*
G37*
G36*
X10600000Y-7200000D02*
G01*
X10300000Y-7200000D01*
X10300000Y-6900000D01*
X10600000Y-6900000D01*
X10600000Y-7200000D01*
G37*
G36*
X10600000Y-8100000D02*
G01*
X10300000Y-8100000D01*
X10300000Y-7800000D01*
X10600000Y-7800000D01*
X10600000Y-8100000D01*
G37*
G36*
X10600000Y-8700000D02*
G01*
X10300000Y-8700000D01*
X10300000Y-8400000D01*
X10600000Y-8400000D01*
X10600000Y-8700000D01*
G37*
G36*
X10600000Y-9300000D02*
G01*
X10300000Y-9300000D01*
X10300000Y-9000000D01*
X10600000Y-9000000D01*
X10600000Y-9300000D01*
G37*
G36*
X10600000Y-9600000D02*
G01*
X10300000Y-9600000D01*
X10300000Y-9300000D01*
X10600000Y-9300000D01*
X10600000Y-9600000D01*
G37*
G36*
X10600000Y-10200000D02*
G01*
X10300000Y-10200000D01*
X10300000Y-9900000D01*
X10600000Y-9900000D01*
X10600000Y-10200000D01*
G37*
G36*
X10600000Y-10800000D02*
G01*
X10300000Y-10800000D01*
X10300000Y-10500000D01*
X10600000Y-10500000D01*
X10600000Y-10800000D01*
G37*
G36*
X10600000Y-11700000D02*
G01*
X10300000Y-11700000D01*
X10300000Y-11400000D01*
X10600000Y-11400000D01*
X10600000Y-11700000D01*
G37*
G36*
X10600000Y-12000000D02*
G01*
X10300000Y-12000000D01*
X10300000Y-11700000D01*
X10600000Y-11700000D01*
X10600000Y-12000000D01*
G37*
G36*
X10600000Y-13800000D02*
G01*
X10300000Y-13800000D01*
X10300000Y-12600000D01*
X10600000Y-12600000D01*
X10600000Y-13800000D01*
G37*
G36*
X10900000Y-1500000D02*
G01*
X10600000Y-1500000D01*
X10600000Y-300000D01*
X10900000Y-300000D01*
X10900000Y-1500000D01*
G37*
G36*
X10900000Y-1800000D02*
G01*
X10600000Y-1800000D01*
X10600000Y-1500000D01*
X10900000Y-1500000D01*
X10900000Y-1800000D01*
G37*
G36*
X10900000Y-2100000D02*
G01*
X10600000Y-2100000D01*
X10600000Y-1800000D01*
X10900000Y-1800000D01*
X10900000Y-2100000D01*
G37*
G36*
X10900000Y-2700000D02*
G01*
X10600000Y-2700000D01*
X10600000Y-2400000D01*
X10900000Y-2400000D01*
X10900000Y-2700000D01*
G37*
G36*
X10900000Y-3000000D02*
G01*
X10600000Y-3000000D01*
X10600000Y-2700000D01*
X10900000Y-2700000D01*
X10900000Y-3000000D01*
G37*
G36*
X10900000Y-3300000D02*
G01*
X10600000Y-3300000D01*
X10600000Y-3000000D01*
X10900000Y-3000000D01*
X10900000Y-3300000D01*
G37*
G36*
X10900000Y-3600000D02*
G01*
X10600000Y-3600000D01*
X10600000Y-3300000D01*
X10900000Y-3300000D01*
X10900000Y-3600000D01*
G37*
G36*
X10900000Y-4200000D02*
G01*
X10600000Y-4200000D01*
X10600000Y-3900000D01*
X10900000Y-3900000D01*
X10900000Y-4200000D01*
G37*
G36*
X10900000Y-4800000D02*
G01*
X10600000Y-4800000D01*
X10600000Y-4500000D01*
X10900000Y-4500000D01*
X10900000Y-4800000D01*
G37*
G36*
X10900000Y-5100000D02*
G01*
X10600000Y-5100000D01*
X10600000Y-4800000D01*
X10900000Y-4800000D01*
X10900000Y-5100000D01*
G37*
G36*
X10900000Y-6600000D02*
G01*
X10600000Y-6600000D01*
X10600000Y-6300000D01*
X10900000Y-6300000D01*
X10900000Y-6600000D01*
G37*
G36*
X10900000Y-6900000D02*
G01*
X10600000Y-6900000D01*
X10600000Y-6600000D01*
X10900000Y-6600000D01*
X10900000Y-6900000D01*
G37*
G36*
X10900000Y-7200000D02*
G01*
X10600000Y-7200000D01*
X10600000Y-6900000D01*
X10900000Y-6900000D01*
X10900000Y-7200000D01*
G37*
G36*
X10900000Y-8100000D02*
G01*
X10600000Y-8100000D01*
X10600000Y-7800000D01*
X10900000Y-7800000D01*
X10900000Y-8100000D01*
G37*
G36*
X10900000Y-8400000D02*
G01*
X10600000Y-8400000D01*
X10600000Y-8100000D01*
X10900000Y-8100000D01*
X10900000Y-8400000D01*
G37*
G36*
X10900000Y-8700000D02*
G01*
X10600000Y-8700000D01*
X10600000Y-8400000D01*
X10900000Y-8400000D01*
X10900000Y-8700000D01*
G37*
G36*
X10900000Y-9000000D02*
G01*
X10600000Y-9000000D01*
X10600000Y-8700000D01*
X10900000Y-8700000D01*
X10900000Y-9000000D01*
G37*
G36*
X10900000Y-9300000D02*
G01*
X10600000Y-9300000D01*
X10600000Y-9000000D01*
X10900000Y-9000000D01*
X10900000Y-9300000D01*
G37*
G36*
X10900000Y-10200000D02*
G01*
X10600000Y-10200000D01*
X10600000Y-9900000D01*
X10900000Y-9900000D01*
X10900000Y-10200000D01*
G37*
G36*
X10900000Y-11400000D02*
G01*
X10600000Y-11400000D01*
X10600000Y-11100000D01*
X10900000Y-11100000D01*
X10900000Y-11400000D01*
G37*
G36*
X10900000Y-11700000D02*
G01*
X10600000Y-11700000D01*
X10600000Y-11400000D01*
X10900000Y-11400000D01*
X10900000Y-11700000D01*
G37*
G36*
X10900000Y-12000000D02*
G01*
X10600000Y-12000000D01*
X10600000Y-11700000D01*
X10900000Y-11700000D01*
X10900000Y-12000000D01*
G37*
G36*
X10900000Y-13800000D02*
G01*
X10600000Y-13800000D01*
X10600000Y-12600000D01*
X10900000Y-12600000D01*
X10900000Y-13800000D01*
G37*
G36*
X11200000Y-1500000D02*
G01*
X10900000Y-1500000D01*
X10900000Y-300000D01*
X11200000Y-300000D01*
X11200000Y-1500000D01*
G37*
G36*
X11200000Y-1800000D02*
G01*
X10900000Y-1800000D01*
X10900000Y-1500000D01*
X11200000Y-1500000D01*
X11200000Y-1800000D01*
G37*
G36*
X11200000Y-2100000D02*
G01*
X10900000Y-2100000D01*
X10900000Y-1800000D01*
X11200000Y-1800000D01*
X11200000Y-2100000D01*
G37*
G36*
X11200000Y-3000000D02*
G01*
X10900000Y-3000000D01*
X10900000Y-2700000D01*
X11200000Y-2700000D01*
X11200000Y-3000000D01*
G37*
G36*
X11200000Y-3300000D02*
G01*
X10900000Y-3300000D01*
X10900000Y-3000000D01*
X11200000Y-3000000D01*
X11200000Y-3300000D01*
G37*
G36*
X11200000Y-4500000D02*
G01*
X10900000Y-4500000D01*
X10900000Y-4200000D01*
X11200000Y-4200000D01*
X11200000Y-4500000D01*
G37*
G36*
X11200000Y-5100000D02*
G01*
X10900000Y-5100000D01*
X10900000Y-4800000D01*
X11200000Y-4800000D01*
X11200000Y-5100000D01*
G37*
G36*
X11200000Y-6000000D02*
G01*
X10900000Y-6000000D01*
X10900000Y-5700000D01*
X11200000Y-5700000D01*
X11200000Y-6000000D01*
G37*
G36*
X11200000Y-6300000D02*
G01*
X10900000Y-6300000D01*
X10900000Y-6000000D01*
X11200000Y-6000000D01*
X11200000Y-6300000D01*
G37*
G36*
X11200000Y-6600000D02*
G01*
X10900000Y-6600000D01*
X10900000Y-6300000D01*
X11200000Y-6300000D01*
X11200000Y-6600000D01*
G37*
G36*
X11200000Y-6900000D02*
G01*
X10900000Y-6900000D01*
X10900000Y-6600000D01*
X11200000Y-6600000D01*
X11200000Y-6900000D01*
G37*
G36*
X11200000Y-7500000D02*
G01*
X10900000Y-7500000D01*
X10900000Y-7200000D01*
X11200000Y-7200000D01*
X11200000Y-7500000D01*
G37*
G36*
X11200000Y-7800000D02*
G01*
X10900000Y-7800000D01*
X10900000Y-7500000D01*
X11200000Y-7500000D01*
X11200000Y-7800000D01*
G37*
G36*
X11200000Y-9000000D02*
G01*
X10900000Y-9000000D01*
X10900000Y-8700000D01*
X11200000Y-8700000D01*
X11200000Y-9000000D01*
G37*
G36*
X11200000Y-10200000D02*
G01*
X10900000Y-10200000D01*
X10900000Y-9900000D01*
X11200000Y-9900000D01*
X11200000Y-10200000D01*
G37*
G36*
X11200000Y-10500000D02*
G01*
X10900000Y-10500000D01*
X10900000Y-10200000D01*
X11200000Y-10200000D01*
X11200000Y-10500000D01*
G37*
G36*
X11200000Y-12600000D02*
G01*
X10900000Y-12600000D01*
X10900000Y-12300000D01*
X11200000Y-12300000D01*
X11200000Y-12600000D01*
G37*
G36*
X11200000Y-13800000D02*
G01*
X10900000Y-13800000D01*
X10900000Y-12600000D01*
X11200000Y-12600000D01*
X11200000Y-13800000D01*
G37*
G36*
X11500000Y-1500000D02*
G01*
X11200000Y-1500000D01*
X11200000Y-300000D01*
X11500000Y-300000D01*
X11500000Y-1500000D01*
G37*
G36*
X11500000Y-1800000D02*
G01*
X11200000Y-1800000D01*
X11200000Y-1500000D01*
X11500000Y-1500000D01*
X11500000Y-1800000D01*
G37*
G36*
X11500000Y-2100000D02*
G01*
X11200000Y-2100000D01*
X11200000Y-1800000D01*
X11500000Y-1800000D01*
X11500000Y-2100000D01*
G37*
G36*
X11500000Y-3300000D02*
G01*
X11200000Y-3300000D01*
X11200000Y-3000000D01*
X11500000Y-3000000D01*
X11500000Y-3300000D01*
G37*
G36*
X11500000Y-3600000D02*
G01*
X11200000Y-3600000D01*
X11200000Y-3300000D01*
X11500000Y-3300000D01*
X11500000Y-3600000D01*
G37*
G36*
X11500000Y-3900000D02*
G01*
X11200000Y-3900000D01*
X11200000Y-3600000D01*
X11500000Y-3600000D01*
X11500000Y-3900000D01*
G37*
G36*
X11500000Y-4500000D02*
G01*
X11200000Y-4500000D01*
X11200000Y-4200000D01*
X11500000Y-4200000D01*
X11500000Y-4500000D01*
G37*
G36*
X11500000Y-5400000D02*
G01*
X11200000Y-5400000D01*
X11200000Y-5100000D01*
X11500000Y-5100000D01*
X11500000Y-5400000D01*
G37*
G36*
X11500000Y-6600000D02*
G01*
X11200000Y-6600000D01*
X11200000Y-6300000D01*
X11500000Y-6300000D01*
X11500000Y-6600000D01*
G37*
G36*
X11500000Y-6900000D02*
G01*
X11200000Y-6900000D01*
X11200000Y-6600000D01*
X11500000Y-6600000D01*
X11500000Y-6900000D01*
G37*
G36*
X11500000Y-8700000D02*
G01*
X11200000Y-8700000D01*
X11200000Y-8400000D01*
X11500000Y-8400000D01*
X11500000Y-8700000D01*
G37*
G36*
X11500000Y-9300000D02*
G01*
X11200000Y-9300000D01*
X11200000Y-9000000D01*
X11500000Y-9000000D01*
X11500000Y-9300000D01*
G37*
G36*
X11500000Y-10500000D02*
G01*
X11200000Y-10500000D01*
X11200000Y-10200000D01*
X11500000Y-10200000D01*
X11500000Y-10500000D01*
G37*
G36*
X11500000Y-10800000D02*
G01*
X11200000Y-10800000D01*
X11200000Y-10500000D01*
X11500000Y-10500000D01*
X11500000Y-10800000D01*
G37*
G36*
X11500000Y-11400000D02*
G01*
X11200000Y-11400000D01*
X11200000Y-11100000D01*
X11500000Y-11100000D01*
X11500000Y-11400000D01*
G37*
G36*
X11500000Y-13800000D02*
G01*
X11200000Y-13800000D01*
X11200000Y-12600000D01*
X11500000Y-12600000D01*
X11500000Y-13800000D01*
G37*
G36*
X11800000Y-1500000D02*
G01*
X11500000Y-1500000D01*
X11500000Y-300000D01*
X11800000Y-300000D01*
X11800000Y-1500000D01*
G37*
G36*
X11800000Y-3000000D02*
G01*
X11500000Y-3000000D01*
X11500000Y-2700000D01*
X11800000Y-2700000D01*
X11800000Y-3000000D01*
G37*
G36*
X11800000Y-3300000D02*
G01*
X11500000Y-3300000D01*
X11500000Y-3000000D01*
X11800000Y-3000000D01*
X11800000Y-3300000D01*
G37*
G36*
X11800000Y-4800000D02*
G01*
X11500000Y-4800000D01*
X11500000Y-4500000D01*
X11800000Y-4500000D01*
X11800000Y-4800000D01*
G37*
G36*
X11800000Y-5400000D02*
G01*
X11500000Y-5400000D01*
X11500000Y-5100000D01*
X11800000Y-5100000D01*
X11800000Y-5400000D01*
G37*
G36*
X11800000Y-5700000D02*
G01*
X11500000Y-5700000D01*
X11500000Y-5400000D01*
X11800000Y-5400000D01*
X11800000Y-5700000D01*
G37*
G36*
X11800000Y-6600000D02*
G01*
X11500000Y-6600000D01*
X11500000Y-6300000D01*
X11800000Y-6300000D01*
X11800000Y-6600000D01*
G37*
G36*
X11800000Y-6900000D02*
G01*
X11500000Y-6900000D01*
X11500000Y-6600000D01*
X11800000Y-6600000D01*
X11800000Y-6900000D01*
G37*
G36*
X11800000Y-7800000D02*
G01*
X11500000Y-7800000D01*
X11500000Y-7500000D01*
X11800000Y-7500000D01*
X11800000Y-7800000D01*
G37*
G36*
X11800000Y-8700000D02*
G01*
X11500000Y-8700000D01*
X11500000Y-8400000D01*
X11800000Y-8400000D01*
X11800000Y-8700000D01*
G37*
G36*
X11800000Y-9000000D02*
G01*
X11500000Y-9000000D01*
X11500000Y-8700000D01*
X11800000Y-8700000D01*
X11800000Y-9000000D01*
G37*
G36*
X11800000Y-9600000D02*
G01*
X11500000Y-9600000D01*
X11500000Y-9300000D01*
X11800000Y-9300000D01*
X11800000Y-9600000D01*
G37*
G36*
X11800000Y-10200000D02*
G01*
X11500000Y-10200000D01*
X11500000Y-9900000D01*
X11800000Y-9900000D01*
X11800000Y-10200000D01*
G37*
G36*
X11800000Y-10800000D02*
G01*
X11500000Y-10800000D01*
X11500000Y-10500000D01*
X11800000Y-10500000D01*
X11800000Y-10800000D01*
G37*
G36*
X11800000Y-11100000D02*
G01*
X11500000Y-11100000D01*
X11500000Y-10800000D01*
X11800000Y-10800000D01*
X11800000Y-11100000D01*
G37*
G36*
X11800000Y-12300000D02*
G01*
X11500000Y-12300000D01*
X11500000Y-12000000D01*
X11800000Y-12000000D01*
X11800000Y-12300000D01*
G37*
G36*
X11800000Y-12600000D02*
G01*
X11500000Y-12600000D01*
X11500000Y-12300000D01*
X11800000Y-12300000D01*
X11800000Y-12600000D01*
G37*
G36*
X11800000Y-13800000D02*
G01*
X11500000Y-13800000D01*
X11500000Y-12600000D01*
X11800000Y-12600000D01*
X11800000Y-13800000D01*
G37*
G36*
X12100000Y-1500000D02*
G01*
X11800000Y-1500000D01*
X11800000Y-300000D01*
X12100000Y-300000D01*
X12100000Y-1500000D01*
G37*
G36*
X12100000Y-1800000D02*
G01*
X11800000Y-1800000D01*
X11800000Y-1500000D01*
X12100000Y-1500000D01*
X12100000Y-1800000D01*
G37*
G36*
X12100000Y-2100000D02*
G01*
X11800000Y-2100000D01*
X11800000Y-1800000D01*
X12100000Y-1800000D01*
X12100000Y-2100000D01*
G37*
G36*
X12100000Y-2400000D02*
G01*
X11800000Y-2400000D01*
X11800000Y-2100000D01*
X12100000Y-2100000D01*
X12100000Y-2400000D01*
G37*
G36*
X12100000Y-3000000D02*
G01*
X11800000Y-3000000D01*
X11800000Y-2700000D01*
X12100000Y-2700000D01*
X12100000Y-3000000D01*
G37*
G36*
X12100000Y-3600000D02*
G01*
X11800000Y-3600000D01*
X11800000Y-3300000D01*
X12100000Y-3300000D01*
X12100000Y-3600000D01*
G37*
G36*
X12100000Y-3900000D02*
G01*
X11800000Y-3900000D01*
X11800000Y-3600000D01*
X12100000Y-3600000D01*
X12100000Y-3900000D01*
G37*
G36*
X12100000Y-4200000D02*
G01*
X11800000Y-4200000D01*
X11800000Y-3900000D01*
X12100000Y-3900000D01*
X12100000Y-4200000D01*
G37*
G36*
X12100000Y-5100000D02*
G01*
X11800000Y-5100000D01*
X11800000Y-4800000D01*
X12100000Y-4800000D01*
X12100000Y-5100000D01*
G37*
G36*
X12100000Y-5700000D02*
G01*
X11800000Y-5700000D01*
X11800000Y-5400000D01*
X12100000Y-5400000D01*
X12100000Y-5700000D01*
G37*
G36*
X12100000Y-6000000D02*
G01*
X11800000Y-6000000D01*
X11800000Y-5700000D01*
X12100000Y-5700000D01*
X12100000Y-6000000D01*
G37*
G36*
X12100000Y-6300000D02*
G01*
X11800000Y-6300000D01*
X11800000Y-6000000D01*
X12100000Y-6000000D01*
X12100000Y-6300000D01*
G37*
G36*
X12100000Y-7200000D02*
G01*
X11800000Y-7200000D01*
X11800000Y-6900000D01*
X12100000Y-6900000D01*
X12100000Y-7200000D01*
G37*
G36*
X12100000Y-7500000D02*
G01*
X11800000Y-7500000D01*
X11800000Y-7200000D01*
X12100000Y-7200000D01*
X12100000Y-7500000D01*
G37*
G36*
X12100000Y-8100000D02*
G01*
X11800000Y-8100000D01*
X11800000Y-7800000D01*
X12100000Y-7800000D01*
X12100000Y-8100000D01*
G37*
G36*
X12100000Y-8400000D02*
G01*
X11800000Y-8400000D01*
X11800000Y-8100000D01*
X12100000Y-8100000D01*
X12100000Y-8400000D01*
G37*
G36*
X12100000Y-9000000D02*
G01*
X11800000Y-9000000D01*
X11800000Y-8700000D01*
X12100000Y-8700000D01*
X12100000Y-9000000D01*
G37*
G36*
X12100000Y-9300000D02*
G01*
X11800000Y-9300000D01*
X11800000Y-9000000D01*
X12100000Y-9000000D01*
X12100000Y-9300000D01*
G37*
G36*
X12100000Y-9600000D02*
G01*
X11800000Y-9600000D01*
X11800000Y-9300000D01*
X12100000Y-9300000D01*
X12100000Y-9600000D01*
G37*
G36*
X12100000Y-9900000D02*
G01*
X11800000Y-9900000D01*
X11800000Y-9600000D01*
X12100000Y-9600000D01*
X12100000Y-9900000D01*
G37*
G36*
X12100000Y-10500000D02*
G01*
X11800000Y-10500000D01*
X11800000Y-10200000D01*
X12100000Y-10200000D01*
X12100000Y-10500000D01*
G37*
G36*
X12100000Y-11700000D02*
G01*
X11800000Y-11700000D01*
X11800000Y-11400000D01*
X12100000Y-11400000D01*
X12100000Y-11700000D01*
G37*
G36*
X12100000Y-12000000D02*
G01*
X11800000Y-12000000D01*
X11800000Y-11700000D01*
X12100000Y-11700000D01*
X12100000Y-12000000D01*
G37*
G36*
X12100000Y-13800000D02*
G01*
X11800000Y-13800000D01*
X11800000Y-12600000D01*
X12100000Y-12600000D01*
X12100000Y-13800000D01*
G37*
G36*
X12400000Y-1500000D02*
G01*
X12100000Y-1500000D01*
X12100000Y-300000D01*
X12400000Y-300000D01*
X12400000Y-1500000D01*
G37*
G36*
X12400000Y-1800000D02*
G01*
X12100000Y-1800000D01*
X12100000Y-1500000D01*
X12400000Y-1500000D01*
X12400000Y-1800000D01*
G37*
G36*
X12400000Y-2100000D02*
G01*
X12100000Y-2100000D01*
X12100000Y-1800000D01*
X12400000Y-1800000D01*
X12400000Y-2100000D01*
G37*
G36*
X12400000Y-3900000D02*
G01*
X12100000Y-3900000D01*
X12100000Y-3600000D01*
X12400000Y-3600000D01*
X12400000Y-3900000D01*
G37*
G36*
X12400000Y-5400000D02*
G01*
X12100000Y-5400000D01*
X12100000Y-5100000D01*
X12400000Y-5100000D01*
X12400000Y-5400000D01*
G37*
G36*
X12400000Y-5700000D02*
G01*
X12100000Y-5700000D01*
X12100000Y-5400000D01*
X12400000Y-5400000D01*
X12400000Y-5700000D01*
G37*
G36*
X12400000Y-6600000D02*
G01*
X12100000Y-6600000D01*
X12100000Y-6300000D01*
X12400000Y-6300000D01*
X12400000Y-6600000D01*
G37*
G36*
X12400000Y-6900000D02*
G01*
X12100000Y-6900000D01*
X12100000Y-6600000D01*
X12400000Y-6600000D01*
X12400000Y-6900000D01*
G37*
G36*
X12400000Y-7200000D02*
G01*
X12100000Y-7200000D01*
X12100000Y-6900000D01*
X12400000Y-6900000D01*
X12400000Y-7200000D01*
G37*
G36*
X12400000Y-7800000D02*
G01*
X12100000Y-7800000D01*
X12100000Y-7500000D01*
X12400000Y-7500000D01*
X12400000Y-7800000D01*
G37*
G36*
X12400000Y-8100000D02*
G01*
X12100000Y-8100000D01*
X12100000Y-7800000D01*
X12400000Y-7800000D01*
X12400000Y-8100000D01*
G37*
G36*
X12400000Y-8400000D02*
G01*
X12100000Y-8400000D01*
X12100000Y-8100000D01*
X12400000Y-8100000D01*
X12400000Y-8400000D01*
G37*
G36*
X12400000Y-8700000D02*
G01*
X12100000Y-8700000D01*
X12100000Y-8400000D01*
X12400000Y-8400000D01*
X12400000Y-8700000D01*
G37*
G36*
X12400000Y-9600000D02*
G01*
X12100000Y-9600000D01*
X12100000Y-9300000D01*
X12400000Y-9300000D01*
X12400000Y-9600000D01*
G37*
G36*
X12400000Y-10200000D02*
G01*
X12100000Y-10200000D01*
X12100000Y-9900000D01*
X12400000Y-9900000D01*
X12400000Y-10200000D01*
G37*
G36*
X12400000Y-10500000D02*
G01*
X12100000Y-10500000D01*
X12100000Y-10200000D01*
X12400000Y-10200000D01*
X12400000Y-10500000D01*
G37*
G36*
X12400000Y-10800000D02*
G01*
X12100000Y-10800000D01*
X12100000Y-10500000D01*
X12400000Y-10500000D01*
X12400000Y-10800000D01*
G37*
G36*
X12400000Y-11100000D02*
G01*
X12100000Y-11100000D01*
X12100000Y-10800000D01*
X12400000Y-10800000D01*
X12400000Y-11100000D01*
G37*
G36*
X12400000Y-11400000D02*
G01*
X12100000Y-11400000D01*
X12100000Y-11100000D01*
X12400000Y-11100000D01*
X12400000Y-11400000D01*
G37*
G36*
X12400000Y-11700000D02*
G01*
X12100000Y-11700000D01*
X12100000Y-11400000D01*
X12400000Y-11400000D01*
X12400000Y-11700000D01*
G37*
G36*
X12400000Y-12300000D02*
G01*
X12100000Y-12300000D01*
X12100000Y-12000000D01*
X12400000Y-12000000D01*
X12400000Y-12300000D01*
G37*
G36*
X12400000Y-12600000D02*
G01*
X12100000Y-12600000D01*
X12100000Y-12300000D01*
X12400000Y-12300000D01*
X12400000Y-12600000D01*
G37*
G36*
X12400000Y-13800000D02*
G01*
X12100000Y-13800000D01*
X12100000Y-12600000D01*
X12400000Y-12600000D01*
X12400000Y-13800000D01*
G37*
G36*
X12700000Y-1500000D02*
G01*
X12400000Y-1500000D01*
X12400000Y-300000D01*
X12700000Y-300000D01*
X12700000Y-1500000D01*
G37*
G36*
X12700000Y-1800000D02*
G01*
X12400000Y-1800000D01*
X12400000Y-1500000D01*
X12700000Y-1500000D01*
X12700000Y-1800000D01*
G37*
G36*
X12700000Y-2100000D02*
G01*
X12400000Y-2100000D01*
X12400000Y-1800000D01*
X12700000Y-1800000D01*
X12700000Y-2100000D01*
G37*
G36*
X12700000Y-2400000D02*
G01*
X12400000Y-2400000D01*
X12400000Y-2100000D01*
X12700000Y-2100000D01*
X12700000Y-2400000D01*
G37*
G36*
X12700000Y-3300000D02*
G01*
X12400000Y-3300000D01*
X12400000Y-3000000D01*
X12700000Y-3000000D01*
X12700000Y-3300000D01*
G37*
G36*
X12700000Y-3600000D02*
G01*
X12400000Y-3600000D01*
X12400000Y-3300000D01*
X12700000Y-3300000D01*
X12700000Y-3600000D01*
G37*
G36*
X12700000Y-3900000D02*
G01*
X12400000Y-3900000D01*
X12400000Y-3600000D01*
X12700000Y-3600000D01*
X12700000Y-3900000D01*
G37*
G36*
X12700000Y-4200000D02*
G01*
X12400000Y-4200000D01*
X12400000Y-3900000D01*
X12700000Y-3900000D01*
X12700000Y-4200000D01*
G37*
G36*
X12700000Y-4500000D02*
G01*
X12400000Y-4500000D01*
X12400000Y-4200000D01*
X12700000Y-4200000D01*
X12700000Y-4500000D01*
G37*
G36*
X12700000Y-5100000D02*
G01*
X12400000Y-5100000D01*
X12400000Y-4800000D01*
X12700000Y-4800000D01*
X12700000Y-5100000D01*
G37*
G36*
X12700000Y-5700000D02*
G01*
X12400000Y-5700000D01*
X12400000Y-5400000D01*
X12700000Y-5400000D01*
X12700000Y-5700000D01*
G37*
G36*
X12700000Y-6300000D02*
G01*
X12400000Y-6300000D01*
X12400000Y-6000000D01*
X12700000Y-6000000D01*
X12700000Y-6300000D01*
G37*
G36*
X12700000Y-6600000D02*
G01*
X12400000Y-6600000D01*
X12400000Y-6300000D01*
X12700000Y-6300000D01*
X12700000Y-6600000D01*
G37*
G36*
X12700000Y-6900000D02*
G01*
X12400000Y-6900000D01*
X12400000Y-6600000D01*
X12700000Y-6600000D01*
X12700000Y-6900000D01*
G37*
G36*
X12700000Y-7200000D02*
G01*
X12400000Y-7200000D01*
X12400000Y-6900000D01*
X12700000Y-6900000D01*
X12700000Y-7200000D01*
G37*
G36*
X12700000Y-7500000D02*
G01*
X12400000Y-7500000D01*
X12400000Y-7200000D01*
X12700000Y-7200000D01*
X12700000Y-7500000D01*
G37*
G36*
X12700000Y-8400000D02*
G01*
X12400000Y-8400000D01*
X12400000Y-8100000D01*
X12700000Y-8100000D01*
X12700000Y-8400000D01*
G37*
G36*
X12700000Y-8700000D02*
G01*
X12400000Y-8700000D01*
X12400000Y-8400000D01*
X12700000Y-8400000D01*
X12700000Y-8700000D01*
G37*
G36*
X12700000Y-9300000D02*
G01*
X12400000Y-9300000D01*
X12400000Y-9000000D01*
X12700000Y-9000000D01*
X12700000Y-9300000D01*
G37*
G36*
X12700000Y-9600000D02*
G01*
X12400000Y-9600000D01*
X12400000Y-9300000D01*
X12700000Y-9300000D01*
X12700000Y-9600000D01*
G37*
G36*
X12700000Y-10200000D02*
G01*
X12400000Y-10200000D01*
X12400000Y-9900000D01*
X12700000Y-9900000D01*
X12700000Y-10200000D01*
G37*
G36*
X12700000Y-10500000D02*
G01*
X12400000Y-10500000D01*
X12400000Y-10200000D01*
X12700000Y-10200000D01*
X12700000Y-10500000D01*
G37*
G36*
X12700000Y-11400000D02*
G01*
X12400000Y-11400000D01*
X12400000Y-11100000D01*
X12700000Y-11100000D01*
X12700000Y-11400000D01*
G37*
G36*
X12700000Y-12600000D02*
G01*
X12400000Y-12600000D01*
X12400000Y-12300000D01*
X12700000Y-12300000D01*
X12700000Y-12600000D01*
G37*
G36*
X12700000Y-13800000D02*
G01*
X12400000Y-13800000D01*
X12400000Y-12600000D01*
X12700000Y-12600000D01*
X12700000Y-13800000D01*
G37*
G36*
X13000000Y-1500000D02*
G01*
X12700000Y-1500000D01*
X12700000Y-300000D01*
X13000000Y-300000D01*
X13000000Y-1500000D01*
G37*
G36*
X13000000Y-2100000D02*
G01*
X12700000Y-2100000D01*
X12700000Y-1800000D01*
X13000000Y-1800000D01*
X13000000Y-2100000D01*
G37*
G36*
X13000000Y-2400000D02*
G01*
X12700000Y-2400000D01*
X12700000Y-2100000D01*
X13000000Y-2100000D01*
X13000000Y-2400000D01*
G37*
G36*
X13000000Y-3000000D02*
G01*
X12700000Y-3000000D01*
X12700000Y-2700000D01*
X13000000Y-2700000D01*
X13000000Y-3000000D01*
G37*
G36*
X13000000Y-3300000D02*
G01*
X12700000Y-3300000D01*
X12700000Y-3000000D01*
X13000000Y-3000000D01*
X13000000Y-3300000D01*
G37*
G36*
X13000000Y-4800000D02*
G01*
X12700000Y-4800000D01*
X12700000Y-4500000D01*
X13000000Y-4500000D01*
X13000000Y-4800000D01*
G37*
G36*
X13000000Y-5100000D02*
G01*
X12700000Y-5100000D01*
X12700000Y-4800000D01*
X13000000Y-4800000D01*
X13000000Y-5100000D01*
G37*
G36*
X13000000Y-5400000D02*
G01*
X12700000Y-5400000D01*
X12700000Y-5100000D01*
X13000000Y-5100000D01*
X13000000Y-5400000D01*
G37*
G36*
X13000000Y-5700000D02*
G01*
X12700000Y-5700000D01*
X12700000Y-5400000D01*
X13000000Y-5400000D01*
X13000000Y-5700000D01*
G37*
G36*
X13000000Y-6600000D02*
G01*
X12700000Y-6600000D01*
X12700000Y-6300000D01*
X13000000Y-6300000D01*
X13000000Y-6600000D01*
G37*
G36*
X13000000Y-6900000D02*
G01*
X12700000Y-6900000D01*
X12700000Y-6600000D01*
X13000000Y-6600000D01*
X13000000Y-6900000D01*
G37*
G36*
X13000000Y-7200000D02*
G01*
X12700000Y-7200000D01*
X12700000Y-6900000D01*
X13000000Y-6900000D01*
X13000000Y-7200000D01*
G37*
G36*
X13000000Y-7800000D02*
G01*
X12700000Y-7800000D01*
X12700000Y-7500000D01*
X13000000Y-7500000D01*
X13000000Y-7800000D01*
G37*
G36*
X13000000Y-8100000D02*
G01*
X12700000Y-8100000D01*
X12700000Y-7800000D01*
X13000000Y-7800000D01*
X13000000Y-8100000D01*
G37*
G36*
X13000000Y-8700000D02*
G01*
X12700000Y-8700000D01*
X12700000Y-8400000D01*
X13000000Y-8400000D01*
X13000000Y-8700000D01*
G37*
G36*
X13000000Y-9300000D02*
G01*
X12700000Y-9300000D01*
X12700000Y-9000000D01*
X13000000Y-9000000D01*
X13000000Y-9300000D01*
G37*
G36*
X13000000Y-9600000D02*
G01*
X12700000Y-9600000D01*
X12700000Y-9300000D01*
X13000000Y-9300000D01*
X13000000Y-9600000D01*
G37*
G36*
X13000000Y-10500000D02*
G01*
X12700000Y-10500000D01*
X12700000Y-10200000D01*
X13000000Y-10200000D01*
X13000000Y-10500000D01*
G37*
G36*
X13000000Y-10800000D02*
G01*
X12700000Y-10800000D01*
X12700000Y-10500000D01*
X13000000Y-10500000D01*
X13000000Y-10800000D01*
G37*
G36*
X13000000Y-11100000D02*
G01*
X12700000Y-11100000D01*
X12700000Y-10800000D01*
X13000000Y-10800000D01*
X13000000Y-11100000D01*
G37*
G36*
X13000000Y-11400000D02*
G01*
X12700000Y-11400000D01*
X12700000Y-11100000D01*
X13000000Y-11100000D01*
X13000000Y-11400000D01*
G37*
G36*
X13000000Y-12000000D02*
G01*
X12700000Y-12000000D01*
X12700000Y-11700000D01*
X13000000Y-11700000D01*
X13000000Y-12000000D01*
G37*
G36*
X13000000Y-12300000D02*
G01*
X12700000Y-12300000D01*
X12700000Y-12000000D01*
X13000000Y-12000000D01*
X13000000Y-12300000D01*
G37*
G36*
X13000000Y-12600000D02*
G01*
X12700000Y-12600000D01*
X12700000Y-12300000D01*
X13000000Y-12300000D01*
X13000000Y-12600000D01*
G37*
G36*
X13000000Y-13800000D02*
G01*
X12700000Y-13800000D01*
X12700000Y-12600000D01*
X13000000Y-12600000D01*
X13000000Y-13800000D01*
G37*
G36*
X13300000Y-1500000D02*
G01*
X13000000Y-1500000D01*
X13000000Y-300000D01*
X13300000Y-300000D01*
X13300000Y-1500000D01*
G37*
G36*
X13300000Y-1800000D02*
G01*
X13000000Y-1800000D01*
X13000000Y-1500000D01*
X13300000Y-1500000D01*
X13300000Y-1800000D01*
G37*
G36*
X13300000Y-2100000D02*
G01*
X13000000Y-2100000D01*
X13000000Y-1800000D01*
X13300000Y-1800000D01*
X13300000Y-2100000D01*
G37*
G36*
X13300000Y-2400000D02*
G01*
X13000000Y-2400000D01*
X13000000Y-2100000D01*
X13300000Y-2100000D01*
X13300000Y-2400000D01*
G37*
G36*
X13300000Y-2700000D02*
G01*
X13000000Y-2700000D01*
X13000000Y-2400000D01*
X13300000Y-2400000D01*
X13300000Y-2700000D01*
G37*
G36*
X13300000Y-3300000D02*
G01*
X13000000Y-3300000D01*
X13000000Y-3000000D01*
X13300000Y-3000000D01*
X13300000Y-3300000D01*
G37*
G36*
X13300000Y-3600000D02*
G01*
X13000000Y-3600000D01*
X13000000Y-3300000D01*
X13300000Y-3300000D01*
X13300000Y-3600000D01*
G37*
G36*
X13300000Y-3900000D02*
G01*
X13000000Y-3900000D01*
X13000000Y-3600000D01*
X13300000Y-3600000D01*
X13300000Y-3900000D01*
G37*
G36*
X13300000Y-4200000D02*
G01*
X13000000Y-4200000D01*
X13000000Y-3900000D01*
X13300000Y-3900000D01*
X13300000Y-4200000D01*
G37*
G36*
X13300000Y-4500000D02*
G01*
X13000000Y-4500000D01*
X13000000Y-4200000D01*
X13300000Y-4200000D01*
X13300000Y-4500000D01*
G37*
G36*
X13300000Y-5100000D02*
G01*
X13000000Y-5100000D01*
X13000000Y-4800000D01*
X13300000Y-4800000D01*
X13300000Y-5100000D01*
G37*
G36*
X13300000Y-6300000D02*
G01*
X13000000Y-6300000D01*
X13000000Y-6000000D01*
X13300000Y-6000000D01*
X13300000Y-6300000D01*
G37*
G36*
X13300000Y-6600000D02*
G01*
X13000000Y-6600000D01*
X13000000Y-6300000D01*
X13300000Y-6300000D01*
X13300000Y-6600000D01*
G37*
G36*
X13300000Y-6900000D02*
G01*
X13000000Y-6900000D01*
X13000000Y-6600000D01*
X13300000Y-6600000D01*
X13300000Y-6900000D01*
G37*
G36*
X13300000Y-7200000D02*
G01*
X13000000Y-7200000D01*
X13000000Y-6900000D01*
X13300000Y-6900000D01*
X13300000Y-7200000D01*
G37*
G36*
X13300000Y-7800000D02*
G01*
X13000000Y-7800000D01*
X13000000Y-7500000D01*
X13300000Y-7500000D01*
X13300000Y-7800000D01*
G37*
G36*
X13300000Y-8100000D02*
G01*
X13000000Y-8100000D01*
X13000000Y-7800000D01*
X13300000Y-7800000D01*
X13300000Y-8100000D01*
G37*
G36*
X13300000Y-9000000D02*
G01*
X13000000Y-9000000D01*
X13000000Y-8700000D01*
X13300000Y-8700000D01*
X13300000Y-9000000D01*
G37*
G36*
X13300000Y-9300000D02*
G01*
X13000000Y-9300000D01*
X13000000Y-9000000D01*
X13300000Y-9000000D01*
X13300000Y-9300000D01*
G37*
G36*
X13300000Y-11700000D02*
G01*
X13000000Y-11700000D01*
X13000000Y-11400000D01*
X13300000Y-11400000D01*
X13300000Y-11700000D01*
G37*
G36*
X13300000Y-12300000D02*
G01*
X13000000Y-12300000D01*
X13000000Y-12000000D01*
X13300000Y-12000000D01*
X13300000Y-12300000D01*
G37*
G36*
X13300000Y-12600000D02*
G01*
X13000000Y-12600000D01*
X13000000Y-12300000D01*
X13300000Y-12300000D01*
X13300000Y-12600000D01*
G37*
G36*
X13300000Y-13800000D02*
G01*
X13000000Y-13800000D01*
X13000000Y-12600000D01*
X13300000Y-12600000D01*
X13300000Y-13800000D01*
G37*
G36*
X13600000Y-1500000D02*
G01*
X13300000Y-1500000D01*
X13300000Y-300000D01*
X13600000Y-300000D01*
X13600000Y-1500000D01*
G37*
G36*
X13600000Y-2100000D02*
G01*
X13300000Y-2100000D01*
X13300000Y-1800000D01*
X13600000Y-1800000D01*
X13600000Y-2100000D01*
G37*
G36*
X13600000Y-2400000D02*
G01*
X13300000Y-2400000D01*
X13300000Y-2100000D01*
X13600000Y-2100000D01*
X13600000Y-2400000D01*
G37*
G36*
X13600000Y-3000000D02*
G01*
X13300000Y-3000000D01*
X13300000Y-2700000D01*
X13600000Y-2700000D01*
X13600000Y-3000000D01*
G37*
G36*
X13600000Y-3900000D02*
G01*
X13300000Y-3900000D01*
X13300000Y-3600000D01*
X13600000Y-3600000D01*
X13600000Y-3900000D01*
G37*
G36*
X13600000Y-5700000D02*
G01*
X13300000Y-5700000D01*
X13300000Y-5400000D01*
X13600000Y-5400000D01*
X13600000Y-5700000D01*
G37*
G36*
X13600000Y-6300000D02*
G01*
X13300000Y-6300000D01*
X13300000Y-6000000D01*
X13600000Y-6000000D01*
X13600000Y-6300000D01*
G37*
G36*
X13600000Y-7500000D02*
G01*
X13300000Y-7500000D01*
X13300000Y-7200000D01*
X13600000Y-7200000D01*
X13600000Y-7500000D01*
G37*
G36*
X13600000Y-7800000D02*
G01*
X13300000Y-7800000D01*
X13300000Y-7500000D01*
X13600000Y-7500000D01*
X13600000Y-7800000D01*
G37*
G36*
X13600000Y-8100000D02*
G01*
X13300000Y-8100000D01*
X13300000Y-7800000D01*
X13600000Y-7800000D01*
X13600000Y-8100000D01*
G37*
G36*
X13600000Y-8700000D02*
G01*
X13300000Y-8700000D01*
X13300000Y-8400000D01*
X13600000Y-8400000D01*
X13600000Y-8700000D01*
G37*
G36*
X13600000Y-9000000D02*
G01*
X13300000Y-9000000D01*
X13300000Y-8700000D01*
X13600000Y-8700000D01*
X13600000Y-9000000D01*
G37*
G36*
X13600000Y-9300000D02*
G01*
X13300000Y-9300000D01*
X13300000Y-9000000D01*
X13600000Y-9000000D01*
X13600000Y-9300000D01*
G37*
G36*
X13600000Y-9900000D02*
G01*
X13300000Y-9900000D01*
X13300000Y-9600000D01*
X13600000Y-9600000D01*
X13600000Y-9900000D01*
G37*
G36*
X13600000Y-10200000D02*
G01*
X13300000Y-10200000D01*
X13300000Y-9900000D01*
X13600000Y-9900000D01*
X13600000Y-10200000D01*
G37*
G36*
X13600000Y-10500000D02*
G01*
X13300000Y-10500000D01*
X13300000Y-10200000D01*
X13600000Y-10200000D01*
X13600000Y-10500000D01*
G37*
G36*
X13600000Y-10800000D02*
G01*
X13300000Y-10800000D01*
X13300000Y-10500000D01*
X13600000Y-10500000D01*
X13600000Y-10800000D01*
G37*
G36*
X13600000Y-11700000D02*
G01*
X13300000Y-11700000D01*
X13300000Y-11400000D01*
X13600000Y-11400000D01*
X13600000Y-11700000D01*
G37*
G36*
X13600000Y-12000000D02*
G01*
X13300000Y-12000000D01*
X13300000Y-11700000D01*
X13600000Y-11700000D01*
X13600000Y-12000000D01*
G37*
G36*
X13600000Y-12600000D02*
G01*
X13300000Y-12600000D01*
X13300000Y-12300000D01*
X13600000Y-12300000D01*
X13600000Y-12600000D01*
G37*
G36*
X13600000Y-13800000D02*
G01*
X13300000Y-13800000D01*
X13300000Y-12600000D01*
X13600000Y-12600000D01*
X13600000Y-13800000D01*
G37*
G36*
X13900000Y-1500000D02*
G01*
X13600000Y-1500000D01*
X13600000Y-300000D01*
X13900000Y-300000D01*
X13900000Y-1500000D01*
G37*
G36*
X13900000Y-2700000D02*
G01*
X13600000Y-2700000D01*
X13600000Y-2400000D01*
X13900000Y-2400000D01*
X13900000Y-2700000D01*
G37*
G36*
X13900000Y-3000000D02*
G01*
X13600000Y-3000000D01*
X13600000Y-2700000D01*
X13900000Y-2700000D01*
X13900000Y-3000000D01*
G37*
G36*
X13900000Y-3300000D02*
G01*
X13600000Y-3300000D01*
X13600000Y-3000000D01*
X13900000Y-3000000D01*
X13900000Y-3300000D01*
G37*
G36*
X13900000Y-3600000D02*
G01*
X13600000Y-3600000D01*
X13600000Y-3300000D01*
X13900000Y-3300000D01*
X13900000Y-3600000D01*
G37*
G36*
X13900000Y-4200000D02*
G01*
X13600000Y-4200000D01*
X13600000Y-3900000D01*
X13900000Y-3900000D01*
X13900000Y-4200000D01*
G37*
G36*
X13900000Y-5700000D02*
G01*
X13600000Y-5700000D01*
X13600000Y-5400000D01*
X13900000Y-5400000D01*
X13900000Y-5700000D01*
G37*
G36*
X13900000Y-6300000D02*
G01*
X13600000Y-6300000D01*
X13600000Y-6000000D01*
X13900000Y-6000000D01*
X13900000Y-6300000D01*
G37*
G36*
X13900000Y-7200000D02*
G01*
X13600000Y-7200000D01*
X13600000Y-6900000D01*
X13900000Y-6900000D01*
X13900000Y-7200000D01*
G37*
G36*
X13900000Y-8700000D02*
G01*
X13600000Y-8700000D01*
X13600000Y-8400000D01*
X13900000Y-8400000D01*
X13900000Y-8700000D01*
G37*
G36*
X13900000Y-9000000D02*
G01*
X13600000Y-9000000D01*
X13600000Y-8700000D01*
X13900000Y-8700000D01*
X13900000Y-9000000D01*
G37*
G36*
X13900000Y-10200000D02*
G01*
X13600000Y-10200000D01*
X13600000Y-9900000D01*
X13900000Y-9900000D01*
X13900000Y-10200000D01*
G37*
G36*
X13900000Y-11700000D02*
G01*
X13600000Y-11700000D01*
X13600000Y-11400000D01*
X13900000Y-11400000D01*
X13900000Y-11700000D01*
G37*
G36*
X13900000Y-13800000D02*
G01*
X13600000Y-13800000D01*
X13600000Y-12600000D01*
X13900000Y-12600000D01*
X13900000Y-13800000D01*
G37*
G36*
X14200000Y-1500000D02*
G01*
X13900000Y-1500000D01*
X13900000Y-300000D01*
X14200000Y-300000D01*
X14200000Y-1500000D01*
G37*
G36*
X14200000Y-2400000D02*
G01*
X13900000Y-2400000D01*
X13900000Y-2100000D01*
X14200000Y-2100000D01*
X14200000Y-2400000D01*
G37*
G36*
X14200000Y-3900000D02*
G01*
X13900000Y-3900000D01*
X13900000Y-3600000D01*
X14200000Y-3600000D01*
X14200000Y-3900000D01*
G37*
G36*
X14200000Y-4200000D02*
G01*
X13900000Y-4200000D01*
X13900000Y-3900000D01*
X14200000Y-3900000D01*
X14200000Y-4200000D01*
G37*
G36*
X14200000Y-5100000D02*
G01*
X13900000Y-5100000D01*
X13900000Y-4800000D01*
X14200000Y-4800000D01*
X14200000Y-5100000D01*
G37*
G36*
X14200000Y-5400000D02*
G01*
X13900000Y-5400000D01*
X13900000Y-5100000D01*
X14200000Y-5100000D01*
X14200000Y-5400000D01*
G37*
G36*
X14200000Y-7200000D02*
G01*
X13900000Y-7200000D01*
X13900000Y-6900000D01*
X14200000Y-6900000D01*
X14200000Y-7200000D01*
G37*
G36*
X14200000Y-7800000D02*
G01*
X13900000Y-7800000D01*
X13900000Y-7500000D01*
X14200000Y-7500000D01*
X14200000Y-7800000D01*
G37*
G36*
X14200000Y-9000000D02*
G01*
X13900000Y-9000000D01*
X13900000Y-8700000D01*
X14200000Y-8700000D01*
X14200000Y-9000000D01*
G37*
G36*
X14200000Y-9900000D02*
G01*
X13900000Y-9900000D01*
X13900000Y-9600000D01*
X14200000Y-9600000D01*
X14200000Y-9900000D01*
G37*
G36*
X14200000Y-10200000D02*
G01*
X13900000Y-10200000D01*
X13900000Y-9900000D01*
X14200000Y-9900000D01*
X14200000Y-10200000D01*
G37*
G36*
X14200000Y-10800000D02*
G01*
X13900000Y-10800000D01*
X13900000Y-10500000D01*
X14200000Y-10500000D01*
X14200000Y-10800000D01*
G37*
G36*
X14200000Y-11100000D02*
G01*
X13900000Y-11100000D01*
X13900000Y-10800000D01*
X14200000Y-10800000D01*
X14200000Y-11100000D01*
G37*
G36*
X14200000Y-11400000D02*
G01*
X13900000Y-11400000D01*
X13900000Y-11100000D01*
X14200000Y-11100000D01*
X14200000Y-11400000D01*
G37*
G36*
X14200000Y-12000000D02*
G01*
X13900000Y-12000000D01*
X13900000Y-11700000D01*
X14200000Y-11700000D01*
X14200000Y-12000000D01*
G37*
G36*
X14200000Y-12300000D02*
G01*
X13900000Y-12300000D01*
X13900000Y-12000000D01*
X14200000Y-12000000D01*
X14200000Y-12300000D01*
G37*
G36*
X14200000Y-12600000D02*
G01*
X13900000Y-12600000D01*
X13900000Y-12300000D01*
X14200000Y-12300000D01*
X14200000Y-12600000D01*
G37*
G36*
X14200000Y-13800000D02*
G01*
X13900000Y-13800000D01*
X13900000Y-12600000D01*
X14200000Y-12600000D01*
X14200000Y-13800000D01*
G37*
G36*
X14500000Y-1500000D02*
G01*
X14200000Y-1500000D01*
X14200000Y-300000D01*
X14500000Y-300000D01*
X14500000Y-1500000D01*
G37*
G36*
X14500000Y-1800000D02*
G01*
X14200000Y-1800000D01*
X14200000Y-1500000D01*
X14500000Y-1500000D01*
X14500000Y-1800000D01*
G37*
G36*
X14500000Y-2100000D02*
G01*
X14200000Y-2100000D01*
X14200000Y-1800000D01*
X14500000Y-1800000D01*
X14500000Y-2100000D01*
G37*
G36*
X14500000Y-2400000D02*
G01*
X14200000Y-2400000D01*
X14200000Y-2100000D01*
X14500000Y-2100000D01*
X14500000Y-2400000D01*
G37*
G36*
X14500000Y-2700000D02*
G01*
X14200000Y-2700000D01*
X14200000Y-2400000D01*
X14500000Y-2400000D01*
X14500000Y-2700000D01*
G37*
G36*
X14500000Y-3000000D02*
G01*
X14200000Y-3000000D01*
X14200000Y-2700000D01*
X14500000Y-2700000D01*
X14500000Y-3000000D01*
G37*
G36*
X14500000Y-3300000D02*
G01*
X14200000Y-3300000D01*
X14200000Y-3000000D01*
X14500000Y-3000000D01*
X14500000Y-3300000D01*
G37*
G36*
X14500000Y-3600000D02*
G01*
X14200000Y-3600000D01*
X14200000Y-3300000D01*
X14500000Y-3300000D01*
X14500000Y-3600000D01*
G37*
G36*
X14500000Y-3900000D02*
G01*
X14200000Y-3900000D01*
X14200000Y-3600000D01*
X14500000Y-3600000D01*
X14500000Y-3900000D01*
G37*
G36*
X14500000Y-4200000D02*
G01*
X14200000Y-4200000D01*
X14200000Y-3900000D01*
X14500000Y-3900000D01*
X14500000Y-4200000D01*
G37*
G36*
X14500000Y-4500000D02*
G01*
X14200000Y-4500000D01*
X14200000Y-4200000D01*
X14500000Y-4200000D01*
X14500000Y-4500000D01*
G37*
G36*
X14500000Y-4800000D02*
G01*
X14200000Y-4800000D01*
X14200000Y-4500000D01*
X14500000Y-4500000D01*
X14500000Y-4800000D01*
G37*
G36*
X14500000Y-5100000D02*
G01*
X14200000Y-5100000D01*
X14200000Y-4800000D01*
X14500000Y-4800000D01*
X14500000Y-5100000D01*
G37*
G36*
X14500000Y-6000000D02*
G01*
X14200000Y-6000000D01*
X14200000Y-5700000D01*
X14500000Y-5700000D01*
X14500000Y-6000000D01*
G37*
G36*
X14500000Y-6600000D02*
G01*
X14200000Y-6600000D01*
X14200000Y-6300000D01*
X14500000Y-6300000D01*
X14500000Y-6600000D01*
G37*
G36*
X14500000Y-6900000D02*
G01*
X14200000Y-6900000D01*
X14200000Y-6600000D01*
X14500000Y-6600000D01*
X14500000Y-6900000D01*
G37*
G36*
X14500000Y-8400000D02*
G01*
X14200000Y-8400000D01*
X14200000Y-8100000D01*
X14500000Y-8100000D01*
X14500000Y-8400000D01*
G37*
G36*
X14500000Y-9000000D02*
G01*
X14200000Y-9000000D01*
X14200000Y-8700000D01*
X14500000Y-8700000D01*
X14500000Y-9000000D01*
G37*
G36*
X14500000Y-9300000D02*
G01*
X14200000Y-9300000D01*
X14200000Y-9000000D01*
X14500000Y-9000000D01*
X14500000Y-9300000D01*
G37*
G36*
X14500000Y-9600000D02*
G01*
X14200000Y-9600000D01*
X14200000Y-9300000D01*
X14500000Y-9300000D01*
X14500000Y-9600000D01*
G37*
G36*
X14500000Y-9900000D02*
G01*
X14200000Y-9900000D01*
X14200000Y-9600000D01*
X14500000Y-9600000D01*
X14500000Y-9900000D01*
G37*
G36*
X14500000Y-10500000D02*
G01*
X14200000Y-10500000D01*
X14200000Y-10200000D01*
X14500000Y-10200000D01*
X14500000Y-10500000D01*
G37*
G36*
X14500000Y-10800000D02*
G01*
X14200000Y-10800000D01*
X14200000Y-10500000D01*
X14500000Y-10500000D01*
X14500000Y-10800000D01*
G37*
G36*
X14500000Y-11100000D02*
G01*
X14200000Y-11100000D01*
X14200000Y-10800000D01*
X14500000Y-10800000D01*
X14500000Y-11100000D01*
G37*
G36*
X14500000Y-11400000D02*
G01*
X14200000Y-11400000D01*
X14200000Y-11100000D01*
X14500000Y-11100000D01*
X14500000Y-11400000D01*
G37*
G36*
X14500000Y-11700000D02*
G01*
X14200000Y-11700000D01*
X14200000Y-11400000D01*
X14500000Y-11400000D01*
X14500000Y-11700000D01*
G37*
G36*
X14500000Y-12000000D02*
G01*
X14200000Y-12000000D01*
X14200000Y-11700000D01*
X14500000Y-11700000D01*
X14500000Y-12000000D01*
G37*
G36*
X14500000Y-12300000D02*
G01*
X14200000Y-12300000D01*
X14200000Y-12000000D01*
X14500000Y-12000000D01*
X14500000Y-12300000D01*
G37*
G36*
X14500000Y-12600000D02*
G01*
X14200000Y-12600000D01*
X14200000Y-12300000D01*
X14500000Y-12300000D01*
X14500000Y-12600000D01*
G37*
G36*
X14500000Y-13800000D02*
G01*
X14200000Y-13800000D01*
X14200000Y-12600000D01*
X14500000Y-12600000D01*
X14500000Y-13800000D01*
G37*
G36*
X14800000Y-1500000D02*
G01*
X14500000Y-1500000D01*
X14500000Y-300000D01*
X14800000Y-300000D01*
X14800000Y-1500000D01*
G37*
G36*
X14800000Y-3900000D02*
G01*
X14500000Y-3900000D01*
X14500000Y-3600000D01*
X14800000Y-3600000D01*
X14800000Y-3900000D01*
G37*
G36*
X14800000Y-4500000D02*
G01*
X14500000Y-4500000D01*
X14500000Y-4200000D01*
X14800000Y-4200000D01*
X14800000Y-4500000D01*
G37*
G36*
X14800000Y-5100000D02*
G01*
X14500000Y-5100000D01*
X14500000Y-4800000D01*
X14800000Y-4800000D01*
X14800000Y-5100000D01*
G37*
G36*
X14800000Y-5700000D02*
G01*
X14500000Y-5700000D01*
X14500000Y-5400000D01*
X14800000Y-5400000D01*
X14800000Y-5700000D01*
G37*
G36*
X14800000Y-6300000D02*
G01*
X14500000Y-6300000D01*
X14500000Y-6000000D01*
X14800000Y-6000000D01*
X14800000Y-6300000D01*
G37*
G36*
X14800000Y-6900000D02*
G01*
X14500000Y-6900000D01*
X14500000Y-6600000D01*
X14800000Y-6600000D01*
X14800000Y-6900000D01*
G37*
G36*
X14800000Y-7500000D02*
G01*
X14500000Y-7500000D01*
X14500000Y-7200000D01*
X14800000Y-7200000D01*
X14800000Y-7500000D01*
G37*
G36*
X14800000Y-8100000D02*
G01*
X14500000Y-8100000D01*
X14500000Y-7800000D01*
X14800000Y-7800000D01*
X14800000Y-8100000D01*
G37*
G36*
X14800000Y-8700000D02*
G01*
X14500000Y-8700000D01*
X14500000Y-8400000D01*
X14800000Y-8400000D01*
X14800000Y-8700000D01*
G37*
G36*
X14800000Y-9300000D02*
G01*
X14500000Y-9300000D01*
X14500000Y-9000000D01*
X14800000Y-9000000D01*
X14800000Y-9300000D01*
G37*
G36*
X14800000Y-9900000D02*
G01*
X14500000Y-9900000D01*
X14500000Y-9600000D01*
X14800000Y-9600000D01*
X14800000Y-9900000D01*
G37*
G36*
X14800000Y-10500000D02*
G01*
X14500000Y-10500000D01*
X14500000Y-10200000D01*
X14800000Y-10200000D01*
X14800000Y-10500000D01*
G37*
G36*
X14800000Y-13800000D02*
G01*
X14500000Y-13800000D01*
X14500000Y-12600000D01*
X14800000Y-12600000D01*
X14800000Y-13800000D01*
G37*
G36*
X15100000Y-1500000D02*
G01*
X14800000Y-1500000D01*
X14800000Y-300000D01*
X15100000Y-300000D01*
X15100000Y-1500000D01*
G37*
G36*
X15100000Y-2100000D02*
G01*
X14800000Y-2100000D01*
X14800000Y-1800000D01*
X15100000Y-1800000D01*
X15100000Y-2100000D01*
G37*
G36*
X15100000Y-2400000D02*
G01*
X14800000Y-2400000D01*
X14800000Y-2100000D01*
X15100000Y-2100000D01*
X15100000Y-2400000D01*
G37*
G36*
X15100000Y-2700000D02*
G01*
X14800000Y-2700000D01*
X14800000Y-2400000D01*
X15100000Y-2400000D01*
X15100000Y-2700000D01*
G37*
G36*
X15100000Y-3000000D02*
G01*
X14800000Y-3000000D01*
X14800000Y-2700000D01*
X15100000Y-2700000D01*
X15100000Y-3000000D01*
G37*
G36*
X15100000Y-3300000D02*
G01*
X14800000Y-3300000D01*
X14800000Y-3000000D01*
X15100000Y-3000000D01*
X15100000Y-3300000D01*
G37*
G36*
X15100000Y-3900000D02*
G01*
X14800000Y-3900000D01*
X14800000Y-3600000D01*
X15100000Y-3600000D01*
X15100000Y-3900000D01*
G37*
G36*
X15100000Y-4200000D02*
G01*
X14800000Y-4200000D01*
X14800000Y-3900000D01*
X15100000Y-3900000D01*
X15100000Y-4200000D01*
G37*
G36*
X15100000Y-4500000D02*
G01*
X14800000Y-4500000D01*
X14800000Y-4200000D01*
X15100000Y-4200000D01*
X15100000Y-4500000D01*
G37*
G36*
X15100000Y-5100000D02*
G01*
X14800000Y-5100000D01*
X14800000Y-4800000D01*
X15100000Y-4800000D01*
X15100000Y-5100000D01*
G37*
G36*
X15100000Y-5400000D02*
G01*
X14800000Y-5400000D01*
X14800000Y-5100000D01*
X15100000Y-5100000D01*
X15100000Y-5400000D01*
G37*
G36*
X15100000Y-6000000D02*
G01*
X14800000Y-6000000D01*
X14800000Y-5700000D01*
X15100000Y-5700000D01*
X15100000Y-6000000D01*
G37*
G36*
X15100000Y-7200000D02*
G01*
X14800000Y-7200000D01*
X14800000Y-6900000D01*
X15100000Y-6900000D01*
X15100000Y-7200000D01*
G37*
G36*
X15100000Y-7500000D02*
G01*
X14800000Y-7500000D01*
X14800000Y-7200000D01*
X15100000Y-7200000D01*
X15100000Y-7500000D01*
G37*
G36*
X15100000Y-7800000D02*
G01*
X14800000Y-7800000D01*
X14800000Y-7500000D01*
X15100000Y-7500000D01*
X15100000Y-7800000D01*
G37*
G36*
X15100000Y-8700000D02*
G01*
X14800000Y-8700000D01*
X14800000Y-8400000D01*
X15100000Y-8400000D01*
X15100000Y-8700000D01*
G37*
G36*
X15100000Y-9600000D02*
G01*
X14800000Y-9600000D01*
X14800000Y-9300000D01*
X15100000Y-9300000D01*
X15100000Y-9600000D01*
G37*
G36*
X15100000Y-9900000D02*
G01*
X14800000Y-9900000D01*
X14800000Y-9600000D01*
X15100000Y-9600000D01*
X15100000Y-9900000D01*
G37*
G36*
X15100000Y-10500000D02*
G01*
X14800000Y-10500000D01*
X14800000Y-10200000D01*
X15100000Y-10200000D01*
X15100000Y-10500000D01*
G37*
G36*
X15100000Y-11100000D02*
G01*
X14800000Y-11100000D01*
X14800000Y-10800000D01*
X15100000Y-10800000D01*
X15100000Y-11100000D01*
G37*
G36*
X15100000Y-11400000D02*
G01*
X14800000Y-11400000D01*
X14800000Y-11100000D01*
X15100000Y-11100000D01*
X15100000Y-11400000D01*
G37*
G36*
X15100000Y-11700000D02*
G01*
X14800000Y-11700000D01*
X14800000Y-11400000D01*
X15100000Y-11400000D01*
X15100000Y-11700000D01*
G37*
G36*
X15100000Y-12000000D02*
G01*
X14800000Y-12000000D01*
X14800000Y-11700000D01*
X15100000Y-11700000D01*
X15100000Y-12000000D01*
G37*
G36*
X15100000Y-12300000D02*
G01*
X14800000Y-12300000D01*
X14800000Y-12000000D01*
X15100000Y-12000000D01*
X15100000Y-12300000D01*
G37*
G36*
X15100000Y-13800000D02*
G01*
X14800000Y-13800000D01*
X14800000Y-12600000D01*
X15100000Y-12600000D01*
X15100000Y-13800000D01*
G37*
G36*
X15400000Y-1500000D02*
G01*
X15100000Y-1500000D01*
X15100000Y-300000D01*
X15400000Y-300000D01*
X15400000Y-1500000D01*
G37*
G36*
X15400000Y-2100000D02*
G01*
X15100000Y-2100000D01*
X15100000Y-1800000D01*
X15400000Y-1800000D01*
X15400000Y-2100000D01*
G37*
G36*
X15400000Y-3300000D02*
G01*
X15100000Y-3300000D01*
X15100000Y-3000000D01*
X15400000Y-3000000D01*
X15400000Y-3300000D01*
G37*
G36*
X15400000Y-3900000D02*
G01*
X15100000Y-3900000D01*
X15100000Y-3600000D01*
X15400000Y-3600000D01*
X15400000Y-3900000D01*
G37*
G36*
X15400000Y-4200000D02*
G01*
X15100000Y-4200000D01*
X15100000Y-3900000D01*
X15400000Y-3900000D01*
X15400000Y-4200000D01*
G37*
G36*
X15400000Y-5100000D02*
G01*
X15100000Y-5100000D01*
X15100000Y-4800000D01*
X15400000Y-4800000D01*
X15400000Y-5100000D01*
G37*
G36*
X15400000Y-6000000D02*
G01*
X15100000Y-6000000D01*
X15100000Y-5700000D01*
X15400000Y-5700000D01*
X15400000Y-6000000D01*
G37*
G36*
X15400000Y-6300000D02*
G01*
X15100000Y-6300000D01*
X15100000Y-6000000D01*
X15400000Y-6000000D01*
X15400000Y-6300000D01*
G37*
G36*
X15400000Y-6900000D02*
G01*
X15100000Y-6900000D01*
X15100000Y-6600000D01*
X15400000Y-6600000D01*
X15400000Y-6900000D01*
G37*
G36*
X15400000Y-8100000D02*
G01*
X15100000Y-8100000D01*
X15100000Y-7800000D01*
X15400000Y-7800000D01*
X15400000Y-8100000D01*
G37*
G36*
X15400000Y-9000000D02*
G01*
X15100000Y-9000000D01*
X15100000Y-8700000D01*
X15400000Y-8700000D01*
X15400000Y-9000000D01*
G37*
G36*
X15400000Y-9900000D02*
G01*
X15100000Y-9900000D01*
X15100000Y-9600000D01*
X15400000Y-9600000D01*
X15400000Y-9900000D01*
G37*
G36*
X15400000Y-10500000D02*
G01*
X15100000Y-10500000D01*
X15100000Y-10200000D01*
X15400000Y-10200000D01*
X15400000Y-10500000D01*
G37*
G36*
X15400000Y-11100000D02*
G01*
X15100000Y-11100000D01*
X15100000Y-10800000D01*
X15400000Y-10800000D01*
X15400000Y-11100000D01*
G37*
G36*
X15400000Y-12300000D02*
G01*
X15100000Y-12300000D01*
X15100000Y-12000000D01*
X15400000Y-12000000D01*
X15400000Y-12300000D01*
G37*
G36*
X15400000Y-13800000D02*
G01*
X15100000Y-13800000D01*
X15100000Y-12600000D01*
X15400000Y-12600000D01*
X15400000Y-13800000D01*
G37*
G36*
X15700000Y-1500000D02*
G01*
X15400000Y-1500000D01*
X15400000Y-300000D01*
X15700000Y-300000D01*
X15700000Y-1500000D01*
G37*
G36*
X15700000Y-2100000D02*
G01*
X15400000Y-2100000D01*
X15400000Y-1800000D01*
X15700000Y-1800000D01*
X15700000Y-2100000D01*
G37*
G36*
X15700000Y-3300000D02*
G01*
X15400000Y-3300000D01*
X15400000Y-3000000D01*
X15700000Y-3000000D01*
X15700000Y-3300000D01*
G37*
G36*
X15700000Y-3900000D02*
G01*
X15400000Y-3900000D01*
X15400000Y-3600000D01*
X15700000Y-3600000D01*
X15700000Y-3900000D01*
G37*
G36*
X15700000Y-4800000D02*
G01*
X15400000Y-4800000D01*
X15400000Y-4500000D01*
X15700000Y-4500000D01*
X15700000Y-4800000D01*
G37*
G36*
X15700000Y-5100000D02*
G01*
X15400000Y-5100000D01*
X15400000Y-4800000D01*
X15700000Y-4800000D01*
X15700000Y-5100000D01*
G37*
G36*
X15700000Y-5400000D02*
G01*
X15400000Y-5400000D01*
X15400000Y-5100000D01*
X15700000Y-5100000D01*
X15700000Y-5400000D01*
G37*
G36*
X15700000Y-6000000D02*
G01*
X15400000Y-6000000D01*
X15400000Y-5700000D01*
X15700000Y-5700000D01*
X15700000Y-6000000D01*
G37*
G36*
X15700000Y-6300000D02*
G01*
X15400000Y-6300000D01*
X15400000Y-6000000D01*
X15700000Y-6000000D01*
X15700000Y-6300000D01*
G37*
G36*
X15700000Y-6600000D02*
G01*
X15400000Y-6600000D01*
X15400000Y-6300000D01*
X15700000Y-6300000D01*
X15700000Y-6600000D01*
G37*
G36*
X15700000Y-7200000D02*
G01*
X15400000Y-7200000D01*
X15400000Y-6900000D01*
X15700000Y-6900000D01*
X15700000Y-7200000D01*
G37*
G36*
X15700000Y-7500000D02*
G01*
X15400000Y-7500000D01*
X15400000Y-7200000D01*
X15700000Y-7200000D01*
X15700000Y-7500000D01*
G37*
G36*
X15700000Y-7800000D02*
G01*
X15400000Y-7800000D01*
X15400000Y-7500000D01*
X15700000Y-7500000D01*
X15700000Y-7800000D01*
G37*
G36*
X15700000Y-8400000D02*
G01*
X15400000Y-8400000D01*
X15400000Y-8100000D01*
X15700000Y-8100000D01*
X15700000Y-8400000D01*
G37*
G36*
X15700000Y-9000000D02*
G01*
X15400000Y-9000000D01*
X15400000Y-8700000D01*
X15700000Y-8700000D01*
X15700000Y-9000000D01*
G37*
G36*
X15700000Y-9300000D02*
G01*
X15400000Y-9300000D01*
X15400000Y-9000000D01*
X15700000Y-9000000D01*
X15700000Y-9300000D01*
G37*
G36*
X15700000Y-9600000D02*
G01*
X15400000Y-9600000D01*
X15400000Y-9300000D01*
X15700000Y-9300000D01*
X15700000Y-9600000D01*
G37*
G36*
X15700000Y-10200000D02*
G01*
X15400000Y-10200000D01*
X15400000Y-9900000D01*
X15700000Y-9900000D01*
X15700000Y-10200000D01*
G37*
G36*
X15700000Y-10500000D02*
G01*
X15400000Y-10500000D01*
X15400000Y-10200000D01*
X15700000Y-10200000D01*
X15700000Y-10500000D01*
G37*
G36*
X15700000Y-11100000D02*
G01*
X15400000Y-11100000D01*
X15400000Y-10800000D01*
X15700000Y-10800000D01*
X15700000Y-11100000D01*
G37*
G36*
X15700000Y-12300000D02*
G01*
X15400000Y-12300000D01*
X15400000Y-12000000D01*
X15700000Y-12000000D01*
X15700000Y-12300000D01*
G37*
G36*
X15700000Y-13800000D02*
G01*
X15400000Y-13800000D01*
X15400000Y-12600000D01*
X15700000Y-12600000D01*
X15700000Y-13800000D01*
G37*
G36*
X16000000Y-1500000D02*
G01*
X15700000Y-1500000D01*
X15700000Y-300000D01*
X16000000Y-300000D01*
X16000000Y-1500000D01*
G37*
G36*
X16000000Y-2100000D02*
G01*
X15700000Y-2100000D01*
X15700000Y-1800000D01*
X16000000Y-1800000D01*
X16000000Y-2100000D01*
G37*
G36*
X16000000Y-3300000D02*
G01*
X15700000Y-3300000D01*
X15700000Y-3000000D01*
X16000000Y-3000000D01*
X16000000Y-3300000D01*
G37*
G36*
X16000000Y-3900000D02*
G01*
X15700000Y-3900000D01*
X15700000Y-3600000D01*
X16000000Y-3600000D01*
X16000000Y-3900000D01*
G37*
G36*
X16000000Y-4200000D02*
G01*
X15700000Y-4200000D01*
X15700000Y-3900000D01*
X16000000Y-3900000D01*
X16000000Y-4200000D01*
G37*
G36*
X16000000Y-5400000D02*
G01*
X15700000Y-5400000D01*
X15700000Y-5100000D01*
X16000000Y-5100000D01*
X16000000Y-5400000D01*
G37*
G36*
X16000000Y-5700000D02*
G01*
X15700000Y-5700000D01*
X15700000Y-5400000D01*
X16000000Y-5400000D01*
X16000000Y-5700000D01*
G37*
G36*
X16000000Y-6300000D02*
G01*
X15700000Y-6300000D01*
X15700000Y-6000000D01*
X16000000Y-6000000D01*
X16000000Y-6300000D01*
G37*
G36*
X16000000Y-6600000D02*
G01*
X15700000Y-6600000D01*
X15700000Y-6300000D01*
X16000000Y-6300000D01*
X16000000Y-6600000D01*
G37*
G36*
X16000000Y-7200000D02*
G01*
X15700000Y-7200000D01*
X15700000Y-6900000D01*
X16000000Y-6900000D01*
X16000000Y-7200000D01*
G37*
G36*
X16000000Y-7800000D02*
G01*
X15700000Y-7800000D01*
X15700000Y-7500000D01*
X16000000Y-7500000D01*
X16000000Y-7800000D01*
G37*
G36*
X16000000Y-8100000D02*
G01*
X15700000Y-8100000D01*
X15700000Y-7800000D01*
X16000000Y-7800000D01*
X16000000Y-8100000D01*
G37*
G36*
X16000000Y-8700000D02*
G01*
X15700000Y-8700000D01*
X15700000Y-8400000D01*
X16000000Y-8400000D01*
X16000000Y-8700000D01*
G37*
G36*
X16000000Y-9000000D02*
G01*
X15700000Y-9000000D01*
X15700000Y-8700000D01*
X16000000Y-8700000D01*
X16000000Y-9000000D01*
G37*
G36*
X16000000Y-9300000D02*
G01*
X15700000Y-9300000D01*
X15700000Y-9000000D01*
X16000000Y-9000000D01*
X16000000Y-9300000D01*
G37*
G36*
X16000000Y-9600000D02*
G01*
X15700000Y-9600000D01*
X15700000Y-9300000D01*
X16000000Y-9300000D01*
X16000000Y-9600000D01*
G37*
G36*
X16000000Y-10500000D02*
G01*
X15700000Y-10500000D01*
X15700000Y-10200000D01*
X16000000Y-10200000D01*
X16000000Y-10500000D01*
G37*
G36*
X16000000Y-11100000D02*
G01*
X15700000Y-11100000D01*
X15700000Y-10800000D01*
X16000000Y-10800000D01*
X16000000Y-11100000D01*
G37*
G36*
X16000000Y-12300000D02*
G01*
X15700000Y-12300000D01*
X15700000Y-12000000D01*
X16000000Y-12000000D01*
X16000000Y-12300000D01*
G37*
G36*
X16000000Y-13800000D02*
G01*
X15700000Y-13800000D01*
X15700000Y-12600000D01*
X16000000Y-12600000D01*
X16000000Y-13800000D01*
G37*
G36*
X16300000Y-1500000D02*
G01*
X16000000Y-1500000D01*
X16000000Y-300000D01*
X16300000Y-300000D01*
X16300000Y-1500000D01*
G37*
G36*
X16300000Y-2100000D02*
G01*
X16000000Y-2100000D01*
X16000000Y-1800000D01*
X16300000Y-1800000D01*
X16300000Y-2100000D01*
G37*
G36*
X16300000Y-2400000D02*
G01*
X16000000Y-2400000D01*
X16000000Y-2100000D01*
X16300000Y-2100000D01*
X16300000Y-2400000D01*
G37*
G36*
X16300000Y-2700000D02*
G01*
X16000000Y-2700000D01*
X16000000Y-2400000D01*
X16300000Y-2400000D01*
X16300000Y-2700000D01*
G37*
G36*
X16300000Y-3000000D02*
G01*
X16000000Y-3000000D01*
X16000000Y-2700000D01*
X16300000Y-2700000D01*
X16300000Y-3000000D01*
G37*
G36*
X16300000Y-3300000D02*
G01*
X16000000Y-3300000D01*
X16000000Y-3000000D01*
X16300000Y-3000000D01*
X16300000Y-3300000D01*
G37*
G36*
X16300000Y-3900000D02*
G01*
X16000000Y-3900000D01*
X16000000Y-3600000D01*
X16300000Y-3600000D01*
X16300000Y-3900000D01*
G37*
G36*
X16300000Y-4200000D02*
G01*
X16000000Y-4200000D01*
X16000000Y-3900000D01*
X16300000Y-3900000D01*
X16300000Y-4200000D01*
G37*
G36*
X16300000Y-5700000D02*
G01*
X16000000Y-5700000D01*
X16000000Y-5400000D01*
X16300000Y-5400000D01*
X16300000Y-5700000D01*
G37*
G36*
X16300000Y-6000000D02*
G01*
X16000000Y-6000000D01*
X16000000Y-5700000D01*
X16300000Y-5700000D01*
X16300000Y-6000000D01*
G37*
G36*
X16300000Y-6600000D02*
G01*
X16000000Y-6600000D01*
X16000000Y-6300000D01*
X16300000Y-6300000D01*
X16300000Y-6600000D01*
G37*
G36*
X16300000Y-7200000D02*
G01*
X16000000Y-7200000D01*
X16000000Y-6900000D01*
X16300000Y-6900000D01*
X16300000Y-7200000D01*
G37*
G36*
X16300000Y-7500000D02*
G01*
X16000000Y-7500000D01*
X16000000Y-7200000D01*
X16300000Y-7200000D01*
X16300000Y-7500000D01*
G37*
G36*
X16300000Y-7800000D02*
G01*
X16000000Y-7800000D01*
X16000000Y-7500000D01*
X16300000Y-7500000D01*
X16300000Y-7800000D01*
G37*
G36*
X16300000Y-8100000D02*
G01*
X16000000Y-8100000D01*
X16000000Y-7800000D01*
X16300000Y-7800000D01*
X16300000Y-8100000D01*
G37*
G36*
X16300000Y-8700000D02*
G01*
X16000000Y-8700000D01*
X16000000Y-8400000D01*
X16300000Y-8400000D01*
X16300000Y-8700000D01*
G37*
G36*
X16300000Y-9000000D02*
G01*
X16000000Y-9000000D01*
X16000000Y-8700000D01*
X16300000Y-8700000D01*
X16300000Y-9000000D01*
G37*
G36*
X16300000Y-9600000D02*
G01*
X16000000Y-9600000D01*
X16000000Y-9300000D01*
X16300000Y-9300000D01*
X16300000Y-9600000D01*
G37*
G36*
X16300000Y-10500000D02*
G01*
X16000000Y-10500000D01*
X16000000Y-10200000D01*
X16300000Y-10200000D01*
X16300000Y-10500000D01*
G37*
G36*
X16300000Y-11100000D02*
G01*
X16000000Y-11100000D01*
X16000000Y-10800000D01*
X16300000Y-10800000D01*
X16300000Y-11100000D01*
G37*
G36*
X16300000Y-11400000D02*
G01*
X16000000Y-11400000D01*
X16000000Y-11100000D01*
X16300000Y-11100000D01*
X16300000Y-11400000D01*
G37*
G36*
X16300000Y-11700000D02*
G01*
X16000000Y-11700000D01*
X16000000Y-11400000D01*
X16300000Y-11400000D01*
X16300000Y-11700000D01*
G37*
G36*
X16300000Y-12000000D02*
G01*
X16000000Y-12000000D01*
X16000000Y-11700000D01*
X16300000Y-11700000D01*
X16300000Y-12000000D01*
G37*
G36*
X16300000Y-12300000D02*
G01*
X16000000Y-12300000D01*
X16000000Y-12000000D01*
X16300000Y-12000000D01*
X16300000Y-12300000D01*
G37*
G36*
X16300000Y-13800000D02*
G01*
X16000000Y-13800000D01*
X16000000Y-12600000D01*
X16300000Y-12600000D01*
X16300000Y-13800000D01*
G37*
G36*
X16600000Y-1500000D02*
G01*
X16300000Y-1500000D01*
X16300000Y-300000D01*
X16600000Y-300000D01*
X16600000Y-1500000D01*
G37*
G36*
X16600000Y-3900000D02*
G01*
X16300000Y-3900000D01*
X16300000Y-3600000D01*
X16600000Y-3600000D01*
X16600000Y-3900000D01*
G37*
G36*
X16600000Y-4200000D02*
G01*
X16300000Y-4200000D01*
X16300000Y-3900000D01*
X16600000Y-3900000D01*
X16600000Y-4200000D01*
G37*
G36*
X16600000Y-6300000D02*
G01*
X16300000Y-6300000D01*
X16300000Y-6000000D01*
X16600000Y-6000000D01*
X16600000Y-6300000D01*
G37*
G36*
X16600000Y-8100000D02*
G01*
X16300000Y-8100000D01*
X16300000Y-7800000D01*
X16600000Y-7800000D01*
X16600000Y-8100000D01*
G37*
G36*
X16600000Y-8400000D02*
G01*
X16300000Y-8400000D01*
X16300000Y-8100000D01*
X16600000Y-8100000D01*
X16600000Y-8400000D01*
G37*
G36*
X16600000Y-8700000D02*
G01*
X16300000Y-8700000D01*
X16300000Y-8400000D01*
X16600000Y-8400000D01*
X16600000Y-8700000D01*
G37*
G36*
X16600000Y-9300000D02*
G01*
X16300000Y-9300000D01*
X16300000Y-9000000D01*
X16600000Y-9000000D01*
X16600000Y-9300000D01*
G37*
G36*
X16600000Y-9900000D02*
G01*
X16300000Y-9900000D01*
X16300000Y-9600000D01*
X16600000Y-9600000D01*
X16600000Y-9900000D01*
G37*
G36*
X16600000Y-10500000D02*
G01*
X16300000Y-10500000D01*
X16300000Y-10200000D01*
X16600000Y-10200000D01*
X16600000Y-10500000D01*
G37*
G36*
X16600000Y-13800000D02*
G01*
X16300000Y-13800000D01*
X16300000Y-12600000D01*
X16600000Y-12600000D01*
X16600000Y-13800000D01*
G37*
G36*
X17800000Y-1500000D02*
G01*
X16600000Y-1500000D01*
X16600000Y-300000D01*
X17800000Y-300000D01*
X17800000Y-1500000D01*
G37*
G36*
X17800000Y-1800000D02*
G01*
X16600000Y-1800000D01*
X16600000Y-1500000D01*
X17800000Y-1500000D01*
X17800000Y-1800000D01*
G37*
G36*
X17800000Y-2100000D02*
G01*
X16600000Y-2100000D01*
X16600000Y-1800000D01*
X17800000Y-1800000D01*
X17800000Y-2100000D01*
G37*
G36*
X17800000Y-2400000D02*
G01*
X16600000Y-2400000D01*
X16600000Y-2100000D01*
X17800000Y-2100000D01*
X17800000Y-2400000D01*
G37*
G36*
X17800000Y-2700000D02*
G01*
X16600000Y-2700000D01*
X16600000Y-2400000D01*
X17800000Y-2400000D01*
X17800000Y-2700000D01*
G37*
G36*
X17800000Y-3000000D02*
G01*
X16600000Y-3000000D01*
X16600000Y-2700000D01*
X17800000Y-2700000D01*
X17800000Y-3000000D01*
G37*
G36*
X17800000Y-3300000D02*
G01*
X16600000Y-3300000D01*
X16600000Y-3000000D01*
X17800000Y-3000000D01*
X17800000Y-3300000D01*
G37*
G36*
X17800000Y-3600000D02*
G01*
X16600000Y-3600000D01*
X16600000Y-3300000D01*
X17800000Y-3300000D01*
X17800000Y-3600000D01*
G37*
G36*
X17800000Y-3900000D02*
G01*
X16600000Y-3900000D01*
X16600000Y-3600000D01*
X17800000Y-3600000D01*
X17800000Y-3900000D01*
G37*
G36*
X17800000Y-4200000D02*
G01*
X16600000Y-4200000D01*
X16600000Y-3900000D01*
X17800000Y-3900000D01*
X17800000Y-4200000D01*
G37*
G36*
X17800000Y-4500000D02*
G01*
X16600000Y-4500000D01*
X16600000Y-4200000D01*
X17800000Y-4200000D01*
X17800000Y-4500000D01*
G37*
G36*
X17800000Y-4800000D02*
G01*
X16600000Y-4800000D01*
X16600000Y-4500000D01*
X17800000Y-4500000D01*
X17800000Y-4800000D01*
G37*
G36*
X17800000Y-5100000D02*
G01*
X16600000Y-5100000D01*
X16600000Y-4800000D01*
X17800000Y-4800000D01*
X17800000Y-5100000D01*
G37*
G36*
X17800000Y-5400000D02*
G01*
X16600000Y-5400000D01*
X16600000Y-5100000D01*
X17800000Y-5100000D01*
X17800000Y-5400000D01*
G37*
G36*
X17800000Y-5700000D02*
G01*
X16600000Y-5700000D01*
X16600000Y-5400000D01*
X17800000Y-5400000D01*
X17800000Y-5700000D01*
G37*
G36*
X17800000Y-6000000D02*
G01*
X16600000Y-6000000D01*
X16600000Y-5700000D01*
X17800000Y-5700000D01*
X17800000Y-6000000D01*
G37*
G36*
X17800000Y-6300000D02*
G01*
X16600000Y-6300000D01*
X16600000Y-6000000D01*
X17800000Y-6000000D01*
X17800000Y-6300000D01*
G37*
G36*
X17800000Y-6600000D02*
G01*
X16600000Y-6600000D01*
X16600000Y-6300000D01*
X17800000Y-6300000D01*
X17800000Y-6600000D01*
G37*
G36*
X17800000Y-6900000D02*
G01*
X16600000Y-6900000D01*
X16600000Y-6600000D01*
X17800000Y-6600000D01*
X17800000Y-6900000D01*
G37*
G36*
X17800000Y-7200000D02*
G01*
X16600000Y-7200000D01*
X16600000Y-6900000D01*
X17800000Y-6900000D01*
X17800000Y-7200000D01*
G37*
G36*
X17800000Y-7500000D02*
G01*
X16600000Y-7500000D01*
X16600000Y-7200000D01*
X17800000Y-7200000D01*
X17800000Y-7500000D01*
G37*
G36*
X17800000Y-7800000D02*
G01*
X16600000Y-7800000D01*
X16600000Y-7500000D01*
X17800000Y-7500000D01*
X17800000Y-7800000D01*
G37*
G36*
X17800000Y-8100000D02*
G01*
X16600000Y-8100000D01*
X16600000Y-7800000D01*
X17800000Y-7800000D01*
X17800000Y-8100000D01*
G37*
G36*
X17800000Y-8400000D02*
G01*
X16600000Y-8400000D01*
X16600000Y-8100000D01*
X17800000Y-8100000D01*
X17800000Y-8400000D01*
G37*
G36*
X17800000Y-8700000D02*
G01*
X16600000Y-8700000D01*
X16600000Y-8400000D01*
X17800000Y-8400000D01*
X17800000Y-8700000D01*
G37*
G36*
X17800000Y-9000000D02*
G01*
X16600000Y-9000000D01*
X16600000Y-8700000D01*
X17800000Y-8700000D01*
X17800000Y-9000000D01*
G37*
G36*
X17800000Y-9300000D02*
G01*
X16600000Y-9300000D01*
X16600000Y-9000000D01*
X17800000Y-9000000D01*
X17800000Y-9300000D01*
G37*
G36*
X17800000Y-9600000D02*
G01*
X16600000Y-9600000D01*
X16600000Y-9300000D01*
X17800000Y-9300000D01*
X17800000Y-9600000D01*
G37*
G36*
X17800000Y-9900000D02*
G01*
X16600000Y-9900000D01*
X16600000Y-9600000D01*
X17800000Y-9600000D01*
X17800000Y-9900000D01*
G37*
G36*
X17800000Y-10200000D02*
G01*
X16600000Y-10200000D01*
X16600000Y-9900000D01*
X17800000Y-9900000D01*
X17800000Y-10200000D01*
G37*
G36*
X17800000Y-10500000D02*
G01*
X16600000Y-10500000D01*
X16600000Y-10200000D01*
X17800000Y-10200000D01*
X17800000Y-10500000D01*
G37*
G36*
X17800000Y-10800000D02*
G01*
X16600000Y-10800000D01*
X16600000Y-10500000D01*
X17800000Y-10500000D01*
X17800000Y-10800000D01*
G37*
G36*
X17800000Y-11100000D02*
G01*
X16600000Y-11100000D01*
X16600000Y-10800000D01*
X17800000Y-10800000D01*
X17800000Y-11100000D01*
G37*
G36*
X17800000Y-11400000D02*
G01*
X16600000Y-11400000D01*
X16600000Y-11100000D01*
X17800000Y-11100000D01*
X17800000Y-11400000D01*
G37*
G36*
X17800000Y-11700000D02*
G01*
X16600000Y-11700000D01*
X16600000Y-11400000D01*
X17800000Y-11400000D01*
X17800000Y-11700000D01*
G37*
G36*
X17800000Y-12000000D02*
G01*
X16600000Y-12000000D01*
X16600000Y-11700000D01*
X17800000Y-11700000D01*
X17800000Y-12000000D01*
G37*
G36*
X17800000Y-12300000D02*
G01*
X16600000Y-12300000D01*
X16600000Y-12000000D01*
X17800000Y-12000000D01*
X17800000Y-12300000D01*
G37*
G36*
X17800000Y-12600000D02*
G01*
X16600000Y-12600000D01*
X16600000Y-12300000D01*
X17800000Y-12300000D01*
X17800000Y-12600000D01*
G37*
G36*
X17800000Y-13800000D02*
G01*
X16600000Y-13800000D01*
X16600000Y-12600000D01*
X17800000Y-12600000D01*
X17800000Y-13800000D01*
G37*
G36*
X19100000Y-12700000D02*
G01*
X18780000Y-12700000D01*
X18780000Y-12380000D01*
X19100000Y-12380000D01*
X19100000Y-12700000D01*
G37*
G36*
X19660000Y-2060000D02*
G01*
X19340000Y-2060000D01*
X19340000Y-1740000D01*
X19660000Y-1740000D01*
X19660000Y-2060000D01*
G37*
G36*
X21180000Y-4620000D02*
G01*
X20700000Y-4620000D01*
X20700000Y-4140000D01*
X21180000Y-4140000D01*
X21180000Y-4620000D01*
G37*
D11*
X18700000Y-1980000D02*
X18700000Y-15900000D01*
X23820000Y-15900000D01*
X25100000Y-14620000D01*
X25100000Y-700000D01*
X19980000Y-700000D01*
X18700000Y-1980000D01*
D12*
X18940000Y-8700000D02*
X18940000Y-12460000D01*
D13*
X19220000Y-15060000D02*
X19220000Y-15380000D01*
X19220000Y-15380000D02*
X20060000Y-15380000D01*
D12*
X19500000Y-1900000D02*
X19500000Y-8140000D01*
X19500000Y-8140000D02*
X18940000Y-8700000D01*
D14*
X20300000Y-5100000D02*
X23100000Y-5100000D01*
X20700000Y-2100000D02*
X23100000Y-2900000D01*
X20700000Y-9260000D02*
X20700000Y-10620000D01*
X20700000Y-9260000D02*
X23100000Y-9260000D01*
X20700000Y-10620000D02*
X21100000Y-11020000D01*
X20700000Y-11420000D02*
X20700000Y-12780000D01*
X20700000Y-11420000D02*
X23100000Y-11420000D01*
X20700000Y-12780000D02*
X21100000Y-13180000D01*
D15*
X20940000Y-13740000D02*
X20940000Y-15260000D01*
D14*
X21100000Y-11020000D02*
X21500000Y-11020000D01*
X21100000Y-13180000D02*
X21500000Y-13180000D01*
X21500000Y-4380000D02*
X23100000Y-4380000D01*
X21500000Y-5100000D02*
X21500000Y-6460000D01*
X21500000Y-6460000D02*
X21900000Y-6860000D01*
X21500000Y-7580000D02*
X21500000Y-8460000D01*
X21500000Y-8460000D02*
X21900000Y-8780000D01*
X21500000Y-11020000D02*
X21900000Y-10620000D01*
X21500000Y-13180000D02*
X21900000Y-12780000D01*
D15*
X21740000Y-14220000D02*
X21740000Y-15260000D01*
D14*
X21900000Y-6860000D02*
X22700000Y-6860000D01*
X21900000Y-7260000D02*
X21500000Y-7580000D01*
X21900000Y-8780000D02*
X22300000Y-8780000D01*
X21900000Y-9260000D02*
X21900000Y-10620000D01*
X21900000Y-10620000D02*
X21900000Y-9260000D01*
X21900000Y-10620000D02*
X22300000Y-11020000D01*
X21900000Y-11420000D02*
X21900000Y-12780000D01*
X21900000Y-12780000D02*
X21900000Y-11420000D01*
X21900000Y-12780000D02*
X22300000Y-13180000D01*
X22300000Y-8780000D02*
X22300000Y-7260000D01*
X22300000Y-11020000D02*
X22700000Y-11020000D01*
X22300000Y-13180000D02*
X22700000Y-13180000D01*
D15*
X22540000Y-13740000D02*
X22540000Y-14780000D01*
D14*
X22700000Y-6860000D02*
X23100000Y-6460000D01*
X22700000Y-7260000D02*
X21900000Y-7260000D01*
X22700000Y-8780000D02*
X23100000Y-8460000D01*
X22700000Y-11020000D02*
X23100000Y-10620000D01*
X22700000Y-13180000D02*
X23100000Y-12780000D01*
X23100000Y-2900000D02*
X20700000Y-3700000D01*
X23100000Y-6460000D02*
X23100000Y-5100000D01*
X23100000Y-7580000D02*
X22700000Y-7260000D01*
X23100000Y-8460000D02*
X23100000Y-7580000D01*
X23100000Y-10620000D02*
X23100000Y-9260000D01*
X23100000Y-12780000D02*
X23100000Y-11420000D01*
D13*
X24540000Y-1900000D02*
X23980000Y-1900000D01*
X24540000Y-2460000D02*
X23660000Y-2460000D01*
X24540000Y-3020000D02*
X24140000Y-3020000D01*
X24540000Y-3580000D02*
X23660000Y-3580000D01*
X24540000Y-4140000D02*
X24140000Y-4140000D01*
X24540000Y-4700000D02*
X23980000Y-4700000D01*
X24540000Y-5260000D02*
X23660000Y-5260000D01*
X24540000Y-5820000D02*
X24140000Y-5820000D01*
X24540000Y-6380000D02*
X23980000Y-6380000D01*
X24540000Y-6940000D02*
X23660000Y-6940000D01*
X24540000Y-7500000D02*
X24140000Y-7500000D01*
X24540000Y-8060000D02*
X23980000Y-8060000D01*
X24540000Y-8620000D02*
X23660000Y-8620000D01*
X24540000Y-9180000D02*
X24140000Y-9180000D01*
X24540000Y-9740000D02*
X23980000Y-9740000D01*
X24540000Y-10300000D02*
X23660000Y-10300000D01*
X24540000Y-10860000D02*
X24140000Y-10860000D01*
X24540000Y-11420000D02*
X23980000Y-11420000D01*
X24540000Y-11980000D02*
X23660000Y-11980000D01*
X24540000Y-12540000D02*
X24140000Y-12540000D01*
X24540000Y-13100000D02*
X23980000Y-13100000D01*
X24580000Y-1220000D02*
X23740000Y-1220000D01*
X24580000Y-1540000D02*
X24580000Y-1220000D01*
D16*
X16330952Y-15093852D02*
X16330952Y-15903376D01*
X16330952Y-15903376D02*
X16378571Y-15998614D01*
X16378571Y-15998614D02*
X16426190Y-16046233D01*
X16426190Y-16046233D02*
X16521428Y-16093852D01*
X16521428Y-16093852D02*
X16664285Y-16093852D01*
X16664285Y-16093852D02*
X16759523Y-16046233D01*
X16330952Y-15712900D02*
X16426190Y-15760519D01*
X16426190Y-15760519D02*
X16616666Y-15760519D01*
X16616666Y-15760519D02*
X16711904Y-15712900D01*
X16711904Y-15712900D02*
X16759523Y-15665280D01*
X16759523Y-15665280D02*
X16807142Y-15570042D01*
X16807142Y-15570042D02*
X16807142Y-15284328D01*
X16807142Y-15284328D02*
X16759523Y-15189090D01*
X16759523Y-15189090D02*
X16711904Y-15141471D01*
X16711904Y-15141471D02*
X16616666Y-15093852D01*
X16616666Y-15093852D02*
X16426190Y-15093852D01*
X16426190Y-15093852D02*
X16330952Y-15141471D01*
X15711904Y-15760519D02*
X15807142Y-15712900D01*
X15807142Y-15712900D02*
X15854761Y-15665280D01*
X15854761Y-15665280D02*
X15902380Y-15570042D01*
X15902380Y-15570042D02*
X15902380Y-15284328D01*
X15902380Y-15284328D02*
X15854761Y-15189090D01*
X15854761Y-15189090D02*
X15807142Y-15141471D01*
X15807142Y-15141471D02*
X15711904Y-15093852D01*
X15711904Y-15093852D02*
X15569047Y-15093852D01*
X15569047Y-15093852D02*
X15473809Y-15141471D01*
X15473809Y-15141471D02*
X15426190Y-15189090D01*
X15426190Y-15189090D02*
X15378571Y-15284328D01*
X15378571Y-15284328D02*
X15378571Y-15570042D01*
X15378571Y-15570042D02*
X15426190Y-15665280D01*
X15426190Y-15665280D02*
X15473809Y-15712900D01*
X15473809Y-15712900D02*
X15569047Y-15760519D01*
X15569047Y-15760519D02*
X15711904Y-15760519D01*
X14807142Y-15760519D02*
X14902380Y-15712900D01*
X14902380Y-15712900D02*
X14949999Y-15617661D01*
X14949999Y-15617661D02*
X14949999Y-14760519D01*
X13997618Y-15760519D02*
X13997618Y-14760519D01*
X13997618Y-15712900D02*
X14092856Y-15760519D01*
X14092856Y-15760519D02*
X14283332Y-15760519D01*
X14283332Y-15760519D02*
X14378570Y-15712900D01*
X14378570Y-15712900D02*
X14426189Y-15665280D01*
X14426189Y-15665280D02*
X14473808Y-15570042D01*
X14473808Y-15570042D02*
X14473808Y-15284328D01*
X14473808Y-15284328D02*
X14426189Y-15189090D01*
X14426189Y-15189090D02*
X14378570Y-15141471D01*
X14378570Y-15141471D02*
X14283332Y-15093852D01*
X14283332Y-15093852D02*
X14092856Y-15093852D01*
X14092856Y-15093852D02*
X13997618Y-15141471D01*
X13140475Y-15712900D02*
X13235713Y-15760519D01*
X13235713Y-15760519D02*
X13426189Y-15760519D01*
X13426189Y-15760519D02*
X13521427Y-15712900D01*
X13521427Y-15712900D02*
X13569046Y-15617661D01*
X13569046Y-15617661D02*
X13569046Y-15236709D01*
X13569046Y-15236709D02*
X13521427Y-15141471D01*
X13521427Y-15141471D02*
X13426189Y-15093852D01*
X13426189Y-15093852D02*
X13235713Y-15093852D01*
X13235713Y-15093852D02*
X13140475Y-15141471D01*
X13140475Y-15141471D02*
X13092856Y-15236709D01*
X13092856Y-15236709D02*
X13092856Y-15331947D01*
X13092856Y-15331947D02*
X13569046Y-15427185D01*
X12664284Y-15093852D02*
X12664284Y-15760519D01*
X12664284Y-15189090D02*
X12616665Y-15141471D01*
X12616665Y-15141471D02*
X12521427Y-15093852D01*
X12521427Y-15093852D02*
X12378570Y-15093852D01*
X12378570Y-15093852D02*
X12283332Y-15141471D01*
X12283332Y-15141471D02*
X12235713Y-15236709D01*
X12235713Y-15236709D02*
X12235713Y-15760519D01*
X11759522Y-15379566D02*
X10997618Y-15379566D01*
X10092856Y-15760519D02*
X10092856Y-14760519D01*
X10092856Y-15712900D02*
X10188094Y-15760519D01*
X10188094Y-15760519D02*
X10378570Y-15760519D01*
X10378570Y-15760519D02*
X10473808Y-15712900D01*
X10473808Y-15712900D02*
X10521427Y-15665280D01*
X10521427Y-15665280D02*
X10569046Y-15570042D01*
X10569046Y-15570042D02*
X10569046Y-15284328D01*
X10569046Y-15284328D02*
X10521427Y-15189090D01*
X10521427Y-15189090D02*
X10473808Y-15141471D01*
X10473808Y-15141471D02*
X10378570Y-15093852D01*
X10378570Y-15093852D02*
X10188094Y-15093852D01*
X10188094Y-15093852D02*
X10092856Y-15141471D01*
X9235713Y-15712900D02*
X9330951Y-15760519D01*
X9330951Y-15760519D02*
X9521427Y-15760519D01*
X9521427Y-15760519D02*
X9616665Y-15712900D01*
X9616665Y-15712900D02*
X9664284Y-15617661D01*
X9664284Y-15617661D02*
X9664284Y-15236709D01*
X9664284Y-15236709D02*
X9616665Y-15141471D01*
X9616665Y-15141471D02*
X9521427Y-15093852D01*
X9521427Y-15093852D02*
X9330951Y-15093852D01*
X9330951Y-15093852D02*
X9235713Y-15141471D01*
X9235713Y-15141471D02*
X9188094Y-15236709D01*
X9188094Y-15236709D02*
X9188094Y-15331947D01*
X9188094Y-15331947D02*
X9664284Y-15427185D01*
X8807141Y-15712900D02*
X8711903Y-15760519D01*
X8711903Y-15760519D02*
X8521427Y-15760519D01*
X8521427Y-15760519D02*
X8426189Y-15712900D01*
X8426189Y-15712900D02*
X8378570Y-15617661D01*
X8378570Y-15617661D02*
X8378570Y-15570042D01*
X8378570Y-15570042D02*
X8426189Y-15474804D01*
X8426189Y-15474804D02*
X8521427Y-15427185D01*
X8521427Y-15427185D02*
X8664284Y-15427185D01*
X8664284Y-15427185D02*
X8759522Y-15379566D01*
X8759522Y-15379566D02*
X8807141Y-15284328D01*
X8807141Y-15284328D02*
X8807141Y-15236709D01*
X8807141Y-15236709D02*
X8759522Y-15141471D01*
X8759522Y-15141471D02*
X8664284Y-15093852D01*
X8664284Y-15093852D02*
X8521427Y-15093852D01*
X8521427Y-15093852D02*
X8426189Y-15141471D01*
X7949998Y-15760519D02*
X7949998Y-15093852D01*
X7949998Y-14760519D02*
X7997617Y-14808138D01*
X7997617Y-14808138D02*
X7949998Y-14855757D01*
X7949998Y-14855757D02*
X7902379Y-14808138D01*
X7902379Y-14808138D02*
X7949998Y-14760519D01*
X7949998Y-14760519D02*
X7949998Y-14855757D01*
X7045237Y-15093852D02*
X7045237Y-15903376D01*
X7045237Y-15903376D02*
X7092856Y-15998614D01*
X7092856Y-15998614D02*
X7140475Y-16046233D01*
X7140475Y-16046233D02*
X7235713Y-16093852D01*
X7235713Y-16093852D02*
X7378570Y-16093852D01*
X7378570Y-16093852D02*
X7473808Y-16046233D01*
X7045237Y-15712900D02*
X7140475Y-15760519D01*
X7140475Y-15760519D02*
X7330951Y-15760519D01*
X7330951Y-15760519D02*
X7426189Y-15712900D01*
X7426189Y-15712900D02*
X7473808Y-15665280D01*
X7473808Y-15665280D02*
X7521427Y-15570042D01*
X7521427Y-15570042D02*
X7521427Y-15284328D01*
X7521427Y-15284328D02*
X7473808Y-15189090D01*
X7473808Y-15189090D02*
X7426189Y-15141471D01*
X7426189Y-15141471D02*
X7330951Y-15093852D01*
X7330951Y-15093852D02*
X7140475Y-15093852D01*
X7140475Y-15093852D02*
X7045237Y-15141471D01*
X6569046Y-15093852D02*
X6569046Y-15760519D01*
X6569046Y-15189090D02*
X6521427Y-15141471D01*
X6521427Y-15141471D02*
X6426189Y-15093852D01*
X6426189Y-15093852D02*
X6283332Y-15093852D01*
X6283332Y-15093852D02*
X6188094Y-15141471D01*
X6188094Y-15141471D02*
X6140475Y-15236709D01*
X6140475Y-15236709D02*
X6140475Y-15760519D01*
X5664284Y-15379566D02*
X4902380Y-15379566D01*
X3902380Y-15760519D02*
X4473808Y-15760519D01*
X4188094Y-15760519D02*
X4188094Y-14760519D01*
X4188094Y-14760519D02*
X4283332Y-14903376D01*
X4283332Y-14903376D02*
X4378570Y-14998614D01*
X4378570Y-14998614D02*
X4473808Y-15046233D01*
X3473808Y-15379566D02*
X2711904Y-15379566D01*
X2235713Y-15760519D02*
X2235713Y-15093852D01*
X2235713Y-15284328D02*
X2188094Y-15189090D01*
X2188094Y-15189090D02*
X2140475Y-15141471D01*
X2140475Y-15141471D02*
X2045237Y-15093852D01*
X2045237Y-15093852D02*
X1949999Y-15093852D01*
X1092856Y-15760519D02*
X1664284Y-15760519D01*
X1378570Y-15760519D02*
X1378570Y-14760519D01*
X1378570Y-14760519D02*
X1473808Y-14903376D01*
X1473808Y-14903376D02*
X1569046Y-14998614D01*
X1569046Y-14998614D02*
X1664284Y-15046233D01*
X28901190Y-17416319D02*
X28901190Y-16416319D01*
X28901190Y-16416319D02*
X28663095Y-16416319D01*
X28663095Y-16416319D02*
X28520238Y-16463938D01*
X28520238Y-16463938D02*
X28425000Y-16559176D01*
X28425000Y-16559176D02*
X28377381Y-16654414D01*
X28377381Y-16654414D02*
X28329762Y-16844890D01*
X28329762Y-16844890D02*
X28329762Y-16987747D01*
X28329762Y-16987747D02*
X28377381Y-17178223D01*
X28377381Y-17178223D02*
X28425000Y-17273461D01*
X28425000Y-17273461D02*
X28520238Y-17368700D01*
X28520238Y-17368700D02*
X28663095Y-17416319D01*
X28663095Y-17416319D02*
X28901190Y-17416319D01*
X27901190Y-16892509D02*
X27567857Y-16892509D01*
X27425000Y-17416319D02*
X27901190Y-17416319D01*
X27901190Y-17416319D02*
X27901190Y-16416319D01*
X27901190Y-16416319D02*
X27425000Y-16416319D01*
X27139285Y-16416319D02*
X26805952Y-17416319D01*
X26805952Y-17416319D02*
X26472619Y-16416319D01*
X25044047Y-16892509D02*
X24901190Y-16940128D01*
X24901190Y-16940128D02*
X24853571Y-16987747D01*
X24853571Y-16987747D02*
X24805952Y-17082985D01*
X24805952Y-17082985D02*
X24805952Y-17225842D01*
X24805952Y-17225842D02*
X24853571Y-17321080D01*
X24853571Y-17321080D02*
X24901190Y-17368700D01*
X24901190Y-17368700D02*
X24996428Y-17416319D01*
X24996428Y-17416319D02*
X25377380Y-17416319D01*
X25377380Y-17416319D02*
X25377380Y-16416319D01*
X25377380Y-16416319D02*
X25044047Y-16416319D01*
X25044047Y-16416319D02*
X24948809Y-16463938D01*
X24948809Y-16463938D02*
X24901190Y-16511557D01*
X24901190Y-16511557D02*
X24853571Y-16606795D01*
X24853571Y-16606795D02*
X24853571Y-16702033D01*
X24853571Y-16702033D02*
X24901190Y-16797271D01*
X24901190Y-16797271D02*
X24948809Y-16844890D01*
X24948809Y-16844890D02*
X25044047Y-16892509D01*
X25044047Y-16892509D02*
X25377380Y-16892509D01*
X24186904Y-16416319D02*
X23996428Y-16416319D01*
X23996428Y-16416319D02*
X23901190Y-16463938D01*
X23901190Y-16463938D02*
X23805952Y-16559176D01*
X23805952Y-16559176D02*
X23758333Y-16749652D01*
X23758333Y-16749652D02*
X23758333Y-17082985D01*
X23758333Y-17082985D02*
X23805952Y-17273461D01*
X23805952Y-17273461D02*
X23901190Y-17368700D01*
X23901190Y-17368700D02*
X23996428Y-17416319D01*
X23996428Y-17416319D02*
X24186904Y-17416319D01*
X24186904Y-17416319D02*
X24282142Y-17368700D01*
X24282142Y-17368700D02*
X24377380Y-17273461D01*
X24377380Y-17273461D02*
X24424999Y-17082985D01*
X24424999Y-17082985D02*
X24424999Y-16749652D01*
X24424999Y-16749652D02*
X24377380Y-16559176D01*
X24377380Y-16559176D02*
X24282142Y-16463938D01*
X24282142Y-16463938D02*
X24186904Y-16416319D01*
X23377380Y-17130604D02*
X22901190Y-17130604D01*
X23472618Y-17416319D02*
X23139285Y-16416319D01*
X23139285Y-16416319D02*
X22805952Y-17416319D01*
X21901190Y-17416319D02*
X22234523Y-16940128D01*
X22472618Y-17416319D02*
X22472618Y-16416319D01*
X22472618Y-16416319D02*
X22091666Y-16416319D01*
X22091666Y-16416319D02*
X21996428Y-16463938D01*
X21996428Y-16463938D02*
X21948809Y-16511557D01*
X21948809Y-16511557D02*
X21901190Y-16606795D01*
X21901190Y-16606795D02*
X21901190Y-16749652D01*
X21901190Y-16749652D02*
X21948809Y-16844890D01*
X21948809Y-16844890D02*
X21996428Y-16892509D01*
X21996428Y-16892509D02*
X22091666Y-16940128D01*
X22091666Y-16940128D02*
X22472618Y-16940128D01*
X21472618Y-17416319D02*
X21472618Y-16416319D01*
X21472618Y-16416319D02*
X21234523Y-16416319D01*
X21234523Y-16416319D02*
X21091666Y-16463938D01*
X21091666Y-16463938D02*
X20996428Y-16559176D01*
X20996428Y-16559176D02*
X20948809Y-16654414D01*
X20948809Y-16654414D02*
X20901190Y-16844890D01*
X20901190Y-16844890D02*
X20901190Y-16987747D01*
X20901190Y-16987747D02*
X20948809Y-17178223D01*
X20948809Y-17178223D02*
X20996428Y-17273461D01*
X20996428Y-17273461D02*
X21091666Y-17368700D01*
X21091666Y-17368700D02*
X21234523Y-17416319D01*
X21234523Y-17416319D02*
X21472618Y-17416319D01*
M02*
