M48
; DRILL file KiCad 10.0.6-10.0.6~ubuntu26.04.1 date 2026-08-31T23:19:45
; FORMAT={-:-/ absolute / metric / decimal}
; #@! TF.CreationDate,2026-08-31T23:19:45+00:00
; #@! TF.GenerationSoftware,Kicad,Pcbnew,10.0.6-10.0.6~ubuntu26.04.1
; #@! TF.FileFunction,MixedPlating,1,2
FMAT,2
METRIC
; #@! TA.AperFunction,Plated,PTH,ViaDrill
T1C0.300
; #@! TA.AperFunction,Plated,PTH,ComponentDrill
T2C0.600
; #@! TA.AperFunction,NonPlated,NPTH,ComponentDrill
T3C0.650
; #@! TA.AperFunction,NonPlated,NPTH,ComponentDrill
T4C2.200
%
G90
G05
T1
X0.6Y-6.624
X0.6Y-9.636
X4.383Y-6.9
X8.506Y-13.368
X8.994Y-11.804
X9.027Y-12.582
X10.512Y-20.704
X11.379Y-7.2
X12.103Y-19.759
X13.379Y-23.503
X13.462Y-18.938
X14.392Y-18.936
X16.618Y-18.975
X17.293Y-11.803
X17.373Y-13.3
X18.162Y-11.827
X18.566Y-9.197
X19.595Y-8.578
X19.725Y-15.641
X21.683Y-24.4
X22.206Y-6.615
X22.208Y-8.926
X24.623Y-18.456
X24.813Y-4.922
X25.079Y-4.125
X25.887Y-9.72
X26.221Y-18.482
X29.4Y-6.624
X29.4Y-9.636
X29.4Y-15.66
X29.4Y-18.672
T3
X12.11Y-18.75
X17.89Y-18.75
T4
X3.0Y-3.0
X3.0Y-22.0
X27.0Y-3.0
X27.0Y-22.0
T2
X10.68Y-17.67G85X10.68Y-18.77
G05
X10.68Y-22.1G85X10.68Y-22.7
G05
X19.32Y-17.67G85X19.32Y-18.77
G05
X19.32Y-22.1G85X19.32Y-22.7
G05
M30
