G04 #@! TF.GenerationSoftware,KiCad,Pcbnew,10.0.6-10.0.6~ubuntu26.04.1*
G04 #@! TF.CreationDate,2026-08-31T23:19:45+00:00*
G04 #@! TF.ProjectId,golden-design-1,676f6c64-656e-42d6-9465-7369676e2d31,rev?*
G04 #@! TF.SameCoordinates,Original*
G04 #@! TF.FileFunction,Copper,L2,Bot*
G04 #@! TF.FilePolarity,Positive*
%FSLAX46Y46*%
G04 Gerber Fmt 4.6, Leading zero omitted, Abs format (unit mm)*
G04 Created by KiCad (PCBNEW 10.0.6-10.0.6~ubuntu26.04.1) date 2026-08-31 23:19:45*
%MOMM*%
%LPD*%
G01*
G04 APERTURE LIST*
G04 #@! TA.AperFunction,ComponentPad*
%ADD10O,1.100000X2.200000*%
G04 #@! TD*
G04 #@! TA.AperFunction,ComponentPad*
%ADD11O,1.100000X1.700000*%
G04 #@! TD*
G04 #@! TA.AperFunction,ViaPad*
%ADD12C,0.600000*%
G04 #@! TD*
G04 #@! TA.AperFunction,Conductor*
%ADD13C,0.150000*%
G04 #@! TD*
G04 APERTURE END LIST*
D10*
X10680000Y-18220000D03*
D11*
X10680000Y-22400000D03*
D10*
X19320000Y-18220000D03*
D11*
X19320000Y-22400000D03*
D12*
X17373200Y-13300000D03*
X8506500Y-13368400D03*
X4383000Y-6900000D03*
X17292700Y-11803500D03*
X13379400Y-23503000D03*
X13462400Y-18938200D03*
X16618000Y-18975100D03*
X26221000Y-18482500D03*
X11379200Y-7200000D03*
X18161700Y-11826800D03*
X29400000Y-6623900D03*
X21683500Y-24400000D03*
X29400000Y-18671600D03*
X29400000Y-9635800D03*
X600000Y-6623900D03*
X29400000Y-15659700D03*
X600000Y-9635800D03*
X8994100Y-11804500D03*
X9026500Y-12581800D03*
X10512400Y-20704500D03*
X24812700Y-4921700D03*
X18566000Y-9196500D03*
X12102600Y-19758700D03*
X24623200Y-18456500D03*
X22206100Y-6614900D03*
X25079400Y-4125200D03*
X25886800Y-9720400D03*
X19725000Y-15641500D03*
X22207700Y-8926000D03*
X14392200Y-18935600D03*
X19594600Y-8578100D03*
D13*
X8720500Y-11277700D02*
X15350900Y-11277700D01*
X8464400Y-13326300D02*
X8464400Y-11533800D01*
X8506500Y-13368400D02*
X8464400Y-13326300D01*
X8464400Y-11533800D02*
X8720500Y-11277700D01*
X15350900Y-11277700D02*
X17373200Y-13300000D01*
X15047400Y-9558200D02*
X17292700Y-11803500D01*
X4383000Y-6900000D02*
X7041200Y-9558200D01*
X7041200Y-9558200D02*
X15047400Y-9558200D01*
X13379400Y-19021200D02*
X13462400Y-18938200D01*
X13379400Y-23503000D02*
X13379400Y-19021200D01*
X25714800Y-18988700D02*
X26221000Y-18482500D01*
X18699800Y-16893300D02*
X19641700Y-16893300D01*
X19641700Y-16893300D02*
X21737100Y-18988700D01*
X16618000Y-18975100D02*
X18699800Y-16893300D01*
X21737100Y-18988700D02*
X25714800Y-18988700D01*
X11379200Y-7200000D02*
X13534900Y-7200000D01*
X13534900Y-7200000D02*
X18161700Y-11826800D01*
X10680000Y-18350200D02*
X10680000Y-19546700D01*
X19320000Y-22400000D02*
X19320000Y-18220000D01*
X10680000Y-18350200D02*
X10680000Y-18220000D01*
X10680000Y-13490400D02*
X8994100Y-11804500D01*
X10680000Y-18220000D02*
X10680000Y-13490400D01*
X11039100Y-20964200D02*
X11039100Y-19905800D01*
X10680000Y-21323300D02*
X11039100Y-20964200D01*
X11039100Y-19905800D02*
X10680000Y-19546700D01*
X10680000Y-22400000D02*
X10680000Y-21323300D01*
X10512400Y-20704500D02*
X9033200Y-19225300D01*
X9033200Y-19225300D02*
X9033200Y-12588500D01*
X9033200Y-12588500D02*
X9026500Y-12581800D01*
X18689600Y-9196500D02*
X18566000Y-9196500D01*
X18689600Y-12963800D02*
X18689600Y-9196500D01*
X18689600Y-9196500D02*
X18689600Y-8668700D01*
X12102600Y-19758700D02*
X12852700Y-19008600D01*
X12852700Y-18800700D02*
X18689600Y-12963800D01*
X18689600Y-8668700D02*
X22436600Y-4921700D01*
X12852700Y-19008600D02*
X12852700Y-18800700D01*
X22436600Y-4921700D02*
X24812700Y-4921700D01*
X24623200Y-18456500D02*
X24623200Y-9032000D01*
X24623200Y-9032000D02*
X22206100Y-6614900D01*
X25886800Y-9720400D02*
X25886800Y-4932600D01*
X25886800Y-4932600D02*
X25079400Y-4125200D01*
X19725000Y-15641500D02*
X22207700Y-13158800D01*
X22207700Y-13158800D02*
X22207700Y-8926000D01*
X14392200Y-18935600D02*
X19594600Y-13733200D01*
X19594600Y-13733200D02*
X19594600Y-8578100D01*
G04 #@! TA.AperFunction,Conductor*
G36*
X29677826Y-322174D02*
G01*
X29699500Y-374500D01*
X29699500Y-24625500D01*
X29677826Y-24677826D01*
X29625500Y-24699500D01*
X374500Y-24699500D01*
X322174Y-24677826D01*
X300500Y-24625500D01*
X300500Y-21901582D01*
X1749500Y-21901582D01*
X1749500Y-22098417D01*
X1780290Y-22292823D01*
X1780293Y-22292836D01*
X1841113Y-22480019D01*
X1841114Y-22480020D01*
X1841116Y-22480025D01*
X1930476Y-22655405D01*
X2046172Y-22814646D01*
X2185354Y-22953828D01*
X2344595Y-23069524D01*
X2519975Y-23158884D01*
X2519977Y-23158884D01*
X2519980Y-23158886D01*
X2707163Y-23219706D01*
X2707169Y-23219707D01*
X2707174Y-23219709D01*
X2836780Y-23240236D01*
X2901582Y-23250500D01*
X2901583Y-23250500D01*
X3098418Y-23250500D01*
X3147019Y-23242802D01*
X3292826Y-23219709D01*
X3292833Y-23219706D01*
X3292836Y-23219706D01*
X3480019Y-23158886D01*
X3480019Y-23158885D01*
X3480025Y-23158884D01*
X3655405Y-23069524D01*
X3814646Y-22953828D01*
X3953828Y-22814646D01*
X4069524Y-22655405D01*
X4158884Y-22480025D01*
X4219709Y-22292826D01*
X4250500Y-22098417D01*
X4250500Y-22031057D01*
X9980000Y-22031057D01*
X9980000Y-22325000D01*
X10380000Y-22325000D01*
X10380000Y-22475000D01*
X9980000Y-22475000D01*
X9980000Y-22768942D01*
X10006899Y-22904176D01*
X10006902Y-22904186D01*
X10059667Y-23031573D01*
X10136273Y-23146223D01*
X10233776Y-23243726D01*
X10348426Y-23320332D01*
X10475813Y-23373097D01*
X10475823Y-23373100D01*
X10604999Y-23398794D01*
X10605000Y-23398794D01*
X10605000Y-22990486D01*
X10640504Y-23000000D01*
X10719496Y-23000000D01*
X10755000Y-22990486D01*
X10755000Y-23398794D01*
X10884176Y-23373100D01*
X10884186Y-23373097D01*
X11011573Y-23320332D01*
X11126223Y-23243726D01*
X11126225Y-23243725D01*
X11223725Y-23146225D01*
X11223726Y-23146223D01*
X11300332Y-23031573D01*
X11353097Y-22904186D01*
X11353100Y-22904176D01*
X11380000Y-22768942D01*
X11380000Y-22475000D01*
X10980000Y-22475000D01*
X10980000Y-22325000D01*
X11380000Y-22325000D01*
X11380000Y-22031057D01*
X11353100Y-21895823D01*
X11353097Y-21895813D01*
X11300332Y-21768426D01*
X11223726Y-21653776D01*
X11126223Y-21556273D01*
X11011573Y-21479667D01*
X10884184Y-21426901D01*
X10884177Y-21426899D01*
X10755000Y-21401204D01*
X10755000Y-21809513D01*
X10719496Y-21800000D01*
X10640504Y-21800000D01*
X10605000Y-21809513D01*
X10605000Y-21401204D01*
X10475822Y-21426899D01*
X10475815Y-21426901D01*
X10348426Y-21479667D01*
X10233776Y-21556273D01*
X10233775Y-21556275D01*
X10136275Y-21653775D01*
X10136273Y-21653776D01*
X10059667Y-21768426D01*
X10006902Y-21895813D01*
X10006899Y-21895823D01*
X9980000Y-22031057D01*
X4250500Y-22031057D01*
X4250500Y-21901583D01*
X4243904Y-21859940D01*
X4219709Y-21707176D01*
X4219706Y-21707163D01*
X4158886Y-21519980D01*
X4158884Y-21519977D01*
X4158884Y-21519975D01*
X4069524Y-21344595D01*
X3953828Y-21185354D01*
X3814646Y-21046172D01*
X3814643Y-21046169D01*
X3814641Y-21046168D01*
X3655404Y-20930475D01*
X3480019Y-20841113D01*
X3292836Y-20780293D01*
X3292823Y-20780290D01*
X3098418Y-20749500D01*
X3098417Y-20749500D01*
X2901583Y-20749500D01*
X2901582Y-20749500D01*
X2707176Y-20780290D01*
X2707163Y-20780293D01*
X2519980Y-20841113D01*
X2344595Y-20930475D01*
X2185358Y-21046168D01*
X2046168Y-21185358D01*
X1930475Y-21344595D01*
X1841113Y-21519980D01*
X1780293Y-21707163D01*
X1780290Y-21707176D01*
X1749500Y-21901582D01*
X300500Y-21901582D01*
X300500Y-6840688D01*
X3932500Y-6840688D01*
X3932500Y-6959311D01*
X3963199Y-7073882D01*
X3963201Y-7073887D01*
X4022508Y-7176609D01*
X4022509Y-7176610D01*
X4022511Y-7176613D01*
X4106387Y-7260489D01*
X4209114Y-7319799D01*
X4209115Y-7319799D01*
X4209117Y-7319800D01*
X4266402Y-7335149D01*
X4323688Y-7350499D01*
X4323689Y-7350500D01*
X4323691Y-7350500D01*
X4442309Y-7350500D01*
X4458049Y-7346282D01*
X4514200Y-7353673D01*
X4529528Y-7365433D01*
X6850029Y-9685935D01*
X6850030Y-9685936D01*
X6913464Y-9749370D01*
X6996345Y-9783700D01*
X14923343Y-9783700D01*
X14975669Y-9805374D01*
X16827265Y-11656970D01*
X16848939Y-11709296D01*
X16846418Y-11728446D01*
X16842200Y-11744188D01*
X16842200Y-11862811D01*
X16872899Y-11977382D01*
X16872901Y-11977387D01*
X16932208Y-12080109D01*
X16932209Y-12080110D01*
X16932211Y-12080113D01*
X17016087Y-12163989D01*
X17016089Y-12163990D01*
X17016090Y-12163991D01*
X17118812Y-12223298D01*
X17118814Y-12223299D01*
X17118815Y-12223299D01*
X17118817Y-12223300D01*
X17140441Y-12229094D01*
X17233388Y-12253999D01*
X17233389Y-12254000D01*
X17233391Y-12254000D01*
X17352011Y-12254000D01*
X17352011Y-12253999D01*
X17466586Y-12223299D01*
X17569313Y-12163989D01*
X17653189Y-12080113D01*
X17656385Y-12074577D01*
X17701315Y-12040096D01*
X17757468Y-12047484D01*
X17784558Y-12074572D01*
X17801207Y-12103407D01*
X17801207Y-12103408D01*
X17801209Y-12103410D01*
X17801211Y-12103413D01*
X17885087Y-12187289D01*
X17885089Y-12187290D01*
X17885090Y-12187291D01*
X17987812Y-12246598D01*
X17987814Y-12246599D01*
X17987815Y-12246599D01*
X17987817Y-12246600D01*
X18045102Y-12261949D01*
X18102388Y-12277299D01*
X18102389Y-12277300D01*
X18102391Y-12277300D01*
X18221011Y-12277300D01*
X18221011Y-12277299D01*
X18335586Y-12246599D01*
X18353099Y-12236488D01*
X18409252Y-12229094D01*
X18454185Y-12263572D01*
X18464100Y-12300573D01*
X18464100Y-12839742D01*
X18442426Y-12892068D01*
X17950026Y-13384468D01*
X17897700Y-13406142D01*
X17845374Y-13384468D01*
X17823700Y-13332142D01*
X17823700Y-13240689D01*
X17823699Y-13240688D01*
X17793000Y-13126117D01*
X17792998Y-13126112D01*
X17733691Y-13023390D01*
X17733690Y-13023389D01*
X17733689Y-13023387D01*
X17649813Y-12939511D01*
X17649810Y-12939509D01*
X17649809Y-12939508D01*
X17547087Y-12880201D01*
X17547082Y-12880199D01*
X17432511Y-12849500D01*
X17432509Y-12849500D01*
X17313891Y-12849500D01*
X17313890Y-12849500D01*
X17298146Y-12853718D01*
X17241994Y-12846324D01*
X17226670Y-12834565D01*
X15552478Y-11160373D01*
X15552478Y-11160372D01*
X15478638Y-11086532D01*
X15478636Y-11086530D01*
X15454363Y-11076475D01*
X15454358Y-11076473D01*
X15454358Y-11076472D01*
X15395755Y-11052199D01*
X15306045Y-11052199D01*
X15297433Y-11052199D01*
X15297425Y-11052200D01*
X8773975Y-11052200D01*
X8773967Y-11052199D01*
X8765355Y-11052199D01*
X8675645Y-11052199D01*
X8617039Y-11076474D01*
X8617037Y-11076475D01*
X8617036Y-11076474D01*
X8592763Y-11086530D01*
X8273231Y-11406063D01*
X8273230Y-11406065D01*
X8238899Y-11488944D01*
X8238899Y-11587266D01*
X8238900Y-11587275D01*
X8238900Y-12968246D01*
X8217226Y-13020572D01*
X8146008Y-13091790D01*
X8086701Y-13194512D01*
X8086699Y-13194517D01*
X8056000Y-13309088D01*
X8056000Y-13427711D01*
X8086699Y-13542282D01*
X8086701Y-13542287D01*
X8146008Y-13645009D01*
X8146009Y-13645010D01*
X8146011Y-13645013D01*
X8229887Y-13728889D01*
X8229889Y-13728890D01*
X8229890Y-13728891D01*
X8315044Y-13778055D01*
X8332614Y-13788199D01*
X8332615Y-13788199D01*
X8332617Y-13788200D01*
X8389902Y-13803549D01*
X8447188Y-13818899D01*
X8447189Y-13818900D01*
X8447191Y-13818900D01*
X8565811Y-13818900D01*
X8565811Y-13818899D01*
X8680386Y-13788199D01*
X8696700Y-13778779D01*
X8752852Y-13771387D01*
X8797786Y-13805865D01*
X8807700Y-13842866D01*
X8807700Y-19174473D01*
X8807699Y-19174487D01*
X8807699Y-19270156D01*
X8831973Y-19328758D01*
X8842029Y-19353034D01*
X8842032Y-19353038D01*
X8915871Y-19426877D01*
X8915873Y-19426878D01*
X10046965Y-20557970D01*
X10068639Y-20610296D01*
X10066118Y-20629446D01*
X10061900Y-20645188D01*
X10061900Y-20763811D01*
X10092599Y-20878382D01*
X10092601Y-20878387D01*
X10151908Y-20981109D01*
X10151909Y-20981110D01*
X10151911Y-20981113D01*
X10235787Y-21064989D01*
X10338514Y-21124299D01*
X10338515Y-21124299D01*
X10338517Y-21124300D01*
X10395802Y-21139649D01*
X10453088Y-21154999D01*
X10453089Y-21155000D01*
X10453091Y-21155000D01*
X10571711Y-21155000D01*
X10571711Y-21154999D01*
X10686286Y-21124299D01*
X10789013Y-21064989D01*
X10872889Y-20981113D01*
X10932199Y-20878386D01*
X10962899Y-20763811D01*
X10962900Y-20763811D01*
X10962900Y-20645189D01*
X10962899Y-20645188D01*
X10932200Y-20530617D01*
X10932198Y-20530612D01*
X10872891Y-20427890D01*
X10872890Y-20427889D01*
X10872889Y-20427887D01*
X10789013Y-20344011D01*
X10789010Y-20344009D01*
X10789009Y-20344008D01*
X10686287Y-20284701D01*
X10686282Y-20284699D01*
X10571711Y-20254000D01*
X10571709Y-20254000D01*
X10453091Y-20254000D01*
X10453090Y-20254000D01*
X10437346Y-20258218D01*
X10381194Y-20250824D01*
X10365870Y-20239065D01*
X9280374Y-19153569D01*
X9258700Y-19101243D01*
X9258700Y-17601057D01*
X9980000Y-17601057D01*
X9980000Y-18145000D01*
X10380000Y-18145000D01*
X10380000Y-18295000D01*
X9980000Y-18295000D01*
X9980000Y-18838942D01*
X10006899Y-18974176D01*
X10006902Y-18974186D01*
X10059667Y-19101573D01*
X10136273Y-19216223D01*
X10233776Y-19313726D01*
X10348426Y-19390332D01*
X10475813Y-19443097D01*
X10475823Y-19443100D01*
X10604999Y-19468794D01*
X10605000Y-19468794D01*
X10605000Y-19060486D01*
X10640504Y-19070000D01*
X10719496Y-19070000D01*
X10755000Y-19060486D01*
X10755000Y-19468794D01*
X10884176Y-19443100D01*
X10884186Y-19443097D01*
X11011573Y-19390332D01*
X11126223Y-19313726D01*
X11126225Y-19313725D01*
X11223725Y-19216225D01*
X11223726Y-19216223D01*
X11300332Y-19101573D01*
X11353097Y-18974186D01*
X11353100Y-18974176D01*
X11380000Y-18838942D01*
X11380000Y-18295000D01*
X10980000Y-18295000D01*
X10980000Y-18145000D01*
X11380000Y-18145000D01*
X11380000Y-17601057D01*
X11353100Y-17465823D01*
X11353097Y-17465813D01*
X11300332Y-17338426D01*
X11223726Y-17223776D01*
X11126223Y-17126273D01*
X11011573Y-17049667D01*
X10884184Y-16996901D01*
X10884177Y-16996899D01*
X10755000Y-16971204D01*
X10755000Y-17379513D01*
X10719496Y-17370000D01*
X10640504Y-17370000D01*
X10605000Y-17379513D01*
X10605000Y-16971204D01*
X10475822Y-16996899D01*
X10475815Y-16996901D01*
X10348426Y-17049667D01*
X10233776Y-17126273D01*
X10233775Y-17126275D01*
X10136275Y-17223775D01*
X10136273Y-17223776D01*
X10059667Y-17338426D01*
X10006902Y-17465813D01*
X10006899Y-17465823D01*
X9980000Y-17601057D01*
X9258700Y-17601057D01*
X9258700Y-13010655D01*
X9280374Y-12958329D01*
X9295699Y-12946569D01*
X9303113Y-12942289D01*
X9386989Y-12858413D01*
X9446299Y-12755686D01*
X9476999Y-12641111D01*
X9477000Y-12641111D01*
X9477000Y-12522489D01*
X9476999Y-12522488D01*
X9446300Y-12407917D01*
X9446298Y-12407912D01*
X9386991Y-12305190D01*
X9386990Y-12305189D01*
X9386989Y-12305187D01*
X9303113Y-12221311D01*
X9303110Y-12221309D01*
X9303109Y-12221308D01*
X9200387Y-12162001D01*
X9200382Y-12161999D01*
X9085811Y-12131300D01*
X9085809Y-12131300D01*
X8967191Y-12131300D01*
X8967189Y-12131300D01*
X8852617Y-12161999D01*
X8852612Y-12162001D01*
X8800900Y-12191858D01*
X8744747Y-12199251D01*
X8699814Y-12164772D01*
X8689900Y-12127772D01*
X8689900Y-11657857D01*
X8711574Y-11605531D01*
X8792231Y-11524874D01*
X8844557Y-11503200D01*
X15226843Y-11503200D01*
X15279169Y-11524874D01*
X16907765Y-13153470D01*
X16929439Y-13205796D01*
X16926918Y-13224946D01*
X16922700Y-13240688D01*
X16922700Y-13359311D01*
X16953399Y-13473882D01*
X16953401Y-13473887D01*
X17012708Y-13576609D01*
X17012709Y-13576610D01*
X17012711Y-13576613D01*
X17096587Y-13660489D01*
X17096589Y-13660490D01*
X17096590Y-13660491D01*
X17199312Y-13719798D01*
X17199314Y-13719799D01*
X17199315Y-13719799D01*
X17199317Y-13719800D01*
X17256602Y-13735149D01*
X17313888Y-13750499D01*
X17313889Y-13750500D01*
X17405343Y-13750500D01*
X17457669Y-13772174D01*
X17479343Y-13824500D01*
X17457669Y-13876825D01*
X14666695Y-16667799D01*
X12724965Y-18609529D01*
X12724963Y-18609531D01*
X12689146Y-18645347D01*
X12636820Y-18667020D01*
X12584494Y-18645345D01*
X12565343Y-18612175D01*
X12553095Y-18566464D01*
X12490495Y-18458036D01*
X12401964Y-18369505D01*
X12401963Y-18369504D01*
X12296496Y-18308614D01*
X12293536Y-18306905D01*
X12293535Y-18306904D01*
X12293536Y-18306904D01*
X12172603Y-18274500D01*
X12172601Y-18274500D01*
X12047399Y-18274500D01*
X12047397Y-18274500D01*
X11926464Y-18306904D01*
X11818036Y-18369504D01*
X11729504Y-18458036D01*
X11666904Y-18566464D01*
X11634500Y-18687396D01*
X11634500Y-18812603D01*
X11666904Y-18933535D01*
X11729504Y-19041963D01*
X11818036Y-19130495D01*
X11894233Y-19174487D01*
X11926464Y-19193095D01*
X11932903Y-19194820D01*
X11977837Y-19229298D01*
X11985231Y-19285450D01*
X11950753Y-19330384D01*
X11932910Y-19337776D01*
X11928717Y-19338899D01*
X11928712Y-19338901D01*
X11825990Y-19398208D01*
X11742108Y-19482090D01*
X11682801Y-19584812D01*
X11682799Y-19584817D01*
X11652100Y-19699388D01*
X11652100Y-19818011D01*
X11682799Y-19932582D01*
X11682801Y-19932587D01*
X11742108Y-20035309D01*
X11742109Y-20035310D01*
X11742111Y-20035313D01*
X11825987Y-20119189D01*
X11928714Y-20178499D01*
X11928715Y-20178499D01*
X11928717Y-20178500D01*
X11986002Y-20193849D01*
X12043288Y-20209199D01*
X12043289Y-20209200D01*
X12043291Y-20209200D01*
X12161911Y-20209200D01*
X12161911Y-20209199D01*
X12276486Y-20178499D01*
X12379213Y-20119189D01*
X12463089Y-20035313D01*
X12522399Y-19932586D01*
X12553099Y-19818011D01*
X12553100Y-19818011D01*
X12553100Y-19699389D01*
X12548882Y-19683649D01*
X12556274Y-19627496D01*
X12568030Y-19612173D01*
X12970027Y-19210177D01*
X12970030Y-19210175D01*
X12980435Y-19199770D01*
X12980436Y-19199770D01*
X12983748Y-19196457D01*
X13036072Y-19174782D01*
X13088399Y-19196454D01*
X13100162Y-19211785D01*
X13101907Y-19214808D01*
X13101909Y-19214810D01*
X13101911Y-19214813D01*
X13132226Y-19245128D01*
X13153900Y-19297453D01*
X13153900Y-23070277D01*
X13132226Y-23122603D01*
X13116901Y-23134362D01*
X13102790Y-23142509D01*
X13102788Y-23142510D01*
X13018908Y-23226390D01*
X12959601Y-23329112D01*
X12959599Y-23329117D01*
X12928900Y-23443688D01*
X12928900Y-23562311D01*
X12959599Y-23676882D01*
X12959601Y-23676887D01*
X13018908Y-23779609D01*
X13018909Y-23779610D01*
X13018911Y-23779613D01*
X13102787Y-23863489D01*
X13205514Y-23922799D01*
X13205515Y-23922799D01*
X13205517Y-23922800D01*
X13262802Y-23938149D01*
X13320088Y-23953499D01*
X13320089Y-23953500D01*
X13320091Y-23953500D01*
X13438711Y-23953500D01*
X13438711Y-23953499D01*
X13553286Y-23922799D01*
X13656013Y-23863489D01*
X13739889Y-23779613D01*
X13799199Y-23676886D01*
X13829899Y-23562311D01*
X13829900Y-23562311D01*
X13829900Y-23443689D01*
X13829899Y-23443688D01*
X13799200Y-23329117D01*
X13799198Y-23329112D01*
X13739891Y-23226390D01*
X13739890Y-23226389D01*
X13739889Y-23226387D01*
X13656013Y-23142511D01*
X13641899Y-23134362D01*
X13607421Y-23089428D01*
X13604900Y-23070277D01*
X13604900Y-22031057D01*
X18620000Y-22031057D01*
X18620000Y-22325000D01*
X19020000Y-22325000D01*
X19020000Y-22475000D01*
X18620000Y-22475000D01*
X18620000Y-22768942D01*
X18646899Y-22904176D01*
X18646902Y-22904186D01*
X18699667Y-23031573D01*
X18776273Y-23146223D01*
X18873776Y-23243726D01*
X18988426Y-23320332D01*
X19115813Y-23373097D01*
X19115823Y-23373100D01*
X19244999Y-23398794D01*
X19245000Y-23398794D01*
X19245000Y-22990486D01*
X19280504Y-23000000D01*
X19359496Y-23000000D01*
X19395000Y-22990486D01*
X19395000Y-23398794D01*
X19524176Y-23373100D01*
X19524186Y-23373097D01*
X19651573Y-23320332D01*
X19766223Y-23243726D01*
X19766225Y-23243725D01*
X19863725Y-23146225D01*
X19863726Y-23146223D01*
X19940332Y-23031573D01*
X19993097Y-22904186D01*
X19993100Y-22904176D01*
X20020000Y-22768942D01*
X20020000Y-22475000D01*
X19620000Y-22475000D01*
X19620000Y-22325000D01*
X20020000Y-22325000D01*
X20020000Y-22031057D01*
X19996539Y-21913113D01*
X19996539Y-21913112D01*
X19994245Y-21901582D01*
X25749500Y-21901582D01*
X25749500Y-22098417D01*
X25780290Y-22292823D01*
X25780293Y-22292836D01*
X25841113Y-22480019D01*
X25841114Y-22480020D01*
X25841116Y-22480025D01*
X25930476Y-22655405D01*
X26046172Y-22814646D01*
X26185354Y-22953828D01*
X26344595Y-23069524D01*
X26519975Y-23158884D01*
X26519977Y-23158884D01*
X26519980Y-23158886D01*
X26707163Y-23219706D01*
X26707169Y-23219707D01*
X26707174Y-23219709D01*
X26836780Y-23240236D01*
X26901582Y-23250500D01*
X26901583Y-23250500D01*
X27098418Y-23250500D01*
X27147019Y-23242802D01*
X27292826Y-23219709D01*
X27292833Y-23219706D01*
X27292836Y-23219706D01*
X27480019Y-23158886D01*
X27480019Y-23158885D01*
X27480025Y-23158884D01*
X27655405Y-23069524D01*
X27814646Y-22953828D01*
X27953828Y-22814646D01*
X28069524Y-22655405D01*
X28158884Y-22480025D01*
X28219709Y-22292826D01*
X28250500Y-22098417D01*
X28250500Y-21901583D01*
X28243904Y-21859940D01*
X28219709Y-21707176D01*
X28219706Y-21707163D01*
X28158886Y-21519980D01*
X28158884Y-21519977D01*
X28158884Y-21519975D01*
X28069524Y-21344595D01*
X27953828Y-21185354D01*
X27814646Y-21046172D01*
X27814643Y-21046169D01*
X27814641Y-21046168D01*
X27655404Y-20930475D01*
X27480019Y-20841113D01*
X27292836Y-20780293D01*
X27292823Y-20780290D01*
X27098418Y-20749500D01*
X27098417Y-20749500D01*
X26901583Y-20749500D01*
X26901582Y-20749500D01*
X26707176Y-20780290D01*
X26707163Y-20780293D01*
X26519980Y-20841113D01*
X26344595Y-20930475D01*
X26185358Y-21046168D01*
X26046168Y-21185358D01*
X25930475Y-21344595D01*
X25841113Y-21519980D01*
X25780293Y-21707163D01*
X25780290Y-21707176D01*
X25749500Y-21901582D01*
X19994245Y-21901582D01*
X19993100Y-21895824D01*
X19993097Y-21895813D01*
X19940332Y-21768426D01*
X19863726Y-21653776D01*
X19766223Y-21556273D01*
X19651573Y-21479667D01*
X19524184Y-21426901D01*
X19524177Y-21426899D01*
X19395000Y-21401204D01*
X19395000Y-21809513D01*
X19359496Y-21800000D01*
X19280504Y-21800000D01*
X19245000Y-21809513D01*
X19245000Y-21401204D01*
X19115822Y-21426899D01*
X19115815Y-21426901D01*
X18988426Y-21479667D01*
X18873776Y-21556273D01*
X18873775Y-21556275D01*
X18776275Y-21653775D01*
X18776273Y-21653776D01*
X18699667Y-21768426D01*
X18646902Y-21895813D01*
X18646899Y-21895823D01*
X18620000Y-22031057D01*
X13604900Y-22031057D01*
X13604900Y-19418843D01*
X13626574Y-19366517D01*
X13641896Y-19354759D01*
X13739013Y-19298689D01*
X13822889Y-19214813D01*
X13863964Y-19143668D01*
X13908897Y-19109191D01*
X13965050Y-19116583D01*
X13992136Y-19143669D01*
X14031708Y-19212209D01*
X14031709Y-19212210D01*
X14031711Y-19212213D01*
X14115587Y-19296089D01*
X14115589Y-19296090D01*
X14115590Y-19296091D01*
X14217202Y-19354757D01*
X14218314Y-19355399D01*
X14218315Y-19355399D01*
X14218317Y-19355400D01*
X14275602Y-19370749D01*
X14332888Y-19386099D01*
X14332889Y-19386100D01*
X14332891Y-19386100D01*
X14451511Y-19386100D01*
X14451511Y-19386099D01*
X14566086Y-19355399D01*
X14668813Y-19296089D01*
X14752689Y-19212213D01*
X14811999Y-19109486D01*
X14842699Y-18994911D01*
X14842700Y-18994911D01*
X14842700Y-18915788D01*
X16167500Y-18915788D01*
X16167500Y-19034411D01*
X16198199Y-19148982D01*
X16198201Y-19148987D01*
X16257508Y-19251709D01*
X16257509Y-19251710D01*
X16257511Y-19251713D01*
X16341387Y-19335589D01*
X16341389Y-19335590D01*
X16341390Y-19335591D01*
X16394955Y-19366517D01*
X16444114Y-19394899D01*
X16444115Y-19394899D01*
X16444117Y-19394900D01*
X16456463Y-19398208D01*
X16558688Y-19425599D01*
X16558689Y-19425600D01*
X16558691Y-19425600D01*
X16677311Y-19425600D01*
X16677311Y-19425599D01*
X16791886Y-19394899D01*
X16894613Y-19335589D01*
X16978489Y-19251713D01*
X17037799Y-19148986D01*
X17068499Y-19034411D01*
X17068500Y-19034411D01*
X17068500Y-18915789D01*
X17064282Y-18900049D01*
X17071674Y-18843896D01*
X17083430Y-18828573D01*
X17289143Y-18622860D01*
X17341469Y-18601187D01*
X17393795Y-18622861D01*
X17415469Y-18675187D01*
X17414836Y-18684844D01*
X17414500Y-18687396D01*
X17414500Y-18812603D01*
X17446904Y-18933535D01*
X17455218Y-18947934D01*
X17509505Y-19041964D01*
X17598036Y-19130495D01*
X17706464Y-19193095D01*
X17706463Y-19193095D01*
X17770206Y-19210175D01*
X17827396Y-19225499D01*
X17827397Y-19225500D01*
X17827399Y-19225500D01*
X17952603Y-19225500D01*
X17952603Y-19225499D01*
X18073536Y-19193095D01*
X18181964Y-19130495D01*
X18270495Y-19041964D01*
X18333095Y-18933536D01*
X18365499Y-18812603D01*
X18365500Y-18812603D01*
X18365500Y-18687397D01*
X18365499Y-18687396D01*
X18358583Y-18661587D01*
X18333095Y-18566464D01*
X18270495Y-18458036D01*
X18181964Y-18369505D01*
X18181963Y-18369504D01*
X18110826Y-18328434D01*
X18086422Y-18314344D01*
X18073533Y-18306903D01*
X17952603Y-18274500D01*
X17952601Y-18274500D01*
X17827399Y-18274500D01*
X17827389Y-18274500D01*
X17824834Y-18274836D01*
X17823581Y-18274500D01*
X17822549Y-18274500D01*
X17822549Y-18274223D01*
X17770129Y-18260169D01*
X17741819Y-18211115D01*
X17756486Y-18156410D01*
X17762850Y-18149153D01*
X18525768Y-17386236D01*
X18578093Y-17364563D01*
X18630419Y-17386237D01*
X18652093Y-17438563D01*
X18647399Y-17462173D01*
X18647956Y-17462342D01*
X18646899Y-17465823D01*
X18620000Y-17601057D01*
X18620000Y-18145000D01*
X19020000Y-18145000D01*
X19020000Y-18295000D01*
X18620000Y-18295000D01*
X18620000Y-18838942D01*
X18646899Y-18974176D01*
X18646902Y-18974186D01*
X18699667Y-19101573D01*
X18776273Y-19216223D01*
X18873776Y-19313726D01*
X18988426Y-19390332D01*
X19115813Y-19443097D01*
X19115823Y-19443100D01*
X19244999Y-19468794D01*
X19245000Y-19468794D01*
X19245000Y-19060486D01*
X19280504Y-19070000D01*
X19359496Y-19070000D01*
X19395000Y-19060486D01*
X19395000Y-19468794D01*
X19524176Y-19443100D01*
X19524186Y-19443097D01*
X19651573Y-19390332D01*
X19766223Y-19313726D01*
X19766225Y-19313725D01*
X19863725Y-19216225D01*
X19863726Y-19216223D01*
X19940332Y-19101573D01*
X19993097Y-18974186D01*
X19993100Y-18974176D01*
X20020000Y-18838942D01*
X20020000Y-18295000D01*
X19620000Y-18295000D01*
X19620000Y-18145000D01*
X20020000Y-18145000D01*
X20020000Y-17769157D01*
X20041674Y-17716831D01*
X20094000Y-17695157D01*
X20146326Y-17716831D01*
X21545929Y-19116434D01*
X21545930Y-19116436D01*
X21609364Y-19179870D01*
X21633639Y-19189925D01*
X21692245Y-19214201D01*
X21692246Y-19214201D01*
X21790567Y-19214201D01*
X21790575Y-19214200D01*
X25661325Y-19214200D01*
X25661333Y-19214201D01*
X25669945Y-19214201D01*
X25759654Y-19214201D01*
X25759655Y-19214201D01*
X25818260Y-19189925D01*
X25842536Y-19179870D01*
X25905970Y-19116436D01*
X25905970Y-19116435D01*
X25916375Y-19106030D01*
X25916377Y-19106027D01*
X26074470Y-18947933D01*
X26126795Y-18926260D01*
X26145949Y-18928782D01*
X26161690Y-18933000D01*
X26161691Y-18933000D01*
X26280311Y-18933000D01*
X26280311Y-18932999D01*
X26394886Y-18902299D01*
X26497613Y-18842989D01*
X26581489Y-18759113D01*
X26640799Y-18656386D01*
X26671499Y-18541811D01*
X26671500Y-18541811D01*
X26671500Y-18423189D01*
X26671499Y-18423188D01*
X26671287Y-18422398D01*
X26640799Y-18308614D01*
X26632939Y-18295000D01*
X26581491Y-18205890D01*
X26581490Y-18205889D01*
X26581489Y-18205887D01*
X26497613Y-18122011D01*
X26497610Y-18122009D01*
X26497609Y-18122008D01*
X26394887Y-18062701D01*
X26394882Y-18062699D01*
X26280311Y-18032000D01*
X26280309Y-18032000D01*
X26161691Y-18032000D01*
X26161689Y-18032000D01*
X26047117Y-18062699D01*
X26047112Y-18062701D01*
X25944390Y-18122008D01*
X25860508Y-18205890D01*
X25801201Y-18308612D01*
X25801199Y-18308617D01*
X25770500Y-18423188D01*
X25770500Y-18541809D01*
X25774718Y-18557552D01*
X25767324Y-18613704D01*
X25755565Y-18629029D01*
X25643069Y-18741526D01*
X25590743Y-18763200D01*
X25094491Y-18763200D01*
X25042165Y-18741526D01*
X25020491Y-18689200D01*
X25030405Y-18652200D01*
X25034671Y-18644809D01*
X25042999Y-18630386D01*
X25073699Y-18515811D01*
X25073700Y-18515811D01*
X25073700Y-18397189D01*
X25073699Y-18397188D01*
X25066281Y-18369505D01*
X25042999Y-18282614D01*
X25038508Y-18274836D01*
X24983691Y-18179890D01*
X24983690Y-18179889D01*
X24983689Y-18179887D01*
X24899813Y-18096011D01*
X24885699Y-18087862D01*
X24851221Y-18042928D01*
X24848700Y-18023777D01*
X24848700Y-9085475D01*
X24848701Y-9085466D01*
X24848701Y-8987146D01*
X24820841Y-8919887D01*
X24819782Y-8917331D01*
X24814370Y-8904264D01*
X24750936Y-8840830D01*
X24746721Y-8836615D01*
X24746714Y-8836609D01*
X22671534Y-6761429D01*
X22649860Y-6709103D01*
X22652381Y-6689953D01*
X22656600Y-6674209D01*
X22656600Y-6555591D01*
X22656600Y-6555589D01*
X22656599Y-6555588D01*
X22652290Y-6539508D01*
X22625899Y-6441014D01*
X22566589Y-6338287D01*
X22482713Y-6254411D01*
X22482710Y-6254409D01*
X22482709Y-6254408D01*
X22379987Y-6195101D01*
X22379982Y-6195099D01*
X22265411Y-6164400D01*
X22265409Y-6164400D01*
X22146791Y-6164400D01*
X22146789Y-6164400D01*
X22032217Y-6195099D01*
X22032212Y-6195101D01*
X21929490Y-6254408D01*
X21845608Y-6338290D01*
X21786301Y-6441012D01*
X21786299Y-6441017D01*
X21755600Y-6555588D01*
X21755600Y-6674211D01*
X21786299Y-6788782D01*
X21786301Y-6788787D01*
X21845608Y-6891509D01*
X21845609Y-6891510D01*
X21845611Y-6891513D01*
X21929487Y-6975389D01*
X21929489Y-6975390D01*
X21929490Y-6975391D01*
X22032212Y-7034698D01*
X22032214Y-7034699D01*
X22032215Y-7034699D01*
X22032217Y-7034700D01*
X22076364Y-7046529D01*
X22146788Y-7065399D01*
X22146789Y-7065400D01*
X22146791Y-7065400D01*
X22265409Y-7065400D01*
X22281149Y-7061182D01*
X22337300Y-7068573D01*
X22352629Y-7080334D01*
X24376026Y-9103731D01*
X24397700Y-9156057D01*
X24397700Y-18023777D01*
X24376026Y-18076103D01*
X24360701Y-18087862D01*
X24346590Y-18096009D01*
X24346588Y-18096010D01*
X24262708Y-18179890D01*
X24203401Y-18282612D01*
X24203399Y-18282617D01*
X24172700Y-18397188D01*
X24172700Y-18515811D01*
X24203399Y-18630382D01*
X24203402Y-18630388D01*
X24215995Y-18652200D01*
X24223387Y-18708353D01*
X24188909Y-18753286D01*
X24151909Y-18763200D01*
X21861157Y-18763200D01*
X21808831Y-18741526D01*
X19843278Y-16775973D01*
X19843278Y-16775972D01*
X19769438Y-16702132D01*
X19769436Y-16702130D01*
X19769432Y-16702128D01*
X19745158Y-16692073D01*
X19745158Y-16692072D01*
X19686555Y-16667799D01*
X19596845Y-16667799D01*
X19588233Y-16667799D01*
X19588225Y-16667800D01*
X18753275Y-16667800D01*
X18753267Y-16667799D01*
X18744655Y-16667799D01*
X18654946Y-16667799D01*
X18606394Y-16687908D01*
X18606395Y-16687909D01*
X18572067Y-16702128D01*
X18572065Y-16702129D01*
X18508629Y-16765565D01*
X16764528Y-18509665D01*
X16712202Y-18531339D01*
X16693053Y-18528818D01*
X16677309Y-18524600D01*
X16558691Y-18524600D01*
X16558689Y-18524600D01*
X16444117Y-18555299D01*
X16444112Y-18555301D01*
X16341390Y-18614608D01*
X16257508Y-18698490D01*
X16198201Y-18801212D01*
X16198199Y-18801217D01*
X16167500Y-18915788D01*
X14842700Y-18915788D01*
X14842700Y-18914519D01*
X14842700Y-18876291D01*
X14836895Y-18854629D01*
X14836305Y-18848533D01*
X14842916Y-18826859D01*
X14845874Y-18804396D01*
X14852340Y-18795967D01*
X14852831Y-18794361D01*
X14854086Y-18793692D01*
X14857630Y-18789073D01*
X18064516Y-15582188D01*
X19274500Y-15582188D01*
X19274500Y-15700811D01*
X19305199Y-15815382D01*
X19305201Y-15815387D01*
X19364508Y-15918109D01*
X19364509Y-15918110D01*
X19364511Y-15918113D01*
X19448387Y-16001989D01*
X19551114Y-16061299D01*
X19551115Y-16061299D01*
X19551117Y-16061300D01*
X19608402Y-16076649D01*
X19665688Y-16091999D01*
X19665689Y-16092000D01*
X19665691Y-16092000D01*
X19784311Y-16092000D01*
X19784311Y-16091999D01*
X19898886Y-16061299D01*
X20001613Y-16001989D01*
X20085489Y-15918113D01*
X20144799Y-15815386D01*
X20175499Y-15700811D01*
X20175500Y-15700811D01*
X20175500Y-15582189D01*
X20171282Y-15566449D01*
X20178674Y-15510296D01*
X20190430Y-15494973D01*
X22325027Y-13360377D01*
X22325030Y-13360375D01*
X22335435Y-13349970D01*
X22335436Y-13349970D01*
X22398870Y-13286536D01*
X22409680Y-13260438D01*
X22433201Y-13203655D01*
X22433201Y-13113945D01*
X22433201Y-13107987D01*
X22433200Y-13107973D01*
X22433200Y-9358723D01*
X22454874Y-9306397D01*
X22470200Y-9294637D01*
X22484313Y-9286489D01*
X22568189Y-9202613D01*
X22627499Y-9099886D01*
X22658199Y-8985311D01*
X22658200Y-8985311D01*
X22658200Y-8866689D01*
X22658199Y-8866688D01*
X22651270Y-8840830D01*
X22634087Y-8776700D01*
X22627500Y-8752117D01*
X22627498Y-8752112D01*
X22568191Y-8649390D01*
X22568190Y-8649389D01*
X22568189Y-8649387D01*
X22484313Y-8565511D01*
X22484310Y-8565509D01*
X22484309Y-8565508D01*
X22381587Y-8506201D01*
X22381582Y-8506199D01*
X22267011Y-8475500D01*
X22267009Y-8475500D01*
X22148391Y-8475500D01*
X22148389Y-8475500D01*
X22033817Y-8506199D01*
X22033812Y-8506201D01*
X21931090Y-8565508D01*
X21847208Y-8649390D01*
X21787901Y-8752112D01*
X21787899Y-8752117D01*
X21757200Y-8866688D01*
X21757200Y-8985311D01*
X21787899Y-9099882D01*
X21787901Y-9099887D01*
X21847208Y-9202609D01*
X21847209Y-9202610D01*
X21847211Y-9202613D01*
X21931087Y-9286489D01*
X21933145Y-9287677D01*
X21945200Y-9294637D01*
X21979678Y-9339570D01*
X21982200Y-9358723D01*
X21982200Y-13034742D01*
X21960526Y-13087068D01*
X19871528Y-15176065D01*
X19819202Y-15197739D01*
X19800053Y-15195218D01*
X19784309Y-15191000D01*
X19665691Y-15191000D01*
X19665689Y-15191000D01*
X19551117Y-15221699D01*
X19551112Y-15221701D01*
X19448390Y-15281008D01*
X19364508Y-15364890D01*
X19305201Y-15467612D01*
X19305199Y-15467617D01*
X19274500Y-15582188D01*
X18064516Y-15582188D01*
X19711927Y-13934777D01*
X19711930Y-13934775D01*
X19722335Y-13924370D01*
X19722336Y-13924370D01*
X19785770Y-13860936D01*
X19803182Y-13818900D01*
X19820101Y-13778054D01*
X19820101Y-13688345D01*
X19820101Y-13682387D01*
X19820100Y-13682373D01*
X19820100Y-9010823D01*
X19841774Y-8958497D01*
X19857100Y-8946737D01*
X19871213Y-8938589D01*
X19955089Y-8854713D01*
X20014399Y-8751986D01*
X20045099Y-8637411D01*
X20045100Y-8637411D01*
X20045100Y-8518789D01*
X20045099Y-8518788D01*
X20014400Y-8404217D01*
X20014398Y-8404212D01*
X19955091Y-8301490D01*
X19955090Y-8301489D01*
X19955089Y-8301487D01*
X19871213Y-8217611D01*
X19871210Y-8217609D01*
X19871209Y-8217608D01*
X19768487Y-8158301D01*
X19768482Y-8158299D01*
X19695451Y-8138730D01*
X19650518Y-8104251D01*
X19643126Y-8048099D01*
X19662276Y-8014928D01*
X22508331Y-5168874D01*
X22560657Y-5147200D01*
X24379977Y-5147200D01*
X24432303Y-5168874D01*
X24444062Y-5184199D01*
X24452211Y-5198313D01*
X24536087Y-5282189D01*
X24638814Y-5341499D01*
X24638815Y-5341499D01*
X24638817Y-5341500D01*
X24696102Y-5356849D01*
X24753388Y-5372199D01*
X24753389Y-5372200D01*
X24753391Y-5372200D01*
X24872011Y-5372200D01*
X24872011Y-5372199D01*
X24986586Y-5341499D01*
X25089313Y-5282189D01*
X25173189Y-5198313D01*
X25232499Y-5095586D01*
X25263199Y-4981011D01*
X25263200Y-4981011D01*
X25263200Y-4862389D01*
X25263199Y-4862388D01*
X25248851Y-4808839D01*
X25256243Y-4752686D01*
X25301176Y-4718208D01*
X25357329Y-4725600D01*
X25372655Y-4737360D01*
X25639626Y-5004331D01*
X25661300Y-5056657D01*
X25661300Y-9287677D01*
X25639626Y-9340003D01*
X25624301Y-9351762D01*
X25610190Y-9359909D01*
X25610188Y-9359910D01*
X25526308Y-9443790D01*
X25467001Y-9546512D01*
X25466999Y-9546517D01*
X25436300Y-9661088D01*
X25436300Y-9779711D01*
X25466999Y-9894282D01*
X25467001Y-9894287D01*
X25526308Y-9997009D01*
X25526309Y-9997010D01*
X25526311Y-9997013D01*
X25610187Y-10080889D01*
X25712914Y-10140199D01*
X25712915Y-10140199D01*
X25712917Y-10140200D01*
X25770202Y-10155549D01*
X25827488Y-10170899D01*
X25827489Y-10170900D01*
X25827491Y-10170900D01*
X25946111Y-10170900D01*
X25946111Y-10170899D01*
X26060686Y-10140199D01*
X26163413Y-10080889D01*
X26247289Y-9997013D01*
X26306599Y-9894286D01*
X26337299Y-9779711D01*
X26337300Y-9779711D01*
X26337300Y-9661089D01*
X26337299Y-9661088D01*
X26335766Y-9655368D01*
X26306599Y-9546514D01*
X26247289Y-9443787D01*
X26163413Y-9359911D01*
X26149299Y-9351762D01*
X26114821Y-9306828D01*
X26112300Y-9287677D01*
X26112300Y-4986075D01*
X26112301Y-4986066D01*
X26112301Y-4887746D01*
X26112301Y-4887745D01*
X26088025Y-4829139D01*
X26077970Y-4804864D01*
X26014536Y-4741430D01*
X26010321Y-4737215D01*
X26010314Y-4737209D01*
X25544834Y-4271729D01*
X25523160Y-4219403D01*
X25525681Y-4200253D01*
X25529900Y-4184509D01*
X25529900Y-4065891D01*
X25529900Y-4065889D01*
X25529899Y-4065888D01*
X25499200Y-3951317D01*
X25499198Y-3951312D01*
X25439891Y-3848590D01*
X25439890Y-3848589D01*
X25439889Y-3848587D01*
X25356013Y-3764711D01*
X25356010Y-3764709D01*
X25356009Y-3764708D01*
X25253287Y-3705401D01*
X25253282Y-3705399D01*
X25138711Y-3674700D01*
X25138709Y-3674700D01*
X25020091Y-3674700D01*
X25020089Y-3674700D01*
X24905517Y-3705399D01*
X24905512Y-3705401D01*
X24802790Y-3764708D01*
X24718908Y-3848590D01*
X24659601Y-3951312D01*
X24659599Y-3951317D01*
X24628900Y-4065888D01*
X24628900Y-4184511D01*
X24659599Y-4299082D01*
X24659601Y-4299087D01*
X24710004Y-4386386D01*
X24717397Y-4442538D01*
X24682918Y-4487472D01*
X24665073Y-4494864D01*
X24638815Y-4501900D01*
X24638812Y-4501901D01*
X24536090Y-4561208D01*
X24452211Y-4645086D01*
X24444063Y-4659200D01*
X24399130Y-4693678D01*
X24379977Y-4696200D01*
X22391745Y-4696200D01*
X22308866Y-4730528D01*
X18498430Y-8540964D01*
X18492797Y-8554563D01*
X18464099Y-8623844D01*
X18464099Y-8700630D01*
X18442425Y-8752956D01*
X18409253Y-8772108D01*
X18392116Y-8776700D01*
X18392112Y-8776701D01*
X18289390Y-8836008D01*
X18205508Y-8919890D01*
X18146201Y-9022612D01*
X18146199Y-9022617D01*
X18115500Y-9137188D01*
X18115500Y-9255811D01*
X18146199Y-9370382D01*
X18146201Y-9370387D01*
X18205508Y-9473109D01*
X18205509Y-9473110D01*
X18205511Y-9473113D01*
X18289387Y-9556989D01*
X18392114Y-9616299D01*
X18409252Y-9620891D01*
X18454185Y-9655368D01*
X18464100Y-9692369D01*
X18464100Y-11353026D01*
X18442426Y-11405352D01*
X18390100Y-11427026D01*
X18353101Y-11417113D01*
X18346128Y-11413087D01*
X18335586Y-11407001D01*
X18335584Y-11407000D01*
X18335582Y-11406999D01*
X18221011Y-11376300D01*
X18221009Y-11376300D01*
X18102391Y-11376300D01*
X18086648Y-11380518D01*
X18030496Y-11373124D01*
X18015171Y-11361365D01*
X13736478Y-7082673D01*
X13736478Y-7082672D01*
X13662638Y-7008832D01*
X13662636Y-7008830D01*
X13638360Y-6998774D01*
X13638358Y-6998773D01*
X13638358Y-6998772D01*
X13579755Y-6974499D01*
X13490045Y-6974499D01*
X13481433Y-6974499D01*
X13481425Y-6974500D01*
X11811923Y-6974500D01*
X11759597Y-6952826D01*
X11747837Y-6937500D01*
X11739689Y-6923387D01*
X11655813Y-6839511D01*
X11655810Y-6839509D01*
X11655809Y-6839508D01*
X11553087Y-6780201D01*
X11553082Y-6780199D01*
X11438511Y-6749500D01*
X11438509Y-6749500D01*
X11319891Y-6749500D01*
X11319889Y-6749500D01*
X11205317Y-6780199D01*
X11205312Y-6780201D01*
X11102590Y-6839508D01*
X11018708Y-6923390D01*
X10959401Y-7026112D01*
X10959399Y-7026117D01*
X10928700Y-7140688D01*
X10928700Y-7259311D01*
X10959399Y-7373882D01*
X10959401Y-7373887D01*
X11018708Y-7476609D01*
X11018709Y-7476610D01*
X11018711Y-7476613D01*
X11102587Y-7560489D01*
X11205314Y-7619799D01*
X11205315Y-7619799D01*
X11205317Y-7619800D01*
X11262602Y-7635149D01*
X11319888Y-7650499D01*
X11319889Y-7650500D01*
X11319891Y-7650500D01*
X11438511Y-7650500D01*
X11438511Y-7650499D01*
X11553086Y-7619799D01*
X11655813Y-7560489D01*
X11739689Y-7476613D01*
X11747837Y-7462499D01*
X11792770Y-7428022D01*
X11811923Y-7425500D01*
X13410843Y-7425500D01*
X13463169Y-7447174D01*
X15270369Y-9254375D01*
X15292043Y-9306701D01*
X15270369Y-9359027D01*
X15218043Y-9380701D01*
X15181901Y-9369737D01*
X15181868Y-9369819D01*
X15181038Y-9369475D01*
X15176930Y-9368229D01*
X15175138Y-9367032D01*
X15175136Y-9367030D01*
X15150860Y-9356974D01*
X15150858Y-9356973D01*
X15150858Y-9356972D01*
X15092255Y-9332699D01*
X15002545Y-9332699D01*
X14993933Y-9332699D01*
X14993925Y-9332700D01*
X7165258Y-9332700D01*
X7112932Y-9311026D01*
X4848434Y-7046529D01*
X4826760Y-6994203D01*
X4829281Y-6975053D01*
X4833500Y-6959309D01*
X4833500Y-6840691D01*
X4833500Y-6840689D01*
X4833499Y-6840688D01*
X4802800Y-6726117D01*
X4802798Y-6726112D01*
X4743491Y-6623390D01*
X4743490Y-6623389D01*
X4743489Y-6623387D01*
X4659613Y-6539511D01*
X4659610Y-6539509D01*
X4659609Y-6539508D01*
X4556887Y-6480201D01*
X4556882Y-6480199D01*
X4442311Y-6449500D01*
X4442309Y-6449500D01*
X4323691Y-6449500D01*
X4323689Y-6449500D01*
X4209117Y-6480199D01*
X4209112Y-6480201D01*
X4106390Y-6539508D01*
X4022508Y-6623390D01*
X3963201Y-6726112D01*
X3963199Y-6726117D01*
X3932500Y-6840688D01*
X300500Y-6840688D01*
X300500Y-2901582D01*
X1749500Y-2901582D01*
X1749500Y-3098417D01*
X1780290Y-3292823D01*
X1780293Y-3292836D01*
X1841113Y-3480019D01*
X1930475Y-3655404D01*
X2009889Y-3764708D01*
X2046172Y-3814646D01*
X2185354Y-3953828D01*
X2185357Y-3953830D01*
X2185358Y-3953831D01*
X2339592Y-4065889D01*
X2344595Y-4069524D01*
X2519975Y-4158884D01*
X2519977Y-4158884D01*
X2519980Y-4158886D01*
X2707163Y-4219706D01*
X2707169Y-4219707D01*
X2707174Y-4219709D01*
X2836780Y-4240236D01*
X2901582Y-4250500D01*
X2901583Y-4250500D01*
X3098418Y-4250500D01*
X3155121Y-4241519D01*
X3292826Y-4219709D01*
X3292833Y-4219706D01*
X3292836Y-4219706D01*
X3480019Y-4158886D01*
X3480019Y-4158885D01*
X3480025Y-4158884D01*
X3655405Y-4069524D01*
X3814646Y-3953828D01*
X3953828Y-3814646D01*
X4069524Y-3655405D01*
X4158884Y-3480025D01*
X4219709Y-3292826D01*
X4250500Y-3098417D01*
X4250500Y-2901583D01*
X4250500Y-2901582D01*
X25749500Y-2901582D01*
X25749500Y-3098417D01*
X25780290Y-3292823D01*
X25780293Y-3292836D01*
X25841113Y-3480019D01*
X25930475Y-3655404D01*
X26009889Y-3764708D01*
X26046172Y-3814646D01*
X26185354Y-3953828D01*
X26185357Y-3953830D01*
X26185358Y-3953831D01*
X26339592Y-4065889D01*
X26344595Y-4069524D01*
X26519975Y-4158884D01*
X26519977Y-4158884D01*
X26519980Y-4158886D01*
X26707163Y-4219706D01*
X26707169Y-4219707D01*
X26707174Y-4219709D01*
X26836780Y-4240236D01*
X26901582Y-4250500D01*
X26901583Y-4250500D01*
X27098418Y-4250500D01*
X27155121Y-4241519D01*
X27292826Y-4219709D01*
X27292833Y-4219706D01*
X27292836Y-4219706D01*
X27480019Y-4158886D01*
X27480019Y-4158885D01*
X27480025Y-4158884D01*
X27655405Y-4069524D01*
X27814646Y-3953828D01*
X27953828Y-3814646D01*
X28069524Y-3655405D01*
X28158884Y-3480025D01*
X28219709Y-3292826D01*
X28250500Y-3098417D01*
X28250500Y-2901583D01*
X28219709Y-2707174D01*
X28219707Y-2707169D01*
X28219706Y-2707163D01*
X28158886Y-2519980D01*
X28158884Y-2519977D01*
X28158884Y-2519975D01*
X28069524Y-2344595D01*
X27953828Y-2185354D01*
X27814646Y-2046172D01*
X27814643Y-2046169D01*
X27814641Y-2046168D01*
X27655404Y-1930475D01*
X27480019Y-1841113D01*
X27292836Y-1780293D01*
X27292823Y-1780290D01*
X27098418Y-1749500D01*
X27098417Y-1749500D01*
X26901583Y-1749500D01*
X26901582Y-1749500D01*
X26707176Y-1780290D01*
X26707163Y-1780293D01*
X26519980Y-1841113D01*
X26344595Y-1930475D01*
X26185358Y-2046168D01*
X26046168Y-2185358D01*
X25930475Y-2344595D01*
X25841113Y-2519980D01*
X25780293Y-2707163D01*
X25780290Y-2707176D01*
X25749500Y-2901582D01*
X4250500Y-2901582D01*
X4219709Y-2707174D01*
X4219707Y-2707169D01*
X4219706Y-2707163D01*
X4158886Y-2519980D01*
X4158884Y-2519977D01*
X4158884Y-2519975D01*
X4069524Y-2344595D01*
X3953828Y-2185354D01*
X3814646Y-2046172D01*
X3814643Y-2046169D01*
X3814641Y-2046168D01*
X3655404Y-1930475D01*
X3480019Y-1841113D01*
X3292836Y-1780293D01*
X3292823Y-1780290D01*
X3098418Y-1749500D01*
X3098417Y-1749500D01*
X2901583Y-1749500D01*
X2901582Y-1749500D01*
X2707176Y-1780290D01*
X2707163Y-1780293D01*
X2519980Y-1841113D01*
X2344595Y-1930475D01*
X2185358Y-2046168D01*
X2046168Y-2185358D01*
X1930475Y-2344595D01*
X1841113Y-2519980D01*
X1780293Y-2707163D01*
X1780290Y-2707176D01*
X1749500Y-2901582D01*
X300500Y-2901582D01*
X300500Y-374500D01*
X322174Y-322174D01*
X374500Y-300500D01*
X29625500Y-300500D01*
X29677826Y-322174D01*
G37*
G04 #@! TD.AperFunction*
M02*
